<?xml version="1.0" encoding="UTF-8" standalone="no"?>
<!DOCTYPE svg PUBLIC "-//W3C//DTD SVG 1.1//EN" "http://www.w3.org/Graphics/SVG/1.1/DTD/svg11.dtd">
<svg xmlns="http://www.w3.org/2000/svg" version="1.1" viewBox="0.00 0.00 463.00 320.00">
<g stroke-width="2.00" fill="none" stroke-linecap="butt">
<path stroke="#1e8ed0" vector-effect="non-scaling-stroke" d="
  M 363.27 86.57
  L 358.47 90.22
  A 1.19 0.68 -60.1 0 1 358.35 90.29
  Q 352.01 93.79 347.49 96.88
  C 339.05 102.64 330.62 106.65 322.49 111.96
  Q 316.60 115.81 308.16 120.54
  Q 295.78 127.47 281.48 136.80
  C 279.96 137.80 278.15 138.13 276.98 139.40
  A 1.64 1.32 -77.6 0 1 276.58 139.72
  L 261.54 148.05"
/>
<path stroke="#20a0dc" vector-effect="non-scaling-stroke" d="
  M 198.68 140.01
  Q 196.10 138.06 192.72 136.74
  A 0.90 0.85 73.5 0 1 192.55 136.64
  L 179.30 127.12
  A 7.17 7.15 -21.9 0 0 176.45 125.91
  L 175.75 125.78
  A 2.93 2.89 62.1 0 1 174.48 125.38
  Q 160.78 117.21 148.20 109.30
  Q 144.91 107.23 143.96 106.54
  A 39.28 36.24 37.2 0 0 139.27 103.57
  Q 127.50 97.13 113.03 87.63
  C 111.40 86.55 109.81 86.01 108.00 85.46"
/>
<path stroke="#1e8ed0" vector-effect="non-scaling-stroke" d="
  M 236.60 280.95
  L 237.21 236.48
  A 0.27 0.26 -24.9 0 0 236.74 236.31
  L 236.45 236.67"
/>
<path stroke="#1a7dc5" vector-effect="non-scaling-stroke" d="
  M 236.38 232.43
  Q 236.86 234.44 236.45 236.67"
/>
<path stroke="#20a0dc" vector-effect="non-scaling-stroke" d="
  M 236.45 236.67
  Q 235.36 240.01 235.38 243.00
  Q 235.45 250.24 236.11 284.38
  A 0.14 0.14 0.0 0 0 236.26 284.51
  L 236.27 284.51
  A 0.16 0.13 -87.7 0 0 236.40 284.36
  L 236.60 280.95"
/>
<path stroke="#1a7dc5" vector-effect="non-scaling-stroke" d="
  M 236.60 280.95
  Q 236.89 297.03 235.41 312.97
  A 0.68 0.68 0.0 0 1 234.62 313.57
  L 231.47 313.06"
/>
<path stroke="#1a7dc5" vector-effect="non-scaling-stroke" d="
  M 216.43 189.79
  L 215.87 170.90
  A 2.82 2.81 12.3 0 0 214.30 168.46
  L 209.88 166.29"
/>
<path stroke="#1a85cb" vector-effect="non-scaling-stroke" d="
  M 191.65 225.45
  C 185.91 228.23 181.23 229.84 176.15 225.03
  Q 172.73 221.79 169.79 215.45
  A 3.12 3.05 -62.8 0 1 169.53 214.61
  Q 168.78 209.95 165.46 207.78
  Q 159.24 203.73 152.07 200.94"
/>
</g>
<path fill="#23b1e7" d="
  M 363.27 86.57
  L 358.47 90.22
  A 1.19 0.68 -60.1 0 1 358.35 90.29
  Q 352.01 93.79 347.49 96.88
  C 339.05 102.64 330.62 106.65 322.49 111.96
  Q 316.60 115.81 308.16 120.54
  Q 295.78 127.47 281.48 136.80
  C 279.96 137.80 278.15 138.13 276.98 139.40
  A 1.64 1.32 -77.6 0 1 276.58 139.72
  L 261.54 148.05
  Q 260.26 147.47 258.78 148.30
  Q 246.91 155.02 237.23 161.00
  A 1.37 1.35 37.6 0 1 236.10 161.14
  Q 234.34 160.59 231.00 158.60
  C 223.75 154.28 219.26 150.98 212.17 147.33
  Q 210.34 146.38 205.16 143.07
  Q 203.74 142.16 198.68 140.01
  Q 196.10 138.06 192.72 136.74
  A 0.90 0.85 73.5 0 1 192.55 136.64
  L 179.30 127.12
  A 7.17 7.15 -21.9 0 0 176.45 125.91
  L 175.75 125.78
  A 2.93 2.89 62.1 0 1 174.48 125.38
  Q 160.78 117.21 148.20 109.30
  Q 144.91 107.23 143.96 106.54
  A 39.28 36.24 37.2 0 0 139.27 103.57
  Q 127.50 97.13 113.03 87.63
  C 111.40 86.55 109.81 86.01 108.00 85.46
  Q 107.60 84.12 109.36 83.08
  Q 200.27 29.59 235.52 8.58
  A 0.75 0.73 44.3 0 1 236.27 8.58
  L 271.98 29.98
  A 0.71 0.71 0.0 0 1 271.97 31.20
  Q 252.90 42.43 252.02 43.01
  Q 251.33 43.46 248.19 44.42
  A 2.90 2.75 20.0 0 0 247.73 44.62
  L 187.08 80.08
  A 3.67 3.64 -13.3 0 0 185.27 82.99
  C 184.97 87.58 180.74 89.34 177.08 86.97
  C 172.68 84.13 174.77 77.81 179.88 77.29
  C 181.41 77.13 182.34 78.06 183.77 78.24
  A 1.16 1.10 -55.4 0 0 184.49 78.09
  L 245.32 42.37
  A 0.99 0.99 0.0 0 0 245.33 40.66
  L 236.63 35.45
  A 1.89 1.88 44.6 0 0 234.66 35.46
  C 225.64 41.04 215.91 47.26 206.25 52.91
  Q 168.86 74.80 144.02 89.61
  A 1.01 1.01 0.0 0 0 143.99 91.33
  L 166.61 105.83
  A 0.86 0.85 -43.3 0 0 167.51 105.85
  L 283.90 37.50
  A 0.87 0.87 0.0 0 1 284.80 37.50
  L 302.46 48.08
  A 1.81 1.78 44.9 0 0 304.31 48.09
  Q 312.96 42.94 323.18 37.25
  C 326.39 35.45 326.53 35.82 329.76 37.11
  A 1.48 1.46 40.0 0 0 331.04 37.01
  L 340.55 31.43
  A 1.63 1.62 -12.5 0 0 341.34 30.19
  Q 341.88 24.78 347.16 25.02
  A 2.55 2.46 -27.6 0 1 348.29 25.35
  C 352.78 27.95 352.06 34.20 346.51 34.84
  C 345.26 34.99 344.27 34.09 343.05 33.90
  A 1.44 1.44 0.0 0 0 342.11 34.07
  Q 335.20 37.93 332.33 39.85
  Q 331.28 40.54 332.06 42.49
  A 1.67 1.66 64.0 0 1 331.36 44.54
  L 314.10 54.67
  A 0.56 0.56 0.0 0 0 314.10 55.63
  L 322.53 60.68
  A 1.08 1.07 -43.5 0 0 323.59 60.70
  L 340.09 51.69
  A 1.88 1.88 0.0 0 0 341.06 50.15
  Q 341.32 45.77 345.58 45.08
  Q 346.32 44.96 349.34 45.82
  A 2.46 2.43 38.5 0 0 351.19 45.62
  L 359.05 41.33
  A 1.04 1.03 -11.4 0 0 359.58 40.54
  Q 359.73 39.12 359.85 37.77
  C 360.39 31.99 368.19 31.97 370.65 36.33
  C 372.24 39.13 371.25 44.08 367.81 45.03
  C 365.17 45.76 363.56 44.99 361.27 44.01
  A 1.53 1.51 -47.1 0 0 359.93 44.07
  L 351.78 48.52
  A 1.46 1.45 -11.0 0 0 351.03 49.62
  L 348.65 68.81
  A 1.39 1.36 -12.7 0 1 348.00 69.81
  L 343.33 72.64
  A 0.69 0.69 0.0 0 0 343.33 73.82
  L 357.30 82.18
  A 2.47 2.46 -44.7 0 0 359.83 82.19
  L 380.11 70.28
  A 2.83 2.80 78.5 0 0 381.48 68.19
  C 381.84 65.11 383.86 62.01 387.24 62.36
  C 392.10 62.87 393.81 67.81 391.15 71.57
  Q 389.05 74.54 384.46 72.54
  A 2.62 2.60 -48.1 0 0 382.10 72.68
  L 363.43 83.65
  A 1.03 1.01 80.7 0 0 362.95 84.33
  Q 362.73 85.47 363.27 86.57
  Z
  M 326.59 63.55
  L 339.26 71.14
  A 1.33 1.31 -48.6 0 0 340.76 71.04
  L 345.87 67.00
  A 3.20 3.19 -19.1 0 0 347.09 64.49
  L 347.09 55.57
  A 0.95 0.94 14.4 0 0 346.59 54.74
  Q 343.55 53.13 341.23 54.47
  Q 331.63 59.99 326.62 62.55
  A 0.57 0.57 0.0 0 0 326.59 63.55
  Z
  M 283.65 64.31
  A 0.80 0.80 0.0 0 0 282.83 64.31
  L 259.70 78.31
  A 0.80 0.80 0.0 0 0 259.70 79.68
  L 280.99 92.44
  A 0.80 0.80 0.0 0 0 282.20 91.76
  L 282.20 82.30
  A 0.80 0.80 0.0 0 1 282.59 81.62
  L 296.34 73.28
  A 0.80 0.80 0.0 0 0 296.34 71.91
  L 283.65 64.31
  Z
  M 389.78 67.86
  A 2.62 2.62 0.0 0 0 387.16 65.24
  A 2.62 2.62 0.0 0 0 384.54 67.86
  A 2.62 2.62 0.0 0 0 387.16 70.48
  A 2.62 2.62 0.0 0 0 389.78 67.86
  Z
  M 305.25 77.16
  L 301.13 74.69
  A 1.43 1.41 -44.9 0 0 299.66 74.70
  L 285.88 83.04
  A 1.29 1.27 -12.2 0 0 285.28 83.96
  L 284.10 93.51
  A 1.70 1.69 19.1 0 0 284.92 95.18
  L 292.41 99.67
  A 0.96 0.96 0.0 0 0 293.86 98.89
  Q 294.23 90.62 294.64 86.65
  Q 294.82 84.85 297.01 83.54
  Q 300.93 81.18 305.26 78.55
  A 0.81 0.81 0.0 0 0 305.25 77.16
  Z
  M 182.49 82.63
  A 2.53 2.53 0.0 0 0 179.96 80.10
  A 2.53 2.53 0.0 0 0 177.43 82.63
  A 2.53 2.53 0.0 0 0 179.96 85.16
  A 2.53 2.53 0.0 0 0 182.49 82.63
  Z
  M 331.31 92.86
  L 331.14 92.56
  A 0.30 0.20 7.3 0 0 331.06 92.49
  L 312.08 80.98
  A 0.73 0.72 15.7 0 0 310.98 81.59
  L 310.98 88.55
  A 1.38 1.35 15.6 0 0 311.65 89.72
  L 314.13 91.21
  A 1.31 1.29 -89.4 0 1 314.60 91.70
  C 317.62 97.21 312.83 102.19 307.41 99.05
  Q 303.90 97.03 305.25 92.38
  A 1.60 1.58 -15.2 0 1 305.63 91.73
  L 307.80 89.49
  A 1.38 1.35 -23.3 0 0 308.19 88.54
  L 308.19 81.46
  A 0.55 0.54 -15.4 0 0 307.37 81.00
  L 298.92 85.96
  A 3.03 3.02 -11.9 0 0 297.45 88.20
  L 295.87 100.95
  A 1.37 1.37 0.0 0 0 296.52 102.29
  L 305.52 107.68
  A 1.31 1.30 -44.4 0 0 306.85 107.69
  L 331.17 93.41
  A 0.41 0.40 -31.1 0 0 331.31 92.86
  Z
  M 307.4622 94.3924
  A 2.68 2.40 -177.7 0 0 310.0437 96.8981
  A 2.68 2.40 -177.7 0 0 312.8178 94.6076
  A 2.68 2.40 -177.7 0 0 310.2363 92.1019
  A 2.68 2.40 -177.7 0 0 307.4622 94.3924
  Z
  M 225.20 102.21
  Q 226.02 104.35 224.73 106.22
  A 0.77 0.71 -86.2 0 1 224.51 106.43
  L 218.16 110.28
  A 2.33 2.32 48.2 0 1 215.54 110.13
  L 212.18 107.52
  A 1.86 1.86 0.0 0 0 210.08 107.40
  L 205.38 110.24
  A 0.77 0.77 0.0 0 0 205.38 111.56
  L 214.15 116.82
  A 3.25 3.24 44.8 0 0 217.48 116.81
  L 235.88 105.66
  A 1.65 1.62 -15.7 0 0 236.68 104.26
  L 236.68 93.72
  A 1.02 1.01 -5.8 0 0 235.46 92.73
  C 233.72 93.10 230.91 95.03 227.57 97.09
  C 223.47 99.61 218.80 101.70 214.40 104.76
  A 0.59 0.59 0.0 0 0 214.32 105.66
  Q 215.75 107.08 217.46 107.55
  A 1.69 1.64 40.1 0 0 218.58 107.47
  Q 221.97 105.98 223.24 102.24
  A 1.04 1.04 0.0 0 1 225.20 102.21
  Z
  M 189.06 121.47
  L 197.44 126.49
  A 1.08 1.08 0.0 0 0 198.56 126.49
  L 205.42 122.34
  A 2.84 2.83 44.7 0 1 208.35 122.33
  L 215.43 126.57
  A 2.35 2.34 45.1 0 0 217.83 126.58
  L 254.57 105.01
  A 0.66 0.66 0.0 0 0 254.58 103.88
  L 240.65 95.54
  A 0.89 0.89 0.0 0 0 239.30 96.30
  L 239.30 106.13
  A 2.19 2.18 -14.9 0 1 238.19 108.03
  Q 228.11 113.82 217.91 119.94
  Q 215.73 121.24 213.11 119.69
  Q 209.25 117.38 202.76 113.36
  A 1.99 1.98 45.1 0 0 200.70 113.35
  L 189.06 120.40
  A 0.63 0.62 -45.2 0 0 189.06 121.47
  Z
  M 276.50 117.11
  C 276.33 116.51 266.50 111.01 258.91 106.59
  A 1.28 1.26 44.6 0 0 257.62 106.59
  L 217.20 130.33
  A 1.38 1.36 -44.1 0 1 215.80 130.32
  L 208.12 125.72
  A 2.79 2.78 -44.7 0 0 205.29 125.71
  L 201.57 127.89
  A 1.12 1.12 0.0 0 0 201.57 129.82
  L 219.03 140.28
  A 1.37 1.36 44.5 0 0 220.44 140.27
  Q 237.46 129.71 251.78 121.04
  Q 253.69 119.88 255.21 120.82
  Q 260.55 124.12 262.12 124.67
  Q 263.63 125.20 265.56 124.08
  Q 269.90 121.57 276.25 117.75
  Q 276.62 117.52 276.50 117.11
  Z
  M 283.61 122.42
  A 0.73 0.72 44.8 0 0 283.60 121.18
  L 280.91 119.57
  A 2.19 2.18 43.3 0 0 278.56 119.63
  Q 272.51 123.68 265.80 127.46
  C 264.50 128.19 263.66 128.89 262.15 128.11
  Q 258.55 126.28 254.95 124.07
  A 2.19 2.19 0.0 0 0 252.67 124.06
  L 223.55 141.69
  A 0.98 0.98 0.0 0 0 223.53 143.36
  L 227.42 145.86
  A 2.14 2.14 0.0 0 0 229.76 145.83
  L 254.33 129.40
  A 1.79 1.79 0.0 0 1 256.30 129.38
  L 263.33 133.89
  A 1.24 1.23 45.8 0 0 264.64 133.91
  L 283.61 122.42
  Z
  M 255.84 132.66
  A 0.87 0.87 0.0 0 0 254.91 132.69
  L 232.96 147.38
  A 0.87 0.87 0.0 0 0 233.00 148.85
  L 235.69 150.46
  A 0.87 0.87 0.0 0 0 236.57 150.46
  L 260.04 136.68
  A 0.87 0.87 0.0 0 0 260.04 135.19
  L 255.84 132.66
  Z"
/>
<circle fill="#23b1e7" cx="366.55" cy="15.40" r="3.23"/>
<circle fill="#23b1e7" cx="407.29" cy="15.91" r="3.23"/>
<circle fill="#23b1e7" cx="426.85" cy="28.18" r="3.31"/>
<circle fill="#23b1e7" cx="388.37" cy="28.72" r="3.15"/>
<path fill="#23b1e7" d="
  M 449.8525 38.5874
  A 5.50 5.32 -118.3 0 1 457.1441 40.9079
  A 5.50 5.32 -118.3 0 1 455.0675 48.2726
  A 5.50 5.32 -118.3 0 1 447.7759 45.9521
  A 5.50 5.32 -118.3 0 1 449.8525 38.5874
  Z
  M 455.12 43.37
  A 2.59 2.59 0.0 0 0 452.53 40.78
  A 2.59 2.59 0.0 0 0 449.94 43.37
  A 2.59 2.59 0.0 0 0 452.53 45.96
  A 2.59 2.59 0.0 0 0 455.12 43.37
  Z"
/>
<circle fill="#23b1e7" cx="408.10" cy="43.54" r="3.07"/>
<path fill="#23b1e7" d="
  M 394.32 46.77
  Q 395.83 49.31 394.81 51.73
  Q 392.02 58.34 385.15 54.50
  A 1.07 1.06 43.3 0 0 384.09 54.53
  Q 378.27 58.21 372.94 61.44
  C 371.02 62.60 371.10 62.94 370.66 64.85
  C 369.67 69.26 364.13 69.22 362.21 66.01
  C 360.28 62.79 362.86 57.90 367.21 59.09
  C 369.11 59.61 369.37 59.84 371.30 58.70
  Q 376.66 55.52 382.65 52.13
  A 1.07 1.06 74.9 0 0 383.18 51.21
  Q 383.04 43.34 390.18 44.00
  Q 392.80 44.24 394.32 46.77
  Z"
/>
<path fill="#23b1e7" d="
  M 438.82 51.56
  Q 439.60 52.86 436.26 54.76
  Q 432.56 56.87 431.11 57.75
  A 1.33 1.32 -12.8 0 0 430.49 58.73
  L 430.19 61.40
  A 1.94 1.92 67.6 0 1 429.78 62.40
  C 427.41 65.42 423.00 65.88 420.87 62.31
  C 418.74 58.75 421.22 55.08 425.00 54.42
  A 1.94 1.92 50.5 0 1 426.08 54.53
  L 428.57 55.53
  A 1.33 1.32 -49.0 0 0 429.73 55.44
  Q 431.19 54.58 434.79 52.31
  Q 438.04 50.27 438.82 51.56
  Z"
/>
<rect fill="#1c8fd0" x="-11.13" y="-1.49" transform="translate(399.29,76.19) rotate(-28.6)" width="22.26" height="2.98" rx="1.42"/>
<circle fill="#1c8fd0" cx="425.11" cy="80.88" r="3.30"/>
<path fill="#1c8fd0" d="
  M 383.9423 85.7397
  A 5.43 5.24 -36.9 0 1 382.7462 93.1903
  A 5.43 5.24 -36.9 0 1 375.2577 92.2603
  A 5.43 5.24 -36.9 0 1 376.4538 84.8097
  A 5.43 5.24 -36.9 0 1 383.9423 85.7397
  Z
  M 382.43 88.99
  A 2.72 2.72 0.0 0 0 379.71 86.27
  A 2.72 2.72 0.0 0 0 376.99 88.99
  A 2.72 2.72 0.0 0 0 379.71 91.71
  A 2.72 2.72 0.0 0 0 382.43 88.99
  Z"
/>
<path fill="#1c8fd0" d="
  M 198.68 140.01
  Q 201.85 142.26 205.16 144.27
  Q 210.22 147.34 211.77 148.35
  Q 222.98 155.72 235.08 162.27
  A 1.07 1.06 -76.0 0 1 235.64 163.21
  Q 235.99 206.86 235.67 226.24
  Q 235.65 227.82 236.13 234.38
  L 236.13 234.39
  Q 236.04 233.26 236.38 232.43
  Q 236.86 234.44 236.45 236.67
  Q 235.36 240.01 235.38 243.00
  Q 235.45 250.24 236.11 284.38
  A 0.14 0.14 0.0 0 0 236.26 284.51
  L 236.27 284.51
  A 0.16 0.13 -87.7 0 0 236.40 284.36
  L 236.60 280.95
  Q 236.89 297.03 235.41 312.97
  A 0.68 0.68 0.0 0 1 234.62 313.57
  L 231.47 313.06
  L 217.35 304.49
  A 1.51 1.50 15.8 0 1 216.63 303.21
  L 216.43 189.79
  L 215.87 170.90
  A 2.82 2.81 12.3 0 0 214.30 168.46
  L 209.88 166.29
  L 197.55 158.86
  A 0.69 0.69 0.0 0 0 196.54 159.22
  Q 195.35 162.70 193.71 167.95
  C 192.96 170.35 190.75 171.27 188.82 172.59
  Q 181.03 177.94 173.11 182.47
  A 2.10 2.09 -40.3 0 1 170.73 182.28
  L 170.53 182.11
  A 1.09 1.09 0.0 0 1 170.67 180.33
  L 176.06 177.17
  A 0.85 0.85 0.0 0 0 176.09 175.73
  L 159.48 165.09
  A 2.58 2.58 0.0 0 0 156.77 165.04
  L 147.12 170.70
  A 0.59 0.59 0.0 0 0 147.12 171.71
  L 190.48 197.70
  A 2.09 2.08 15.2 0 1 191.50 199.47
  L 191.65 225.45
  C 185.91 228.23 181.23 229.84 176.15 225.03
  Q 172.73 221.79 169.79 215.45
  A 3.12 3.05 -62.8 0 1 169.53 214.61
  Q 168.78 209.95 165.46 207.78
  Q 159.24 203.73 152.07 200.94
  Q 149.85 199.27 148.81 199.90
  Q 129.16 212.00 109.17 224.41
  A 0.73 0.73 0.0 0 1 108.16 223.41
  L 109.10 221.84
  A 5.08 5.01 -89.8 0 1 110.83 220.10
  L 145.79 198.93
  A 1.19 1.18 -44.3 0 0 145.82 196.92
  L 145.41 196.65
  A 2.41 2.39 45.5 0 0 142.88 196.62
  L 105.75 219.10
  A 1.72 1.72 0.0 0 1 103.97 219.10
  L 102.21 218.05
  A 2.09 2.08 45.1 0 0 100.09 218.04
  L 85.65 226.52
  A 1.36 1.36 0.0 0 0 84.98 227.71
  Q 85.06 232.39 80.46 233.77
  A 1.99 1.99 0.0 0 1 79.32 233.77
  C 70.25 231.04 76.08 220.22 82.27 223.66
  A 2.27 2.26 -45.6 0 0 84.52 223.63
  L 98.32 215.53
  A 1.47 1.46 75.2 0 0 99.05 214.26
  L 99.05 211.28
  A 2.34 2.33 -14.8 0 1 100.24 209.25
  Q 116.60 200.13 131.60 190.09
  A 0.63 0.62 -46.4 0 0 131.58 189.04
  L 124.43 184.76
  A 1.04 1.03 36.9 0 0 123.14 184.94
  Q 121.80 186.38 117.61 188.86
  Q 111.11 192.72 102.34 197.44
  A 1.11 1.11 0.0 0 0 101.89 198.95
  L 103.43 201.77
  A 1.89 1.89 0.0 0 1 102.73 204.30
  L 85.49 214.42
  A 1.59 1.55 -46.3 0 1 83.98 214.47
  L 81.36 213.12
  A 1.44 1.42 41.4 0 0 79.92 213.20
  C 78.02 214.44 72.24 216.95 69.38 219.82
  A 1.17 1.16 -24.9 0 0 69.04 220.73
  Q 69.22 223.36 68.75 224.21
  Q 66.50 228.34 63.11 227.81
  C 54.13 226.39 55.66 214.70 64.01 215.49
  A 1.55 1.45 59.6 0 1 64.51 215.64
  L 66.73 216.78
  A 1.14 1.12 -46.5 0 0 67.82 216.74
  L 78.11 210.70
  A 2.15 2.15 0.0 0 0 79.16 208.66
  Q 79.03 207.13 79.19 206.58
  A 1.61 1.61 0.0 0 1 79.85 205.70
  Q 89.88 199.09 98.67 195.01
  A 0.30 0.30 0.0 0 0 98.69 194.48
  L 89.96 189.24
  A 2.70 2.69 44.8 0 0 87.19 189.24
  L 73.83 197.22
  A 6.78 6.68 -81.4 0 0 72.75 198.03
  C 72.52 198.23 71.90 200.87 71.21 201.79
  Q 68.62 205.25 65.05 202.91
  A 1.11 1.09 46.4 0 0 63.92 202.87
  L 55.38 207.53
  A 2.58 2.57 -10.4 0 0 54.06 209.43
  Q 53.72 211.87 52.38 212.89
  C 46.78 217.13 40.25 209.69 46.61 205.03
  C 48.87 203.37 50.10 204.34 52.23 205.22
  A 1.20 1.20 0.0 0 0 53.23 205.18
  Q 60.87 201.30 61.91 200.46
  C 63.12 199.48 62.98 197.60 63.64 196.47
  Q 65.90 192.59 70.43 194.87
  A 1.82 1.82 0.0 0 0 72.18 194.81
  L 87.56 185.79
  A 0.74 0.72 -53.9 0 1 88.09 185.70
  Q 89.24 185.92 90.81 186.67
  Q 97.45 189.85 100.00 191.94
  A 1.01 1.00 -71.1 0 1 100.38 192.73
  L 100.38 193.69
  A 0.74 0.73 75.8 0 0 101.46 194.34
  L 121.23 183.55
  A 0.56 0.56 0.0 0 0 121.25 182.57
  L 109.34 175.43
  A 2.41 2.40 15.5 0 1 108.17 173.37
  L 108.00 85.46
  C 109.81 86.01 111.40 86.55 113.03 87.63
  Q 127.50 97.13 139.27 103.57
  A 39.28 36.24 37.2 0 1 143.96 106.54
  Q 144.91 107.23 148.20 109.30
  Q 160.78 117.21 174.48 125.38
  A 2.93 2.89 62.1 0 0 175.75 125.78
  L 176.45 125.91
  A 7.17 7.15 -21.9 0 1 179.30 127.12
  L 192.55 136.64
  A 0.90 0.85 73.5 0 0 192.72 136.74
  Q 196.10 138.06 198.68 140.01
  Z
  M 130.18 118.34
  L 130.18 147.29
  A 0.78 0.78 0.0 0 0 131.35 147.96
  L 134.32 146.22
  A 1.46 1.44 -15.9 0 0 135.03 144.96
  C 134.97 142.63 134.56 139.84 136.62 138.48
  C 141.83 135.04 148.26 140.40 144.60 145.57
  C 143.56 147.04 141.33 148.22 139.26 147.79
  Q 138.20 147.57 137.58 147.61
  A 1.32 1.23 -60.1 0 0 137.03 147.78
  L 131.18 151.09
  A 1.49 1.48 -15.0 0 0 130.43 152.38
  L 130.43 160.63
  A 1.85 1.85 0.0 0 0 131.33 162.22
  L 135.68 164.83
  A 1.07 1.05 -52.8 0 0 137.00 164.64
  C 140.40 161.01 145.45 158.79 149.54 156.15
  A 2.73 2.72 -17.2 0 0 150.79 153.79
  Q 150.59 145.86 150.45 134.35
  C 150.42 132.05 151.79 130.68 149.07 129.00
  Q 136.40 121.14 130.98 117.89
  A 0.53 0.53 0.0 0 0 130.18 118.34
  Z
  M 187.14 153.20
  C 186.90 156.68 187.24 160.42 185.58 163.09
  A 1.69 1.69 0.0 0 1 183.27 163.65
  L 171.68 156.71
  A 1.31 1.30 -49.2 0 1 171.53 154.58
  L 171.79 154.37
  A 1.22 1.21 -48.9 0 1 173.17 154.27
  L 182.78 160.03
  A 0.60 0.60 0.0 0 0 183.68 159.59
  L 184.67 151.65
  A 1.35 1.32 -71.3 0 0 184.04 150.35
  L 154.40 132.60
  A 0.67 0.66 15.7 0 0 153.39 133.16
  L 153.39 156.08
  A 1.78 1.78 0.0 0 1 152.54 157.60
  L 139.08 165.75
  A 0.61 0.61 0.0 0 0 139.08 166.80
  L 142.62 168.92
  A 1.81 1.80 44.6 0 0 144.49 168.91
  L 157.31 161.15
  A 2.29 2.28 46.8 0 1 159.80 161.23
  L 178.81 174.44
  A 1.47 1.47 0.0 0 0 180.46 174.46
  L 189.54 168.38
  A 3.77 3.70 -7.6 0 0 191.00 166.50
  L 194.12 157.71
  A 1.24 1.23 25.3 0 0 193.59 156.25
  L 187.87 152.82
  A 0.48 0.48 0.0 0 0 187.14 153.20
  Z
  M 142.64 142.55
  A 2.43 2.43 0.0 0 0 140.21 140.12
  A 2.43 2.43 0.0 0 0 137.78 142.55
  A 2.43 2.43 0.0 0 0 140.21 144.98
  A 2.43 2.43 0.0 0 0 142.64 142.55
  Z
  M 131.5054 196.6612
  A 4.18 3.70 -39.5 0 0 125.9265 196.4650
  A 4.18 3.70 -39.5 0 0 125.0546 201.9788
  A 4.18 3.70 -39.5 0 0 130.6335 202.1750
  A 4.18 3.70 -39.5 0 0 131.5054 196.6612
  Z
  M 82.27 228.57
  A 2.56 2.56 0.0 0 0 79.71 226.01
  A 2.56 2.56 0.0 0 0 77.15 228.57
  A 2.56 2.56 0.0 0 0 79.71 231.13
  A 2.56 2.56 0.0 0 0 82.27 228.57
  Z"
/>
<path fill="#186bb9" d="
  M 363.27 86.57
  L 363.56 95.54
  A 0.50 0.49 -17.0 0 0 364.32 95.94
  Q 368.53 93.24 372.77 91.66
  A 1.03 0.86 -11.7 0 1 374.14 92.40
  Q 374.12 93.19 373.14 93.90
  Q 370.00 96.16 365.82 98.48
  A 6.34 6.19 -83.7 0 0 364.09 99.90
  Q 362.73 101.52 362.01 102.01
  Q 356.16 106.00 338.30 116.54
  Q 314.52 130.57 285.22 148.45
  A 0.49 0.49 0.0 0 0 285.22 149.29
  L 294.29 154.73
  A 1.82 1.82 0.0 0 0 296.13 154.73
  L 312.87 144.90
  A 2.93 2.90 -11.5 0 0 314.29 142.78
  C 314.44 141.66 314.39 140.75 315.06 139.85
  C 319.34 134.08 327.19 141.89 320.89 146.68
  A 2.36 2.33 -65.2 0 1 319.66 147.14
  Q 317.94 147.28 316.51 146.71
  A 1.53 1.50 40.2 0 0 315.19 146.81
  L 296.14 158.00
  A 1.86 1.85 45.2 0 1 294.24 157.99
  L 282.35 150.87
  A 1.32 1.31 -44.4 0 0 281.00 150.86
  L 256.87 165.03
  A 1.52 1.52 0.0 0 0 256.12 166.34
  L 256.12 204.63
  A 0.68 0.68 0.0 0 0 257.22 205.16
  L 260.37 202.67
  A 3.07 3.04 -19.2 0 0 261.54 200.27
  L 261.54 170.29
  A 2.85 2.85 0.0 0 1 262.92 167.85
  L 275.65 160.14
  A 2.39 2.39 0.0 0 1 278.19 160.17
  L 295.17 171.06
  A 1.25 1.25 0.0 0 0 296.47 171.09
  Q 303.10 167.31 321.55 156.31
  Q 330.04 151.25 333.32 149.81
  Q 333.66 149.66 333.68 149.66
  A 1.16 1.16 0.0 0 1 334.43 151.59
  Q 333.16 153.00 331.14 154.16
  Q 312.92 164.61 296.65 174.44
  A 1.62 1.62 0.0 0 1 294.94 174.42
  Q 288.74 170.55 278.18 163.79
  C 276.46 162.69 275.79 163.55 274.41 164.38
  Q 266.30 169.28 265.51 169.84
  A 2.02 1.97 -5.6 0 0 264.87 170.60
  Q 264.34 171.69 264.38 175.26
  Q 264.54 190.34 264.42 202.50
  A 2.68 2.66 -15.1 0 1 263.10 204.78
  L 257.01 208.36
  A 1.90 1.88 -15.3 0 0 256.07 209.99
  L 256.07 219.13
  A 0.74 0.73 -15.3 0 0 257.18 219.76
  L 302.91 192.91
  A 0.77 0.76 -39.6 0 1 303.79 192.99
  Q 306.04 194.94 306.37 195.13
  Q 308.35 196.29 339.85 215.34
  A 0.54 0.54 0.0 0 0 340.67 214.87
  L 340.67 165.84
  A 0.80 0.80 0.0 0 0 339.46 165.16
  L 330.51 170.58
  A 0.99 0.99 0.0 0 0 330.03 171.43
  L 330.17 186.30
  A 1.44 1.40 -68.3 0 0 330.57 187.27
  Q 330.97 187.68 331.82 188.18
  C 334.27 189.64 334.64 193.07 333.49 195.16
  C 331.72 198.39 327.16 198.69 324.77 195.95
  C 322.50 193.33 323.09 190.04 325.92 188.01
  Q 326.89 187.31 327.12 186.76
  A 0.78 0.64 -39.6 0 0 327.17 186.50
  L 327.32 173.75
  A 0.71 0.70 -15.2 0 0 326.25 173.14
  L 313.41 180.92
  A 1.64 1.61 74.8 0 0 312.62 182.32
  L 312.62 194.08
  A 0.92 0.91 15.5 0 1 311.23 194.86
  L 310.69 194.54
  A 1.58 1.58 0.0 0 1 309.93 193.19
  L 309.93 181.06
  A 2.46 2.44 -16.0 0 1 311.09 178.98
  C 334.12 164.81 345.19 157.95 362.05 148.49
  A 0.72 0.72 0.0 0 1 363.12 149.12
  L 363.12 240.43
  A 1.68 1.67 -15.5 0 1 362.30 241.87
  L 236.99 315.45
  A 1.44 1.42 -44.7 0 1 235.52 315.45
  L 231.47 313.06
  L 234.62 313.57
  A 0.68 0.68 0.0 0 0 235.41 312.97
  Q 236.89 297.03 236.60 280.95
  L 237.21 236.48
  A 0.27 0.26 -24.9 0 0 236.74 236.31
  L 236.45 236.67
  Q 236.86 234.44 236.38 232.43
  L 237.03 163.32
  A 0.91 0.91 0.0 0 1 237.47 162.56
  Q 247.37 156.79 256.30 150.54
  Q 257.89 149.43 261.54 148.05
  L 276.58 139.72
  A 1.64 1.32 -77.6 0 0 276.98 139.40
  C 278.15 138.13 279.96 137.80 281.48 136.80
  Q 295.78 127.47 308.16 120.54
  Q 316.60 115.81 322.49 111.96
  C 330.62 106.65 339.05 102.64 347.49 96.88
  Q 352.01 93.79 358.35 90.29
  A 1.19 0.68 -60.1 0 0 358.47 90.22
  L 363.27 86.57
  Z
  M 331.30 192.50
  A 2.45 2.45 0.0 0 0 328.85 190.05
  A 2.45 2.45 0.0 0 0 326.40 192.50
  A 2.45 2.45 0.0 0 0 328.85 194.95
  A 2.45 2.45 0.0 0 0 331.30 192.50
  Z
  M 328.70 234.60
  L 302.96 219.18
  A 0.81 0.80 45.3 0 0 302.12 219.17
  L 256.82 245.77
  A 1.73 1.71 -15.3 0 0 255.97 247.25
  L 255.97 261.50
  A 0.75 0.74 74.4 0 0 257.10 262.14
  L 293.12 240.33
  A 1.61 1.60 72.4 0 0 293.90 238.82
  Q 293.56 234.58 297.50 233.23
  C 305.79 230.37 306.82 246.12 297.22 242.94
  Q 296.15 242.58 295.52 242.55
  A 1.26 1.23 -58.5 0 0 294.81 242.73
  L 256.61 265.86
  A 1.17 1.16 74.5 0 0 256.05 266.86
  L 256.05 276.69
  A 0.69 0.68 74.9 0 0 257.08 277.29
  L 328.70 235.23
  A 0.37 0.36 45.3 0 0 328.70 234.60
  Z
  M 301.53 238.17
  A 2.56 2.56 0.0 0 0 298.97 235.61
  A 2.56 2.56 0.0 0 0 296.41 238.17
  A 2.56 2.56 0.0 0 0 298.97 240.73
  A 2.56 2.56 0.0 0 0 301.53 238.17
  Z"
/>
<path fill="#1c8fd0" d="
  M 330.50 129.90
  A 0.58 0.57 48.6 0 1 330.56 128.95
  L 369.82 105.90
  A 1.65 1.64 -41.1 0 1 371.67 106.02
  L 373.15 107.17
  A 1.28 1.27 48.3 0 0 374.58 107.26
  L 394.70 95.44
  A 1.08 1.07 -14.3 0 0 395.23 94.55
  C 395.28 92.02 395.31 89.87 397.80 88.59
  C 404.97 84.91 410.67 95.33 404.13 99.25
  C 401.10 101.07 399.25 99.62 396.44 98.33
  A 0.90 0.89 41.8 0 0 395.59 98.37
  L 376.32 109.68
  A 1.10 1.09 60.3 0 0 375.92 111.15
  L 376.85 112.87
  A 0.84 0.83 -30.2 0 1 376.55 113.99
  L 339.91 136.18
  A 1.26 1.26 0.0 0 1 338.49 136.09
  L 330.50 129.90
  Z"
/>
<path fill="#187bc5" d="
  M 341.03 156.70
  A 0.32 0.32 0.0 0 1 340.55 156.42
  L 340.55 145.76
  A 0.93 0.90 75.6 0 1 341.01 144.96
  L 361.45 133.20
  A 2.81 2.66 -62.1 0 1 362.40 132.88
  L 364.22 132.65
  A 1.15 1.15 0.0 0 0 364.58 132.53
  L 390.65 117.37
  A 2.27 2.26 -11.7 0 0 391.78 115.66
  C 392.82 107.00 403.69 110.18 402.06 117.01
  C 401.29 120.21 398.18 121.77 395.02 120.68
  Q 393.05 120.00 392.77 119.91
  A 1.12 1.11 -50.8 0 0 391.85 120.01
  L 364.13 136.28
  A 2.24 2.24 0.0 0 0 363.03 138.21
  L 363.03 143.24
  A 0.94 0.93 -15.0 0 1 362.56 144.05
  L 341.03 156.70
  Z
  M 399.50 115.86
  A 2.66 2.66 0.0 0 0 396.84 113.20
  A 2.66 2.66 0.0 0 0 394.18 115.86
  A 2.66 2.66 0.0 0 0 396.84 118.52
  A 2.66 2.66 0.0 0 0 399.50 115.86
  Z"
/>
<circle fill="#23b1e7" cx="260.59" cy="115.54" r="2.78"/>
<path fill="#187bc5" d="
  M 394.72 138.35
  C 396.63 141.75 394.03 145.07 390.46 145.47
  A 0.74 0.66 -36.1 0 1 390.19 145.45
  L 387.59 144.52
  A 1.69 1.67 39.1 0 0 386.20 144.65
  Q 384.04 145.92 382.03 147.05
  Q 380.03 148.17 377.83 149.36
  A 1.69 1.67 82.3 0 0 376.99 150.48
  L 376.43 153.18
  A 0.74 0.66 -22.6 0 1 376.31 153.43
  C 374.11 156.27 369.93 156.76 368.01 153.36
  C 366.10 149.95 368.70 146.63 372.27 146.23
  A 0.74 0.66 -36.1 0 1 372.54 146.26
  L 375.14 147.19
  A 1.69 1.67 39.1 0 0 376.53 147.05
  Q 378.69 145.79 380.69 144.66
  Q 382.70 143.53 384.90 142.35
  A 1.69 1.67 82.3 0 0 385.74 141.23
  L 386.30 138.53
  A 0.74 0.66 -22.6 0 1 386.42 138.28
  C 388.62 135.44 392.80 134.94 394.72 138.35
  Z"
/>
<ellipse fill="#1c8fd0" cx="0.00" cy="0.00" transform="translate(167.07,152.54) rotate(-164.8)" rx="3.29" ry="3.06"/>
<path fill="#1c8fd0" d="
  M 101.12 160.48
  C 103.20 163.95 100.69 167.76 96.87 168.10
  C 95.15 168.26 93.94 166.47 92.06 167.63
  Q 84.47 172.32 82.19 173.51
  A 1.27 1.26 83.4 0 0 81.56 174.31
  Q 81.45 174.73 81.47 175.76
  C 81.56 182.59 73.20 183.85 70.28 179.00
  C 67.37 174.15 72.41 167.36 78.40 170.65
  Q 79.30 171.15 79.72 171.25
  A 1.27 1.26 34.6 0 0 80.72 171.07
  Q 82.85 169.62 90.55 165.12
  C 92.46 164.00 91.45 162.09 92.39 160.65
  C 94.49 157.44 99.03 157.01 101.12 160.48
  Z"
/>
<path fill="#186bb9" d="
  M 216.43 189.79
  L 208.80 193.65
  A 1.30 1.29 -13.6 0 0 208.09 194.80
  L 208.09 216.94
  A 1.25 1.23 22.1 0 0 208.48 217.84
  Q 209.07 218.40 210.18 219.10
  C 212.54 220.61 212.77 224.17 211.68 226.24
  C 208.26 232.76 196.43 225.68 203.55 219.22
  Q 205.05 217.85 205.16 216.88
  Q 205.16 216.85 205.16 216.83
  L 205.23 196.76
  A 0.61 0.61 0.0 0 0 204.31 196.23
  L 196.56 200.77
  A 0.70 0.70 0.0 0 1 195.51 200.17
  L 195.51 197.86
  A 2.41 2.41 0.0 0 0 194.33 195.79
  L 178.60 186.37
  A 0.77 0.76 -45.1 0 1 178.60 185.06
  L 209.88 166.29
  L 214.30 168.46
  A 2.82 2.81 12.3 0 1 215.87 170.90
  L 216.43 189.79
  Z
  M 209.62 223.39
  A 2.63 2.63 0.0 0 0 206.99 220.76
  A 2.63 2.63 0.0 0 0 204.36 223.39
  A 2.63 2.63 0.0 0 0 206.99 226.02
  A 2.63 2.63 0.0 0 0 209.62 223.39
  Z"
/>
<path fill="#186bb9" d="
  M 275.98 176.92
  Q 275.82 177.52 274.54 178.82
  A 3.36 3.34 -22.5 0 0 273.57 181.15
  L 273.47 191.86
  A 2.78 2.72 -59.2 0 0 273.79 193.19
  Q 274.21 193.98 275.32 195.14
  A 2.73 2.72 -48.7 0 1 275.54 198.66
  Q 273.75 201.06 270.99 199.42
  A 1.51 1.49 5.7 0 1 270.37 198.67
  C 269.39 196.09 270.81 195.07 271.89 193.31
  A 1.53 1.50 -29.7 0 0 272.12 192.51
  L 272.02 181.02
  A 3.85 3.80 32.6 0 0 271.67 179.47
  Q 271.34 178.76 270.69 177.93
  A 2.41 2.31 -28.6 0 1 271.85 174.29
  Q 274.27 173.41 275.81 175.84
  A 1.38 1.36 -54.3 0 1 275.98 176.92
  Z"
/>
<circle fill="#187bc5" cx="281.78" cy="183.08" r="2.80"/>
<path fill="#187bc5" d="
  M 191.65 225.45
  L 191.64 288.63
  A 0.63 0.63 0.0 0 1 190.68 289.17
  L 154.39 267.43
  A 2.16 2.15 44.8 0 0 152.18 267.43
  L 132.58 279.30
  A 1.00 0.99 -44.3 0 1 131.53 279.29
  L 129.16 277.77
  A 0.92 0.90 45.6 0 0 128.20 277.75
  L 109.31 288.84
  A 2.86 2.84 -11.3 0 0 107.92 290.91
  C 106.33 302.03 93.62 294.97 99.23 288.50
  Q 101.89 285.43 104.96 287.02
  A 1.65 1.63 -46.6 0 0 106.54 286.97
  L 126.03 275.53
  A 1.66 1.66 0.0 0 0 126.77 273.60
  Q 125.89 270.84 128.84 269.08
  Q 135.33 265.20 142.22 261.40
  A 0.56 0.56 0.0 0 0 142.24 260.42
  L 133.03 254.90
  A 0.93 0.93 0.0 0 0 132.07 254.90
  L 123.35 260.18
  A 1.05 1.03 72.3 0 0 122.86 261.15
  C 123.39 267.54 112.74 268.75 114.01 261.00
  Q 114.53 257.80 118.16 256.98
  A 1.56 1.48 43.4 0 1 118.89 256.98
  L 121.42 257.59
  A 1.24 1.20 -53.2 0 0 122.35 257.44
  L 128.79 253.54
  A 0.76 0.76 0.0 0 0 128.79 252.24
  L 118.30 245.95
  A 1.67 1.65 -44.7 0 0 116.61 245.95
  L 91.21 260.87
  A 1.01 1.00 70.9 0 0 90.72 261.89
  C 91.64 267.82 84.39 271.74 80.18 266.86
  C 76.24 262.28 78.83 257.20 84.66 256.57
  C 86.03 256.42 87.43 257.79 88.78 258.25
  A 1.08 1.06 38.6 0 0 89.67 258.16
  L 113.64 244.09
  A 0.79 0.79 0.0 0 0 113.65 242.73
  L 110.06 240.58
  A 1.02 1.02 0.0 0 1 110.10 238.81
  Q 119.80 233.57 132.99 225.48
  Q 134.17 224.75 134.50 224.10
  A 0.63 0.62 24.5 0 1 135.29 223.81
  C 136.13 224.14 137.28 224.89 137.79 224.95
  C 140.71 225.32 143.30 223.06 143.37 220.06
  A 1.56 1.55 -64.2 0 0 143.02 219.05
  C 140.05 215.44 134.62 215.71 134.38 221.15
  Q 134.34 222.18 134.37 222.34
  A 0.51 0.50 85.2 0 1 133.85 222.96
  Q 132.84 222.91 132.09 223.32
  Q 119.72 230.23 109.06 236.93
  A 0.28 0.27 74.3 0 1 108.64 236.69
  L 108.64 228.30
  A 1.64 1.63 -15.7 0 1 109.43 226.90
  L 152.07 200.94
  Q 159.24 203.73 165.46 207.78
  Q 168.78 209.95 169.53 214.61
  A 3.12 3.05 -62.8 0 0 169.79 215.45
  Q 172.73 221.79 176.15 225.03
  C 181.23 229.84 185.91 228.23 191.65 225.45
  Z
  M 168.10 249.01
  A 0.79 0.79 0.0 0 0 169.29 248.33
  L 169.35 218.07
  A 0.79 0.79 0.0 0 0 168.16 217.38
  L 142.51 232.47
  A 0.79 0.79 0.0 0 0 142.51 233.83
  L 168.10 249.01
  Z"
/>
<circle fill="#1c8fd0" cx="45.75" cy="231.43" r="3.07"/>
<circle fill="#187bc5" cx="162.28" cy="233.70" r="3.42"/>
<path fill="#1c8fd0" d="
  M 97.5630 231.8269
  A 5.42 5.21 -63.8 0 1 99.8447 238.9902
  A 5.42 5.21 -63.8 0 1 92.7770 241.5531
  A 5.42 5.21 -63.8 0 1 90.4953 234.3898
  A 5.42 5.21 -63.8 0 1 97.5630 231.8269
  Z
  M 98.01 236.60
  A 2.64 2.64 0.0 0 0 95.37 233.96
  A 2.64 2.64 0.0 0 0 92.73 236.60
  A 2.64 2.64 0.0 0 0 95.37 239.24
  A 2.64 2.64 0.0 0 0 98.01 236.60
  Z"
/>
<path fill="#23b1e7" d="
  M 236.60 280.95
  L 236.40 284.36
  A 0.16 0.13 -87.7 0 1 236.27 284.51
  L 236.26 284.51
  A 0.14 0.14 0.0 0 1 236.11 284.38
  Q 235.45 250.24 235.38 243.00
  Q 235.36 240.01 236.45 236.67
  L 236.74 236.31
  A 0.27 0.26 -24.9 0 1 237.21 236.48
  L 236.60 280.95
  Z"
/>
<path fill="#1c8fd0" d="
  M 89.00 240.38
  Q 89.58 241.36 85.47 243.97
  Q 80.18 247.33 75.51 250.08
  A 1.35 1.33 -9.1 0 0 74.90 250.91
  Q 74.73 251.57 74.85 251.82
  C 76.08 254.46 70.39 257.32 68.81 257.67
  C 66.81 258.11 65.49 256.46 64.58 254.94
  C 63.67 253.41 62.84 251.47 64.18 249.92
  C 65.25 248.69 70.47 245.05 72.20 247.38
  Q 72.37 247.61 73.03 247.77
  A 1.35 1.33 -52.5 0 0 74.05 247.63
  Q 78.69 244.83 84.16 241.77
  Q 88.41 239.40 89.00 240.38
  Z"
/>
<path fill="#1c8fd0" d="
  M 23.60 264.36
  C 20.75 259.63 25.67 253.00 31.51 256.20
  Q 32.40 256.69 32.81 256.79
  A 1.24 1.23 34.5 0 0 33.79 256.61
  Q 35.85 255.19 43.37 250.79
  C 45.23 249.70 44.24 247.84 45.16 246.43
  C 47.21 243.29 51.64 242.87 53.67 246.25
  C 55.71 249.64 53.27 253.35 49.54 253.69
  C 47.86 253.85 46.68 252.11 44.85 253.24
  Q 37.44 257.83 35.22 258.99
  A 1.24 1.23 83.4 0 0 34.61 259.77
  Q 34.50 260.18 34.52 261.19
  C 34.62 267.85 26.45 269.10 23.60 264.36
  Z"
/>
<path fill="#187bc5" d="
  M 204.98 297.12
  L 204.35 296.90
  A 1.94 1.92 -80.6 0 1 203.07 295.09
  L 203.03 255.74
  A 1.72 1.70 -66.5 0 0 202.58 254.58
  Q 202.32 254.30 201.08 253.36
  C 197.90 250.96 198.74 245.18 202.71 244.24
  C 205.89 243.49 209.18 244.69 209.72 248.24
  C 210.06 250.50 209.19 252.82 207.10 253.88
  Q 206.59 254.14 206.33 254.46
  A 1.46 1.45 65.9 0 0 205.97 255.42
  L 205.95 296.43
  A 0.73 0.73 0.0 0 1 204.98 297.12
  Z
  M 207.02 249.31
  A 2.64 2.64 0.0 0 0 204.38 246.67
  A 2.64 2.64 0.0 0 0 201.74 249.31
  A 2.64 2.64 0.0 0 0 204.38 251.95
  A 2.64 2.64 0.0 0 0 207.02 249.31
  Z"
/>
<circle fill="#1c8fd0" cx="58.79" cy="266.04" r="3.12"/>
<path fill="#1c8fd0" d="
  M 105.99 268.28
  L 106.19 268.62
  A 1.21 1.21 0.0 0 1 105.76 270.27
  L 78.76 286.13
  A 1.85 1.84 -15.0 0 0 77.85 287.70
  Q 77.82 289.98 77.57 290.97
  C 76.17 296.43 68.98 296.53 66.42 292.01
  C 63.57 286.97 69.04 280.10 74.64 283.78
  A 1.95 1.95 0.0 0 0 76.69 283.83
  L 104.04 267.77
  A 1.43 1.43 0.0 0 1 105.99 268.28
  Z"
/>
<circle fill="#1c8fd0" cx="7.52" cy="275.84" r="3.28"/>
<ellipse fill="#1c8fd0" cx="0.00" cy="0.00" transform="translate(43.80,285.12) rotate(-89.1)" rx="3.23" ry="3.10"/>
<ellipse fill="#1c8fd0" cx="0.00" cy="0.00" transform="translate(52.15,301.52) rotate(-89.6)" rx="3.29" ry="3.10"/>
</svg>
