<svg xmlns="http://www.w3.org/2000/svg" viewBox="0 0 254.11 80"><defs><style>.a{fill:#713a9a;}</style></defs><title>beacon-header-color</title><polygon class="a" points="55.95 20 67.14 40 55.95 60 44.76 40 55.95 20"/><polygon class="a" points="11.19 20 22.38 40 11.19 60 0 40 11.19 20"/><polygon class="a" points="23.71 37.62 33.57 20 43.43 37.62 49.02 27.62 33.57 0 18.12 27.62 23.71 37.62"/><polygon class="a" points="33.57 60 23.71 42.38 18.12 52.38 33.57 80 49.02 52.38 43.43 42.38 33.57 60"/><path class="a" d="M235.3,314.56h9.44c5.24,0,7.22,2.7,7.22,5.52a4.89,4.89,0,0,1-2.76,4.68,5.19,5.19,0,0,1,3.39,5c0,3.7-2.92,6.46-7.5,6.46H235.3Zm8.91,8.53c2.23,0,3.14-1,3.14-2.54s-1.2-2.38-3-2.38h-4.48v4.92Zm-4.33,9.48h4.23c2.55,0,3.68-1.06,3.68-3,0-1.76-1.13-2.86-3.71-2.86h-4.2Z" transform="translate(-158.15 -293.56)"/><path class="a" d="M259.49,329c0,2,1,4,3.27,4,1.88,0,2.41-.75,2.85-1.72h4.49c-.56,2-2.35,5.24-7.44,5.24-5.36,0-7.69-4-7.69-8.26,0-5.11,2.61-8.75,7.85-8.75,5.55,0,7.47,4.05,7.47,8.09a10,10,0,0,1-.06,1.39Zm6.28-2.77c0-1.88-.79-3.48-3-3.48s-3,1.48-3.2,3.48Z" transform="translate(-158.15 -293.56)"/><path class="a" d="M286.83,332a34.79,34.79,0,0,0,.22,4.2h-4.3a6.12,6.12,0,0,1-.22-1.6c-.6.91-1.7,2-4.58,2-3.93,0-5.56-2.58-5.56-5.09,0-3.7,2.95-5.43,7.72-5.43h2.32v-1c0-1.16-.4-2.29-2.51-2.29-1.88,0-2.32.79-2.51,2h-4.26c.22-2.89,2-5.21,7-5.21,4.33,0,6.72,1.72,6.72,5.62Zm-4.4-3.21h-1.82c-2.73,0-3.73.85-3.73,2.42a2.1,2.1,0,0,0,2.35,2.17c2.86,0,3.2-2,3.2-4.15Z" transform="translate(-158.15 -293.56)"/><path class="a" d="M304.84,330.94c-.53,2.7-2.44,5.62-7.28,5.62-5.05,0-7.65-3.49-7.65-8.38s2.91-8.63,7.87-8.63c5.46,0,7,3.95,7.06,5.77h-4.36a2.53,2.53,0,0,0-2.79-2.23c-2.07,0-3.23,1.79-3.23,4.93,0,3.49,1.25,5.05,3.2,5.05a2.76,2.76,0,0,0,2.79-2.13Z" transform="translate(-158.15 -293.56)"/><path class="a" d="M323,328c0,4.93-3,8.54-8.09,8.54s-8-3.61-8-8.44c0-5,3-8.57,8.19-8.57C319.88,319.55,323,322.94,323,328Zm-11.51,0c0,3.14,1.35,5,3.51,5s3.45-1.85,3.45-5c0-3.39-1.25-5-3.51-5C312.85,323.09,311.47,324.63,311.47,328.05Z" transform="translate(-158.15 -293.56)"/><path class="a" d="M326.09,324c0-1.39,0-2.89,0-4.12h4.36a19.12,19.12,0,0,1,.19,2.08c.53-1,1.85-2.45,4.71-2.45,3.26,0,5.37,2.23,5.37,6.31v10.32H336.2v-9.82c0-1.85-.6-3.17-2.61-3.17s-3,1.07-3,3.95v9h-4.52Z" transform="translate(-158.15 -293.56)"/><path class="a" d="M236.54,352.37v-6.68H235.3v-1.51h1.24v-.82c0-1.62.75-2.8,2.53-2.8a4.71,4.71,0,0,1,1,.09v1.6a3.06,3.06,0,0,0-.56-.07c-.74,0-1,.34-1,1.33v.67H240v1.51h-1.5v6.68Z" transform="translate(-158.15 -293.56)"/><path class="a" d="M248.55,348.26c0,2.43-1.43,4.3-4,4.3s-3.93-1.82-3.93-4.27,1.48-4.31,4-4.31C247,344,248.55,345.69,248.55,348.26Zm-5.92,0c0,1.66.75,2.71,2,2.71s1.93-1,1.93-2.69-.68-2.73-2-2.73S242.63,346.49,242.63,348.27Z" transform="translate(-158.15 -293.56)"/><path class="a" d="M250.21,346.39c0-.92,0-1.61,0-2.21h1.94c0,.19.05.95.05,1.51a2.72,2.72,0,0,1,2.68-1.71v1.92c-1.66,0-2.68.57-2.68,2.75v3.72h-2Z" transform="translate(-158.15 -293.56)"/><path class="a" d="M262.34,349.56l-1,2.81h-2l3.81-11h2.58l4,11H267.5l-1-2.81Zm3.68-1.72c-.86-2.52-1.39-4-1.66-5h0c-.27,1-.85,2.81-1.55,5Z" transform="translate(-158.15 -293.56)"/><path class="a" d="M271,346.39c0-.92,0-1.61,0-2.21H273c0,.19,0,.95,0,1.51A2.72,2.72,0,0,1,275.7,344v1.92c-1.66,0-2.68.57-2.68,2.75v3.72h-2Z" transform="translate(-158.15 -293.56)"/><path class="a" d="M279,347.78c.63-.82,2-2.3,3.09-3.6h2.29l-2.93,3.12,3.22,5.07h-2.26l-2.3-3.8L279,349.64v2.73h-2V340.72h2Z" transform="translate(-158.15 -293.56)"/><path class="a" d="M286.47,346.77v-2.55h2v2.55Zm0,5.6v-2.54h2v2.54Z" transform="translate(-158.15 -293.56)"/><path class="a" d="M296.3,349.2a2.21,2.21,0,0,0,2.49,1.73c1.42,0,2-.6,2-1.5s-.53-1.43-2.54-1.89c-2.85-.69-3.65-1.71-3.65-3.22,0-1.82,1.36-3.14,3.92-3.14,2.82,0,4,1.56,4.11,3.11h-2.08c-.15-.78-.61-1.53-2.09-1.53-1.1,0-1.74.46-1.74,1.34s.53,1.21,2.36,1.64c3.17.75,3.83,2,3.83,3.46,0,1.92-1.45,3.31-4.29,3.31s-4.16-1.42-4.42-3.31Z" transform="translate(-158.15 -293.56)"/><path class="a" d="M311.52,350c0,.79,0,1.73,0,2.39h-1.93c0-.23-.05-.69-.06-1a2.39,2.39,0,0,1-2.33,1.23c-1.58,0-2.73-.91-2.73-3v-5.35h2v4.95c0,1,.29,1.79,1.4,1.79s1.68-.66,1.68-2.41v-4.33h2Z" transform="translate(-158.15 -293.56)"/><path class="a" d="M313.69,346.39c0-.92,0-1.61,0-2.21h1.95c0,.19.05.95.05,1.51a2.71,2.71,0,0,1,2.67-1.71v1.92c-1.65,0-2.67.57-2.67,2.75v3.72h-2Z" transform="translate(-158.15 -293.56)"/><path class="a" d="M321.36,344.18c.89,3,1.59,5.41,1.78,6.42h0c.22-1.21,1-3.67,1.92-6.42h2l-2.93,8.19H322l-2.8-8.19Z" transform="translate(-158.15 -293.56)"/><path class="a" d="M328.29,342.65v-1.93h2v1.93Zm0,1.53h2v8.19h-2Z" transform="translate(-158.15 -293.56)"/><path class="a" d="M333.67,344.18c.9,3,1.6,5.41,1.79,6.42h0c.22-1.21,1-3.67,1.92-6.42h2l-2.93,8.19h-2.11l-2.8-8.19Z" transform="translate(-158.15 -293.56)"/><path class="a" d="M346.93,350.36a15.69,15.69,0,0,0,.12,2h-1.9a4.7,4.7,0,0,1-.13-.9,2.4,2.4,0,0,1-2.37,1.09,2.52,2.52,0,0,1-2.79-2.55c0-1.85,1.48-2.71,3.89-2.71H345v-.56c0-.64-.21-1.31-1.43-1.31s-1.31.5-1.42,1.1h-1.9c.11-1.33,1-2.56,3.4-2.55,2.13,0,3.29.86,3.29,2.78ZM345,348.54h-1.07c-1.45,0-2.09.43-2.09,1.36a1.19,1.19,0,0,0,1.32,1.21c1.63,0,1.84-1.12,1.84-2.33Z" transform="translate(-158.15 -293.56)"/><path class="a" d="M349.12,352.37V340.72h2v11.65Z" transform="translate(-158.15 -293.56)"/><path class="a" d="M364.82,347.47h-5.34v3.19h5.88l-.26,1.71h-7.65v-11h7.6v1.72h-5.57v2.71h5.34Z" transform="translate(-158.15 -293.56)"/><path class="a" d="M368.05,344.18c.89,3,1.6,5.41,1.79,6.42h0c.23-1.21,1-3.67,1.93-6.42h2l-2.94,8.19h-2.1l-2.8-8.19Z" transform="translate(-158.15 -293.56)"/><path class="a" d="M382.3,348.26c0,2.43-1.44,4.3-4,4.3s-3.94-1.82-3.94-4.27,1.48-4.31,4-4.31C380.77,344,382.3,345.69,382.3,348.26Zm-5.93,0c0,1.66.75,2.71,2,2.71s1.93-1,1.93-2.69-.69-2.73-2-2.73S376.37,346.49,376.37,348.27Z" transform="translate(-158.15 -293.56)"/><path class="a" d="M384,352.37V340.72h2v11.65Z" transform="translate(-158.15 -293.56)"/><path class="a" d="M389.34,344.18c.9,3,1.6,5.41,1.79,6.42h0c.23-1.21,1-3.67,1.93-6.42h2l-2.93,8.19H390l-2.8-8.19Z" transform="translate(-158.15 -293.56)"/><path class="a" d="M397.65,348.69c0,1.22.62,2.29,1.85,2.29a1.5,1.5,0,0,0,1.61-1h2a3.52,3.52,0,0,1-3.67,2.58c-2.64,0-3.77-2-3.77-4.18,0-2.53,1.29-4.4,3.87-4.4,2.75,0,3.68,2.06,3.68,4a5.31,5.31,0,0,1,0,.71Zm3.57-1.26c0-1.1-.5-2-1.71-2s-1.7.83-1.81,2Z" transform="translate(-158.15 -293.56)"/><path class="a" d="M412.25,340.72v9.37c0,.76,0,1.51,0,2.28h-1.91c0-.24-.08-.74-.08-1a2.49,2.49,0,0,1-2.42,1.15c-2.08,0-3.4-1.68-3.4-4.21s1.4-4.37,3.72-4.37a2.25,2.25,0,0,1,2.1.88v-4.14ZM408.4,351c1.68,0,1.93-1.34,1.93-2.73,0-1.54-.25-2.63-1.86-2.63-1.28,0-2,1-2,2.7S407.23,351,408.4,351Z" transform="translate(-158.15 -293.56)"/></svg>