<?xml version="1.0" encoding="UTF-8"?><svg id="Layer_1" xmlns="http://www.w3.org/2000/svg" xmlns:xlink="http://www.w3.org/1999/xlink" viewBox="0 0 250 86"><defs><style>.cls-1,.cls-2{fill:#fff;}.cls-3{fill:url(#Beacon_Colors_Dark-5);}.cls-4{fill:url(#Beacon_Colors_Dark-4);}.cls-5{fill:url(#Beacon_Colors_Dark);}.cls-5,.cls-2,.cls-6,.cls-7{fill-rule:evenodd;}.cls-6{fill:url(#Beacon_Colors_Dark-3);}.cls-7{fill:url(#Beacon_Colors_Dark-2);}</style><linearGradient id="Beacon_Colors_Dark" x1="209.54" y1="4.1" x2="155.89" y2="73.94" gradientUnits="userSpaceOnUse"><stop offset="0" stop-color="#ff0"/><stop offset=".5" stop-color="#f999f1"/><stop offset="1" stop-color="#c2b3ff"/></linearGradient><linearGradient id="Beacon_Colors_Dark-2" x1="198.17" y1="-4.63" x2="144.52" y2="65.21" xlink:href="#Beacon_Colors_Dark"/><linearGradient id="Beacon_Colors_Dark-3" x1="220.9" y1="12.83" x2="167.25" y2="82.67" xlink:href="#Beacon_Colors_Dark"/><linearGradient id="Beacon_Colors_Dark-4" x1="194.99" y1="-7.07" x2="141.34" y2="62.76" xlink:href="#Beacon_Colors_Dark"/><linearGradient id="Beacon_Colors_Dark-5" x1="254.46" y1="38.62" x2="200.81" y2="108.45" xlink:href="#Beacon_Colors_Dark"/></defs><g><path class="cls-2" d="M8.22,44.98v10.65h9.27c1.07,0,2-.43,2.78-1.28,.89-.97,1.34-2.35,1.34-4.17s-.45-2.99-1.34-3.93c-.77-.84-1.7-1.27-2.78-1.27H8.22Zm0-6.56h7.74c1.23,0,2.24-.37,3.06-1.1,.7-.64,1.05-1.63,1.05-2.95s-.35-2.27-1.05-2.91c-.81-.74-1.83-1.11-3.06-1.11h-7.74v8.08h0ZM0,22.44H16.24c3.33,0,6.19,1.09,8.59,3.29,2.49,2.28,3.72,4.83,3.71,7.62-.02,1.87-.51,3.52-1.5,4.96-1.11,1.63-2.63,2.58-4.57,2.83,2.12,.57,3.93,1.89,5.42,3.95,1.47,2.02,2.19,4.13,2.13,6.35-.06,3.02-1.2,5.74-3.43,8.14-2.42,2.64-5.35,3.97-8.81,3.97H0V22.44Z"/><polygon class="cls-2" points="64.67 30.66 46.1 30.66 46.1 37.89 62.94 37.89 62.94 46.1 46.1 46.1 46.1 55.34 64.67 55.34 64.67 63.53 37.88 63.53 37.88 22.44 64.67 22.44 64.67 30.66"/><path class="cls-2" d="M72.1,63.53l20.38-42.85,20.37,42.85h-8.99c-5.96-12.55-5.1-9.27-11.39-24.57-.31,.64-.74,1.66-1.31,3.06-5.17,12.54-4.94,10.66-10.09,21.51h-8.99Z"/><polygon class="cls-2" points="210.08 63.53 210.08 21.34 241.74 47.41 241.74 22.44 249.95 22.44 249.95 64.78 218.3 38.71 218.3 63.53 210.08 63.53"/><path class="cls-2" d="M146.72,33.32c-1.21-1.13-2.61-2.02-4.2-2.66-1.55-.61-3.17-.91-4.88-.91-3.65,0-6.76,1.3-9.34,3.88-2.59,2.59-3.89,5.71-3.89,9.36s1.3,6.79,3.89,9.38c2.58,2.58,5.7,3.88,9.34,3.88,1.7,0,3.33-.31,4.88-.94,1.59-.62,2.99-1.5,4.2-2.63l5.58,5.98c-2,1.89-4.25,3.33-6.74,4.31-2.54,1.01-5.17,1.51-7.91,1.51-5.91,0-10.96-2.1-15.16-6.3-4.2-4.19-6.29-9.26-6.29-15.19s2.09-10.97,6.29-15.16c4.2-4.2,9.25-6.3,15.16-6.3,2.75,0,5.38,.5,7.91,1.5,2.5,.99,4.74,2.42,6.74,4.31l-5.58,5.98Z"/></g><g><path class="cls-1" d="M7.63,73.19c-.67-.28-1.38-.42-2.14-.43-.92,0-1.72,.19-2.39,.56-.67,.38-1.01,.93-1.01,1.65,0,.33,.09,.62,.26,.87,.17,.25,.44,.45,.79,.61,.36,.16,.72,.29,1.08,.38s.82,.18,1.38,.27c.64,.1,1.16,.19,1.55,.28,.39,.09,.85,.22,1.36,.42s.91,.41,1.19,.66c.28,.25,.53,.58,.73,1.01,.2,.42,.3,.92,.3,1.49,0,.69-.16,1.29-.47,1.81-.31,.52-.73,.92-1.26,1.2-.52,.28-1.08,.49-1.67,.63-.59,.14-1.21,.2-1.87,.2-1.23,0-2.33-.24-3.31-.73s-1.69-1.24-2.16-2.26l1.33-.78c.39,.73,.98,1.29,1.75,1.68,.77,.39,1.57,.59,2.41,.59,.43,0,.85-.04,1.25-.11s.79-.2,1.16-.37c.37-.17,.68-.42,.9-.75,.23-.33,.34-.72,.34-1.17,0-.38-.1-.71-.29-1-.19-.28-.48-.51-.86-.68s-.77-.31-1.15-.41c-.39-.1-.87-.19-1.43-.28-.59-.09-1.09-.18-1.49-.27-.4-.09-.83-.23-1.3-.41-.47-.18-.84-.39-1.13-.63-.28-.24-.52-.55-.71-.94-.19-.39-.29-.83-.29-1.34-.01-.64,.13-1.2,.43-1.69,.3-.49,.7-.87,1.2-1.14,.5-.27,1.03-.47,1.59-.6s1.14-.19,1.73-.19c1.11,0,2.07,.17,2.88,.5,.81,.33,1.48,.95,2.01,1.85l-1.22,.76c-.33-.54-.83-.95-1.5-1.23Z"/><path class="cls-1" d="M13.28,71.6h9.09v1.48h-7.5v4.04h7.19v1.5h-7.19v4.38h7.79v1.53H13.28v-12.93Z"/><path class="cls-1" d="M26.44,71.6l7.92,9.9v-9.9h1.59v12.93h-1.11l-7.94-9.86v9.86h-1.59v-12.93h1.13Z"/><path class="cls-1" d="M37.98,73.04v-1.44h10.42v1.44h-4.41v11.49h-1.59v-11.49h-4.41Z"/><path class="cls-1" d="M50.43,71.6h1.61v12.93h-1.61v-12.93Z"/><path class="cls-1" d="M56.6,71.6l7.92,9.9v-9.9h1.59v12.93h-1.11l-7.94-9.86v9.86h-1.59v-12.93h1.13Z"/><path class="cls-1" d="M69.55,71.6h9.09v1.48h-7.5v4.04h7.19v1.5h-7.19v4.38h7.79v1.53h-9.38v-12.93Z"/><path class="cls-1" d="M83.18,83.03h7.04v1.5h-8.64v-12.93h1.61v11.43Z"/></g><g><path class="cls-5" d="M165.73,56.57l13.93,29.28,13.92-29.29-4.47-9.4-9.45,20.4-9.46-20.4-4.47,9.4h0Zm27.85-27.14L179.66,.15l-13.93,29.29,4.47,9.4,9.46-20.4,9.45,20.4,4.47-9.4Z"/><polygon class="cls-7" points="155.13 43 161.58 56.57 168.03 43 161.58 29.43 155.13 43"/><polygon class="cls-6" points="191.27 43 197.73 56.57 204.18 43 197.73 29.43 191.27 43"/><g><polygon class="cls-4" points="95.41 77.98 95.41 79.49 162.74 79.49 162.03 77.98 95.41 77.98"/><polygon class="cls-3" points="197.28 77.98 196.57 79.49 250 79.49 250 77.98 197.28 77.98"/></g></g></svg>