<svg xmlns="http://www.w3.org/2000/svg" xmlns:xlink="http://www.w3.org/1999/xlink" viewBox="0 0 1024 1024"><defs><style>.a,.b,.c{fill-rule:evenodd;}.a{fill:url(#a);}.b{fill:url(#b);}.c{fill:url(#c);}.d{fill:none;}</style><linearGradient id="a" x1="777.01888" y1="167.09425" x2="301.28132" y2="786.33943" gradientUnits="userSpaceOnUse"><stop offset="0" stop-color="#ff0"/><stop offset="0.5" stop-color="#d40cc3"/><stop offset="1" stop-color="#1f0099"/></linearGradient><linearGradient id="b" x1="676.23565" y1="89.66714" x2="200.49809" y2="708.91231" xlink:href="#a"/><linearGradient id="c" x1="877.77204" y1="244.49827" x2="402.03448" y2="863.74344" xlink:href="#a"/></defs><path class="a" d="M388.53823,632.32322,512.04368,892,635.50287,632.315l-39.62994-83.32216-83.82925,180.8829-83.892-180.89937-39.61347,83.34686ZM635.50287,391.685,512.04368,132,388.53823,391.685l39.61347,83.34522,83.892-180.906,83.82925,180.88949Z"/><polygon class="b" points="294.554 511.999 351.777 632.299 408.96 511.999 351.777 391.701 294.554 511.999"/><polygon class="c" points="615.04 511.999 672.263 632.299 729.446 511.999 672.263 391.701 615.04 511.999"/><rect class="d" x="2" width="1024" height="1024"/></svg>