<svg xmlns="http://www.w3.org/2000/svg" viewBox="0 0 250 86"><defs><style>.a{fill:#fff;fill-rule:evenodd;}</style></defs><path class="a" d="M8.24519,44.982V55.62874h9.26773A3.63015,3.63015,0,0,0,20.28834,54.353a5.9346,5.9346,0,0,0,1.33553-4.17,5.27258,5.27258,0,0,0-1.33553-3.93342A3.6507,3.6507,0,0,0,17.51292,44.982Zm0-6.56288h7.7389a4.38081,4.38081,0,0,0,3.05656-1.10155A3.82238,3.82238,0,0,0,20.08612,34.367a3.77141,3.77141,0,0,0-1.04547-2.91225A4.34262,4.34262,0,0,0,15.98409,30.343H8.24519v8.07615ZM.02311,22.44017H16.2643a12.28124,12.28124,0,0,1,8.59031,3.28775,10.10155,10.10155,0,0,1,3.70576,7.62283,8.73925,8.73925,0,0,1-1.49968,4.96234,6.24691,6.24691,0,0,1-4.56628,2.8254,9.78752,9.78752,0,0,1,5.41676,3.946,10.16457,10.16457,0,0,1,2.129,6.34615,11.98335,11.98335,0,0,1-3.43482,8.135,11.50156,11.50156,0,0,1-8.81241,3.967H.02311Z"/><polygon class="a" points="64.689 30.661 46.127 30.661 46.127 37.887 62.959 37.887 62.959 46.101 46.127 46.101 46.127 55.34 64.689 55.34 64.689 63.533 37.904 63.533 37.904 22.44 64.689 22.44 64.689 30.661"/><path class="a" d="M72.12454,63.53272,92.50676,20.67921l20.37311,42.85351h-8.9864c-5.95992-12.54731-5.0994-9.275-11.38671-24.57134-.30826.63843-.74446,1.66384-1.30564,3.05656C86.031,54.559,86.26587,52.681,81.11206,63.53272Z"/><polygon class="a" points="210.103 63.533 210.103 21.336 241.764 47.407 241.764 22.44 249.977 22.44 249.977 64.779 218.325 38.71 218.325 63.533 210.103 63.533"/><path class="a" d="M146.74234,33.32157a13.44574,13.44574,0,0,0-4.19821-2.66026,13.18881,13.18881,0,0,0-4.87547-.90842A13.25873,13.25873,0,0,0,124.4352,42.98635a13.21928,13.21928,0,0,0,18.10893,12.32411,13.01876,13.01876,0,0,0,4.19821-2.63206l5.58166,5.97794a20.87451,20.87451,0,0,1-6.74226,4.30518,21.23115,21.23115,0,0,1-7.91308,1.50953A20.65731,20.65731,0,0,1,122.51008,58.173a20.66579,20.66579,0,0,1-6.288-15.18662,20.62969,20.62969,0,0,1,6.288-15.15858,20.658,20.658,0,0,1,15.15858-6.29807,21.41982,21.41982,0,0,1,7.91308,1.49968,20.88585,20.88585,0,0,1,6.74226,4.31428Z"/><path class="a" d="M165.75356,56.56911l13.928,29.28431L193.6043,56.56818l-4.46916-9.39642-9.4536,20.39856L170.22086,47.1699l-4.4673,9.39921ZM193.6043,29.43182,179.68154.14658l-13.928,29.28524,4.4673,9.399,9.46068-20.40116,9.4536,20.3993Z"/><polygon class="a" points="155.155 43 161.608 56.566 168.057 43 161.608 29.434 155.155 43"/><polygon class="a" points="191.297 43 197.75 56.566 204.198 43 197.75 29.434 191.297 43"/></svg>