<?xml version="1.0" encoding="UTF-8"?><svg id="Layer_1" xmlns="http://www.w3.org/2000/svg" xmlns:xlink="http://www.w3.org/1999/xlink" viewBox="0 0 250 86"><defs><style>.cls-1{fill:url(#Beacon_Colors_Dark);}.cls-1,.cls-2,.cls-3,.cls-4{fill-rule:evenodd;}.cls-2{fill:#fff;}.cls-3{fill:url(#Beacon_Colors_Dark-3);}.cls-4{fill:url(#Beacon_Colors_Dark-2);}</style><linearGradient id="Beacon_Colors_Dark" x1="209.54" y1="4.1" x2="155.89" y2="73.94" gradientUnits="userSpaceOnUse"><stop offset="0" stop-color="#ff0"/><stop offset=".5" stop-color="#f999f1"/><stop offset="1" stop-color="#c2b3ff"/></linearGradient><linearGradient id="Beacon_Colors_Dark-2" x1="198.17" y1="-4.63" x2="144.52" y2="65.21" xlink:href="#Beacon_Colors_Dark"/><linearGradient id="Beacon_Colors_Dark-3" x1="220.9" y1="12.83" x2="167.25" y2="82.67" xlink:href="#Beacon_Colors_Dark"/></defs><g><path class="cls-2" d="M8.22,44.98v10.65h9.27c1.07,0,2-.43,2.78-1.28,.89-.97,1.34-2.35,1.34-4.17s-.45-2.99-1.34-3.93c-.77-.84-1.7-1.27-2.78-1.27H8.22Zm0-6.56h7.74c1.23,0,2.24-.37,3.06-1.1,.7-.64,1.05-1.63,1.05-2.95s-.35-2.27-1.05-2.91c-.81-.74-1.83-1.11-3.06-1.11h-7.74v8.08h0ZM0,22.44H16.24c3.33,0,6.19,1.09,8.59,3.29,2.49,2.28,3.72,4.83,3.71,7.62-.02,1.87-.51,3.52-1.5,4.96-1.11,1.63-2.63,2.58-4.57,2.83,2.12,.57,3.93,1.89,5.42,3.95,1.47,2.02,2.19,4.13,2.13,6.35-.06,3.02-1.2,5.74-3.43,8.14-2.42,2.64-5.35,3.97-8.81,3.97H0V22.44Z"/><polygon class="cls-2" points="64.67 30.66 46.1 30.66 46.1 37.89 62.94 37.89 62.94 46.1 46.1 46.1 46.1 55.34 64.67 55.34 64.67 63.53 37.88 63.53 37.88 22.44 64.67 22.44 64.67 30.66"/><path class="cls-2" d="M72.1,63.53l20.38-42.85,20.37,42.85h-8.99c-5.96-12.55-5.1-9.27-11.39-24.57-.31,.64-.74,1.66-1.31,3.06-5.17,12.54-4.94,10.66-10.09,21.51h-8.99Z"/><polygon class="cls-2" points="210.08 63.53 210.08 21.34 241.74 47.41 241.74 22.44 249.95 22.44 249.95 64.78 218.3 38.71 218.3 63.53 210.08 63.53"/><path class="cls-2" d="M146.72,33.32c-1.21-1.13-2.61-2.02-4.2-2.66-1.55-.61-3.17-.91-4.88-.91-3.65,0-6.76,1.3-9.34,3.88-2.59,2.59-3.89,5.71-3.89,9.36s1.3,6.79,3.89,9.38c2.58,2.58,5.7,3.88,9.34,3.88,1.7,0,3.33-.31,4.88-.94,1.59-.62,2.99-1.5,4.2-2.63l5.58,5.98c-2,1.89-4.25,3.33-6.74,4.31-2.54,1.01-5.17,1.51-7.91,1.51-5.91,0-10.96-2.1-15.16-6.3-4.2-4.19-6.29-9.26-6.29-15.19s2.09-10.97,6.29-15.16c4.2-4.2,9.25-6.3,15.16-6.3,2.75,0,5.38,.5,7.91,1.5,2.5,.99,4.74,2.42,6.74,4.31l-5.58,5.98Z"/></g><g><path class="cls-1" d="M165.73,56.57l13.93,29.28,13.92-29.29-4.47-9.4-9.45,20.4-9.46-20.4-4.47,9.4h0Zm27.85-27.14L179.66,.15l-13.93,29.29,4.47,9.4,9.46-20.4,9.45,20.4,4.47-9.4Z"/><polygon class="cls-4" points="155.13 43 161.58 56.57 168.03 43 161.58 29.43 155.13 43"/><polygon class="cls-3" points="191.27 43 197.73 56.57 204.18 43 197.73 29.43 191.27 43"/></g></svg>