<?xml version="1.0" encoding="UTF-8"?><svg id="Layer_1" xmlns="http://www.w3.org/2000/svg" xmlns:xlink="http://www.w3.org/1999/xlink" viewBox="0 0 434.89 760"><defs><style>.cls-1{fill:url(#Beacon_Colors_Dark);}.cls-1,.cls-2,.cls-3{fill-rule:evenodd;}.cls-2{fill:url(#Beacon_Colors_Dark-3);}.cls-3{fill:url(#Beacon_Colors_Dark-2);}</style><linearGradient id="Beacon_Colors_Dark" x1="482.46" y1="35.09" x2="6.73" y2="654.34" gradientUnits="userSpaceOnUse"><stop offset="0" stop-color="#ff0"/><stop offset=".5" stop-color="#f999f1"/><stop offset="1" stop-color="#c2b3ff"/></linearGradient><linearGradient id="Beacon_Colors_Dark-2" x1="381.68" y1="-42.33" x2="-94.06" y2="576.91" xlink:href="#Beacon_Colors_Dark"/><linearGradient id="Beacon_Colors_Dark-3" x1="583.22" y1="112.5" x2="107.48" y2="731.74" xlink:href="#Beacon_Colors_Dark"/></defs><path class="cls-1" d="M93.98,500.32l123.51,259.68,123.46-259.69-39.63-83.32-83.83,180.88-83.89-180.9-39.61,83.35h0Zm246.96-240.64L217.49,0,93.98,259.69l39.61,83.35,83.89-180.91,83.83,180.89,39.63-83.33Z"/><polygon class="cls-3" points="0 380 57.22 500.3 114.41 380 57.22 259.7 0 380"/><polygon class="cls-2" points="320.49 380 377.71 500.3 434.89 380 377.71 259.7 320.49 380"/></svg>