<?xml version="1.0" encoding="UTF-8"?><svg id="a" xmlns="http://www.w3.org/2000/svg" xmlns:xlink="http://www.w3.org/1999/xlink" viewBox="0 0 250 86"><defs><style>.g{fill:url(#f);}.h{fill:url(#e);}.i,.j,.k,.l{fill-rule:evenodd;}.j{fill:url(#d);}.k{fill:url(#b);}.l{fill:url(#c);}</style><linearGradient id="b" x1="209.54025" y1="4.104233" x2="155.890296" y2="73.937851" gradientUnits="userSpaceOnUse"><stop offset="0" stop-color="#ff0"/><stop offset=".5" stop-color="#d40cc3"/><stop offset="1" stop-color="#1f0099"/></linearGradient><linearGradient id="c" x1="198.174707" y1="-4.62739" x2="144.524753" y2="65.206227" xlink:href="#b"/><linearGradient id="d" x1="220.902401" y1="12.833251" x2="167.252447" y2="82.666869" xlink:href="#b"/><linearGradient id="e" x1="254.46161" y1="38.615266" x2="200.811651" y2="108.44889" xlink:href="#b"/><linearGradient id="f" x1="178.776587" y1="36.829118" x2="152.520768" y2="71.005081" xlink:href="#b"/></defs><path class="i" d="M8.222077,44.98203v10.646714h9.267733c1.073511,0,2.001992-.425245,2.775417-1.275734.890414-.968406,1.335528-2.35203,1.335528-4.169997,0-1.827995-.445114-2.985811-1.335528-3.93342-.773425-.842319-1.702835-1.267563-2.775417-1.267563h-9.267733ZM8.222077,38.41915h7.738895c1.228567,0,2.24414-.367122,3.056562-1.101551.696361-.639352,1.04547-1.625771,1.04547-2.950555,0-1.296506-.349109-2.274012-1.04547-2.91225-.812421-.744457-1.827995-1.11179-3.056562-1.11179h-7.738895v8.076145h0ZM0,22.440166h16.241188c3.327678,0,6.191116,1.091709,8.590313,3.287754,2.487026,2.283136,3.724692,4.827362,3.705751,7.622835-.020055,1.86678-.513265,3.521545-1.499679,4.962338-1.112692,1.634896-2.631317,2.583247-4.566273,2.825395,2.118981.570273,3.92692,1.885932,5.416758,3.946047,1.470715,2.022047,2.186017,4.131001,2.129008,6.346147-.058123,3.018519-1.199598,5.736742-3.43482,8.13501-2.418138,2.641345-5.348612,3.967031-8.812405,3.967031H0V22.440166Z"/><polygon class="i" points="64.66633 30.661314 46.103939 30.661314 46.103939 37.886944 62.936383 37.886944 62.936383 46.101036 46.103939 46.101036 46.103939 55.339589 64.66633 55.339589 64.66633 63.532722 37.880934 63.532722 37.880934 22.440166 64.66633 22.440166 64.66633 30.661314"/><path class="i" d="M72.101426,63.532722l20.382215-42.853515,20.373116,42.853515h-8.986403c-5.959924-12.547316-5.099401-9.274975-11.386714-24.571339-.308256.638424-.744457,1.663839-1.305631,3.056562-5.170157,12.541002-4.935251,10.663055-10.089061,21.514777h-8.987523Z"/><polygon class="i" points="210.07993 63.532722 210.07993 21.335644 241.740784 47.406642 241.740784 22.440166 249.953772 22.440166 249.953772 64.779487 218.302007 38.710322 218.302007 63.532722 210.07993 63.532722"/><path class="i" d="M146.719227,33.321574c-1.209626-1.131422-2.611448-2.021093-4.198215-2.66026-1.547787-.60927-3.17355-.908426-4.875465-.908426-3.646705,0-6.762318,1.295603-9.344611,3.877897-2.593249,2.593224-3.888853,5.707934-3.888853,9.355567,0,3.665831,1.295603,6.790544,3.888853,9.382864,2.582293,2.582268,5.697906,3.878825,9.344611,3.878825,1.701914,0,3.327678-.309184,4.875465-.937581,1.586768-.62004,2.988589-1.499684,4.198215-2.63206l5.58166,5.977936c-2.002913,1.88686-4.247061,3.327678-6.742263,4.305184-2.535312,1.006288-5.165693,1.509526-7.913078,1.509526-5.9109,0-10.959426-2.098926-15.158577-6.298077-4.198966-4.188963-6.288049-9.257519-6.288049-15.186618,0-5.911854,2.089084-10.970382,6.288049-15.158577,4.199151-4.198966,9.247677-6.298077,15.158577-6.298077,2.747385,0,5.377766.503237,7.913078,1.499684,2.495202.986605,4.73935,2.417395,6.742263,4.314283l-5.58166,5.977911Z"/><path class="k" d="M165.730446,56.56911l13.927976,29.284312,13.92276-29.28524-4.469154-9.39642-9.453606,20.398557-9.46068-20.400414-4.467297,9.399206h0ZM193.581183,29.431819L179.658423.146578l-13.927976,29.28524,4.467297,9.39902,9.46068-20.401156,9.453606,20.399299,4.469154-9.397163Z"/><polygon class="l" points="155.13165 42.999907 161.584776 56.566324 168.033452 42.999907 161.584776 29.433676 155.13165 42.999907"/><polygon class="j" points="191.273534 42.999907 197.726677 56.566324 204.175344 42.999907 197.726677 29.433676 191.273534 42.999907"/><path d="M8.995372,78.688971H1.606829v5.83671H0v-12.929712h1.606829v5.596642h7.388544v-5.596642h1.607307v12.929712h-1.607307v-5.83671Z"/><path d="M24.651912,73.36922c1.151561,1.317504,1.721124,2.893727,1.70869,4.728668,0,.861758-.138685,1.686692-.415576,2.474803s-.677164,1.499229-1.200818,2.133352c-.523176.634602-1.209904,1.139127-2.059228,1.51501-.849802.375405-1.810552.56335-2.881771.56335s-2.034838-.187945-2.890857-.56335c-.855541-.375883-1.545138-.880408-2.068792-1.51501-.523176-.634124-.923448-1.341893-1.200339-2.123788-.277369-.782373-.415576-1.610176-.415576-2.484368,0-1.9215.60017-3.522112,1.800987-4.802792,1.200339-1.280681,2.798082-1.921021,4.793228-1.921021,2.068792.012434,3.678969.677164,4.830051,1.995146ZM24.254987,75.576218c-.344799-.769461-.901928-1.413149-1.671867-1.930108-.769461-.517437-1.69004-.781894-2.761259-.794328-1.576223,0-2.80143.501656-3.676099,1.505446-.874191,1.00379-1.311287,2.250517-1.311287,3.740659,0,1.427974.430879,2.647442,1.293115,3.65697.861758,1.010007,2.093182,1.514532,3.694272,1.514532,1.588178,0,2.807647-.510742,3.65697-1.532704.849802-1.022441,1.274942-2.235214,1.274942-3.638798.011956-.911493-.153988-1.75173-.498786-2.521669Z"/><path d="M35.598433,73.193712c-.665208-.277369-1.379195-.421793-2.142917-.434226-.923448,0-1.720646.187942-2.392071.563347-.670947.375405-1.006659.926796-1.006659,1.653217,0,.332365.086558.62169.258719.867975.172638.246285.437096.44953.794328.609734s.717334.286456,1.080784.378753c.362971.092297.821587.181725,1.375847.267805.64034.098514,1.157778.190811,1.551833.276891s.846455.224765,1.357675.415576c.510742.190811.908145.409359,1.191253.655644s.526523.581997.729768,1.006659c.202767.42514.304628.920579.304628,1.487273,0,.689597-.156857,1.293115-.47105,1.810074s-.732637.917231-1.256292,1.200818c-.523176.283108-1.080305.49257-1.671389.627907s-1.213251.203248-1.865547.203248c-1.231424,0-2.333728-.243418-3.306433-.729771s-1.693387-1.24051-2.161089-2.262951l1.329938-.775678c.394056.726899.975575,1.286898,1.745514,1.680953.769461.394056,1.572875.591083,2.410243.591083.431357,0,.846933-.036823,1.247205-.110948.399794-.073646.788111-.197028,1.163516-.369188.375405-.172638.677164-.421793.905276-.747941.227634-.326626.341451-.717334.341451-1.173081,0-.381622-.095166-.714465-.286456-.997573-.190811-.283108-.476788-.510742-.858888-.683381-.381622-.172638-.766591-.307976-1.15443-.406489s-.865105-.190811-1.431321-.276891c-.591083-.08608-1.087001-.175508-1.486795-.267805-.400273-.092297-.834499-.228112-1.302201-.406489-.46818-.178377-.843585-.387839-1.127171-.627907-.283108-.240068-.520306-.55426-.711117-.942099s-.285977-.834499-.285977-1.339024c-.012434-.64034.13199-1.203687.433748-1.690518.301759-.486353.702031-.864627,1.200818-1.135779s1.028179-.47105,1.588656-.60017c.559999-.129598,1.135779-.194155,1.726863-.194155,1.108521,0,2.068792.166418,2.881771.498783.812501.332365,1.483926.948316,2.013318,1.847375l-1.21899.757027c-.332843-.541827-.83163-.951185-1.496359-1.228076Z"/><path d="M39.8484,73.036377v-1.440407h10.417607v1.440407h-4.414475v11.489305h-1.588656v-11.489305h-4.414475Z"/><path d="M52.298933,71.595969h1.607307v12.929712h-1.607307v-12.929712Z"/><path d="M58.468965,71.595969l7.924153,9.90017v-9.90017h1.588656v12.929712h-1.108042l-7.942804-9.863825v9.863825h-1.588656v-12.929712h1.126693Z"/><path d="M81.209419,74.348142c-.49257-.480614-1.083653-.85315-1.77325-1.117607-.689597-.264935-1.372978-.397403-2.050142-.397403-1.60109,0-2.856904.51409-3.768396,1.542747-.911015,1.028179-1.366761,2.293079-1.366761,3.795655,0,1.416018.44666,2.616836,1.339502,3.601975.892364.985139,2.170175,1.477709,3.832478,1.477709,1.342372,0,2.518322-.437096,3.528328-1.311287v-3.066365h-4.027115v-1.422235h5.486173v5.116507c-1.366761,1.465275-3.035281,2.197912-5.005559,2.197912-1.108521,0-2.102746-.178377-2.983154-.53561s-1.588656-.843585-2.124266-1.459058c-.53561-.615951-.942099-1.314635-1.21899-2.096529-.277369-.781894-.416054-1.616393-.416054-2.503019-.011956-1.982712.591083-3.617278,1.810552-4.904176,1.21899-1.286898,2.856904-1.930108,4.913262-1.930108,1.859331,0,3.44177.646557,4.747319,1.939194l-.923927,1.071697Z"/><path d="M95.545585,71.595969l5.799887,12.929712h-1.735949l-1.274464-2.84447h-7.388544l-1.256292,2.84447h-1.7546l5.799887-12.929712h1.810074ZM94.640309,73.220971l-3.065887,6.982532h6.132252l-3.066365-6.982532Z"/><path d="M104.96801,84.525681h-1.588656v-12.929712h5.874012c.812501,0,1.539399.159726,2.17974.480136.64034.319931,1.126693.738854,1.459058,1.255813.332365.517437.57578,1.087001.729768,1.70869s.153988,1.243858,0,1.865547c-.153988.622168-.397403,1.188384-.729768,1.699604-.332365.510742-.818718.929665-1.459058,1.255813-.64034.326626-1.367239.4897-2.17974.4897h-4.285355v4.174408ZM110.832458,78.430253c.44953-.283586.772808-.64034.969836-1.071697.197028-.430879.295542-.892364.295542-1.384933s-.098514-.954533-.295542-1.385412-.520306-.788111-.969836-1.071697c-.44953-.283108-.975575-.424662-1.579092-.424662h-4.285355v5.763064h4.285355c.603517,0,1.129562-.141554,1.579092-.424662Z"/><path d="M116.015437,71.595969h1.607307v12.929712h-1.607307v-12.929712Z"/><polygon class="h" points="197.283386 77.978621 196.567017 79.485579 250 79.485579 250 77.978621 197.283386 77.978621"/><polygon class="g" points="130.425171 79.485596 162.743713 79.485596 162.027283 77.978638 130.425171 77.978638 130.425171 79.485596"/></svg>