<svg xmlns="http://www.w3.org/2000/svg" viewBox="0 0 416.34 95.11"><defs><style>.cls-1{fill:#fff;}</style></defs><title>Asset 3</title><g id="Layer_2" data-name="Layer 2"><g id="Layer_1-2" data-name="Layer 1"><path class="cls-1" d="M88.07,0h15.25q10.62,0,15.35,3.09c3.15,2.07,4.73,5.32,4.73,9.78a11.91,11.91,0,0,1-2.32,7.49,10.43,10.43,0,0,1-6.68,3.76v.35q5.41,1,8,4a12.19,12.19,0,0,1,2.55,8.14q0,6.93-4.83,10.85T106.63,51.4H88.07Zm8.4,21.23h8.08c3.52,0,6.09-.55,7.7-1.67s2.43-3,2.43-5.67a5.68,5.68,0,0,0-2.62-5.24Q109.44,7,103.75,7H96.47Zm0,6.82V44.33h8.93c3.51,0,6.17-.67,8-2s2.69-3.47,2.69-6.38A6.77,6.77,0,0,0,113.31,30q-2.75-1.93-8.33-1.94Z"/><path class="cls-1" d="M151.7,52.1q-9.07,0-14.19-5.29T132.4,32.24q0-9.53,4.74-15t13.05-5.45q7.69,0,12.16,4.68c3,3.12,4.47,7.4,4.47,12.87v4.46H140.91q.17,5.66,3.05,8.7c1.93,2,4.63,3,8.13,3a29.56,29.56,0,0,0,6.41-.65,33.14,33.14,0,0,0,6.38-2.16v6.71a24.54,24.54,0,0,1-6.11,2A37.45,37.45,0,0,1,151.7,52.1Zm-1.51-34a8.27,8.27,0,0,0-6.31,2.5c-1.59,1.66-2.53,4.09-2.83,7.27H158.7c0-3.21-.83-5.64-2.32-7.29A8,8,0,0,0,150.19,18.07Z"/><path class="cls-1" d="M200.53,51.4,198.88,46h-.28a16,16,0,0,1-5.66,4.84,18,18,0,0,1-7.32,1.28q-5.73,0-8.94-3.09t-3.22-8.76q0-6,4.47-9.07t13.6-3.34l6.72-.21V25.56c0-2.49-.58-4.34-1.74-5.57s-3-1.85-5.4-1.85a18.55,18.55,0,0,0-5.73.88,44.38,44.38,0,0,0-5.27,2.07l-2.68-5.9a29.09,29.09,0,0,1,6.93-2.52,32.09,32.09,0,0,1,7.1-.86q7.42,0,11.2,3.24t3.78,10.16V51.4Zm-12.3-5.63a10.21,10.21,0,0,0,7.22-2.51,9.12,9.12,0,0,0,2.73-7V32.84l-5,.21q-5.84.21-8.49,2A5.91,5.91,0,0,0,182,40.32a5.17,5.17,0,0,0,1.55,4A6.63,6.63,0,0,0,188.23,45.77Z"/><path class="cls-1" d="M233.65,52.1q-8.82,0-13.41-5.15t-4.59-14.78q0-9.81,4.8-15.08t13.87-5.28a25.88,25.88,0,0,1,11.07,2.29l-2.49,6.64a25.07,25.07,0,0,0-8.65-2q-10.09,0-10.09,13.4,0,6.54,2.51,9.82A8.69,8.69,0,0,0,234,45.21a21.15,21.15,0,0,0,10.44-2.74v7.21a16.78,16.78,0,0,1-4.73,1.86A28.75,28.75,0,0,1,233.65,52.1Z"/><path class="cls-1" d="M288.11,31.89q0,9.53-4.89,14.87T269.61,52.1A18.65,18.65,0,0,1,260,49.64a16.24,16.24,0,0,1-6.43-7.07,24,24,0,0,1-2.25-10.68q0-9.47,4.85-14.77t13.67-5.31q8.44,0,13.36,5.43T288.11,31.89Zm-28.3,0q0,13.45,9.94,13.46t9.85-13.46q0-13.33-9.92-13.33c-3.46,0-6,1.15-7.54,3.45S259.81,27.6,259.81,31.89Z"/><path class="cls-1" d="M331.81,51.4h-8.3V27.49c0-3-.61-5.24-1.81-6.71s-3.13-2.22-5.75-2.22c-3.49,0-6.05,1-7.66,3.1s-2.43,5.52-2.43,10.37V51.4H297.6V12.52h6.47l1.16,5.09h.42a11.49,11.49,0,0,1,5-4.29,16.86,16.86,0,0,1,7.17-1.51q14,0,14,14.24Z"/><path class="cls-1" d="M12.09,78.29H7.35V94.6H3.2V78.29H0V76.35l3.2-1.26V73.82q0-3.45,1.62-5.11a6.62,6.62,0,0,1,4.94-1.66,13.13,13.13,0,0,1,4.28.72L13,70.9A9.81,9.81,0,0,0,10,70.41a2.38,2.38,0,0,0-2,.87,4.37,4.37,0,0,0-.64,2.61v1.27h4.74Z"/><path class="cls-1" d="M32.64,84.84q0,4.77-2.44,7.44A8.76,8.76,0,0,1,23.4,95a9.32,9.32,0,0,1-4.82-1.23,8.18,8.18,0,0,1-3.22-3.53,12.07,12.07,0,0,1-1.12-5.35,10.57,10.57,0,0,1,2.42-7.38,8.8,8.8,0,0,1,6.84-2.65,8.57,8.57,0,0,1,6.68,2.71A10.49,10.49,0,0,1,32.64,84.84Zm-14.15,0q0,6.73,5,6.74t4.92-6.74q0-6.66-5-6.66a4.25,4.25,0,0,0-3.77,1.72A8.78,8.78,0,0,0,18.49,84.84Z"/><path class="cls-1" d="M47.25,74.81a9.85,9.85,0,0,1,2.06.17l-.41,3.85a7.78,7.78,0,0,0-1.83-.21,5.27,5.27,0,0,0-4,1.62,5.83,5.83,0,0,0-1.54,4.2V94.6H37.39V75.16h3.23l.55,3.43h.21a7.64,7.64,0,0,1,2.52-2.76A6,6,0,0,1,47.25,74.81Z"/><path class="cls-1" d="M78.64,94.6l-2.56-7.14H66.25L63.74,94.6H59.31l9.61-25.81h4.57L83.11,94.6ZM75,83.84l-2.41-7c-.17-.47-.42-1.21-.73-2.22s-.52-1.75-.64-2.21a38.09,38.09,0,0,1-1.39,4.72l-2.32,6.7Z"/><path class="cls-1" d="M95.92,74.81A9.79,9.79,0,0,1,98,75l-.4,3.85a7.9,7.9,0,0,0-1.83-.21,5.3,5.3,0,0,0-4,1.62,5.87,5.87,0,0,0-1.54,4.2V94.6H86.06V75.16H89.3l.54,3.43h.21a7.75,7.75,0,0,1,2.53-2.76A6,6,0,0,1,95.92,74.81Z"/><path class="cls-1" d="M105.57,84.33l2.34-2.91,5.87-6.26h4.77l-7.83,8.35L119,94.6h-4.85L108,86.07l-2.27,1.87V94.6h-4.1V67.25h4.1V80.59l-.21,3.74Z"/><path class="cls-1" d="M121.55,77.39a2.32,2.32,0,0,1,2.6-2.65,2.55,2.55,0,0,1,2,.7,2.74,2.74,0,0,1,.65,2,2.81,2.81,0,0,1-.67,2,2.55,2.55,0,0,1-1.95.73,2.51,2.51,0,0,1-1.93-.72A2.85,2.85,0,0,1,121.55,77.39Zm0,15a2.75,2.75,0,0,1,.67-2,2.61,2.61,0,0,1,1.93-.68,2.55,2.55,0,0,1,2,.71,2.73,2.73,0,0,1,.66,1.94,2.81,2.81,0,0,1-.67,2,3,3,0,0,1-3.88,0A2.83,2.83,0,0,1,121.55,92.4Z"/><path class="cls-1" d="M156.67,87.62A6.46,6.46,0,0,1,154.2,93a10.82,10.82,0,0,1-6.84,2,16.35,16.35,0,0,1-7.14-1.35v-4A19,19,0,0,0,144,90.93a16.07,16.07,0,0,0,3.68.47,5.87,5.87,0,0,0,3.68-1,3.09,3.09,0,0,0,1.19-2.55,3.21,3.21,0,0,0-1.09-2.44,16.36,16.36,0,0,0-4.5-2.37,11.87,11.87,0,0,1-5-3.26,6.88,6.88,0,0,1-1.44-4.39,6.15,6.15,0,0,1,2.28-5.06,9.5,9.5,0,0,1,6.14-1.85,18,18,0,0,1,7.35,1.62L155,73.58a15.88,15.88,0,0,0-6.12-1.45,4.69,4.69,0,0,0-3.09.89,2.93,2.93,0,0,0-1.05,2.35,3.28,3.28,0,0,0,.42,1.71,4.19,4.19,0,0,0,1.39,1.35A23.08,23.08,0,0,0,150,80.1a18.69,18.69,0,0,1,4.14,2.19,6.46,6.46,0,0,1,1.94,2.31A6.9,6.9,0,0,1,156.67,87.62Z"/><path class="cls-1" d="M174.92,94.6l-.58-2.55h-.21a6,6,0,0,1-2.45,2.13,8.27,8.27,0,0,1-3.63.77,7.14,7.14,0,0,1-5.28-1.76Q161,91.44,161,87.87V75.16h4.17v12a5.18,5.18,0,0,0,.91,3.34A3.49,3.49,0,0,0,169,91.61a4.57,4.57,0,0,0,3.82-1.55c.82-1,1.22-2.78,1.22-5.22V75.16h4.15V94.6Z"/><path class="cls-1" d="M193.92,74.81A9.85,9.85,0,0,1,196,75l-.41,3.85a7.75,7.75,0,0,0-1.82-.21,5.27,5.27,0,0,0-4,1.62,5.83,5.83,0,0,0-1.54,4.2V94.6h-4.13V75.16h3.23l.55,3.43h.21a7.82,7.82,0,0,1,2.52-2.76A6,6,0,0,1,193.92,74.81Z"/><path class="cls-1" d="M204,94.6l-7.38-19.44H201l3.95,11.3a22.25,22.25,0,0,1,1.23,4.61h.14a31.18,31.18,0,0,1,1.24-4.61l3.95-11.3h4.4L208.48,94.6Z"/><path class="cls-1" d="M218.6,70a2.28,2.28,0,0,1,.61-1.71,2.35,2.35,0,0,1,1.73-.6,2.09,2.09,0,0,1,2.3,2.31,2.27,2.27,0,0,1-.6,1.66,2.32,2.32,0,0,1-1.7.6,2.35,2.35,0,0,1-1.73-.6A2.24,2.24,0,0,1,218.6,70ZM223,94.6h-4.13V75.16H223Z"/><path class="cls-1" d="M233.31,94.6l-7.38-19.44h4.36l4,11.3a22.25,22.25,0,0,1,1.23,4.61h.14a29.52,29.52,0,0,1,1.23-4.61l4-11.3h4.4L237.78,94.6Z"/><path class="cls-1" d="M260.31,94.6l-.82-2.71h-.14a8,8,0,0,1-2.83,2.42,8.93,8.93,0,0,1-3.66.64,6.14,6.14,0,0,1-4.47-1.55A5.79,5.79,0,0,1,246.78,89,5.14,5.14,0,0,1,249,84.49c1.49-1,3.76-1.57,6.8-1.67l3.36-.1v-1a4,4,0,0,0-.87-2.79,3.57,3.57,0,0,0-2.7-.92,9.4,9.4,0,0,0-2.86.44,21,21,0,0,0-2.64,1l-1.33-3a14.07,14.07,0,0,1,3.46-1.25,15.76,15.76,0,0,1,3.55-.43,8.46,8.46,0,0,1,5.6,1.61q1.89,1.62,1.89,5.08V94.6Zm-6.15-2.81a5.09,5.09,0,0,0,3.61-1.26A4.55,4.55,0,0,0,259.14,87V85.32l-2.5.1a8.51,8.51,0,0,0-4.24,1,3,3,0,0,0-1.33,2.66,2.6,2.6,0,0,0,.77,2A3.31,3.31,0,0,0,254.16,91.79Z"/><path class="cls-1" d="M273.16,94.6H269V67.25h4.13Z"/><path class="cls-1" d="M303.4,94.6H288.86V68.9H303.4v3.55H293.06v7h9.69V83h-9.69V91H303.4Z"/><path class="cls-1" d="M312.94,94.6l-7.38-19.44h4.36l4,11.3a22.25,22.25,0,0,1,1.23,4.61h.14a29.52,29.52,0,0,1,1.23-4.61l3.95-11.3h4.4L317.41,94.6Z"/><path class="cls-1" d="M345,84.84q0,4.77-2.44,7.44a8.76,8.76,0,0,1-6.8,2.67A9.34,9.34,0,0,1,331,93.72a8.18,8.18,0,0,1-3.22-3.53,12.07,12.07,0,0,1-1.12-5.35,10.53,10.53,0,0,1,2.43-7.38,8.77,8.77,0,0,1,6.83-2.65,8.55,8.55,0,0,1,6.68,2.71A10.49,10.49,0,0,1,345,84.84Zm-14.15,0q0,6.73,5,6.74t4.92-6.74q0-6.66-5-6.66A4.25,4.25,0,0,0,332,79.9,8.78,8.78,0,0,0,330.87,84.84Z"/><path class="cls-1" d="M353.9,94.6h-4.13V67.25h4.13Z"/><path class="cls-1" d="M364.24,94.6l-7.39-19.44h4.36l4,11.3a22.25,22.25,0,0,1,1.23,4.61h.14a32.07,32.07,0,0,1,1.23-4.61l4-11.3h4.39L368.7,94.6Z"/><path class="cls-1" d="M387.56,95a9.42,9.42,0,0,1-7.09-2.64A10.09,10.09,0,0,1,377.91,85a11,11,0,0,1,2.38-7.49,8.17,8.17,0,0,1,6.52-2.72,8,8,0,0,1,6.08,2.33,8.94,8.94,0,0,1,2.23,6.44v2.23H382.17a6.33,6.33,0,0,0,1.53,4.35,5.33,5.33,0,0,0,4.06,1.52,15.43,15.43,0,0,0,3.2-.32,16.53,16.53,0,0,0,3.19-1.09v3.36a12.58,12.58,0,0,1-3,1A18.78,18.78,0,0,1,387.56,95Zm-.75-17a4.15,4.15,0,0,0-3.16,1.24,6,6,0,0,0-1.41,3.64h8.82a5.39,5.39,0,0,0-1.16-3.65A4,4,0,0,0,386.81,77.94Z"/><path class="cls-1" d="M406.37,95a6.78,6.78,0,0,1-5.68-2.64q-2-2.62-2-7.4c0-3.18.69-5.67,2.07-7.44a6.82,6.82,0,0,1,5.72-2.66,6.7,6.7,0,0,1,5.84,2.83h.21a24.79,24.79,0,0,1-.3-3.31V67.25h4.15V94.6H413.1l-.72-2.55h-.19A6.6,6.6,0,0,1,406.37,95Zm1.11-3.34a4.52,4.52,0,0,0,3.71-1.43,7.57,7.57,0,0,0,1.19-4.65V85q0-3.67-1.19-5.22a4.45,4.45,0,0,0-3.75-1.55A3.78,3.78,0,0,0,404.09,80a9,9,0,0,0-1.18,5,8.83,8.83,0,0,0,1.14,4.93A3.85,3.85,0,0,0,407.48,91.61Z"/></g></g></svg>