<?xml version="1.0" encoding="UTF-8"?><svg id="a" xmlns="http://www.w3.org/2000/svg" viewBox="0 0 94.3898 116.4723"><defs><style>.b{fill:#fff;}.c{fill:#6294f7;}</style></defs><path class="b" d="M78.9951,13.6133c-9.2498-.4965-17.6707-1.6845-26.0066-1.2476-19.2273,1.0077-32.9216,12.8818-36.9565,31.7789-3.544,16.598-2.1788,32.6557,7.6329,47.4728-2.4812,3.4825-4.9577,6.9586-8.2158,11.5317-3.2637-5.0063-6.765-9.0479-8.7982-13.7281C-1.7314,70.127-2.4202,50.3741,5.8973,30.9694,14.0817,11.875,30.0416,2.957,49.9254,.6532c11.8547-1.3735,23.7077-.732,35.8144,3.377-2.5551,3.6303-4.8155,6.8419-6.7448,9.5831Z"/><path class="c" d="M94.3898,56.7002v54.2034c-21.5844,5.7834-42.9674,8.6984-65.6317,.4951,2.4481-3.6288,4.418-6.5489,6.6347-9.8346,15.5207,5.9407,31.062,5.466,47.0358,1.3571v-35.6062h-22.6403c3.098-4.4115,5.2811-7.5203,7.4542-10.6148h27.1473Z"/></svg>