<?xml version="1.0" encoding="UTF-8"?><svg id="a" xmlns="http://www.w3.org/2000/svg" viewBox="0 0 247.8055 308.3031"><defs><style>.d{fill:#231f20;}.e{fill:#5295ff;}</style></defs><path id="b" class="e" d="M173.4515,146.5372l-22.4151,31.3662h58.6845v90.0711c-8.9623,4.4812-26.4348,8.0685-51.9775,8.0685-25.0603,0-47.0331-5.7675-64.9605-16.6247l-21.5779,30.1954c24.0307,13.0057,51.9658,18.6895,83.8428,18.6895,40.7786,0,75.2811-10.3034,92.7576-16.5771V146.5372h-74.354Z"/><path id="c" class="d" d="M163.5686,0C62.2942,0,.4481,65.8826,0,155.9541c0,47.0523,16.1396,87.3805,42.1304,112.475,.5449,.5201,1.1086,.9949,1.659,1.5038l23.4283-32.7615c-16.6467-20.5049-25.9943-48.5871-25.9943-83.0196,0-75.7317,47.959-121.4382,121.4501-121.4382,19.045,0,34.0576,2.2836,46.5821,5.7407h.0122l20.2417-28.3097C214.7519,4.9464,191.7075,0,163.5686,0Z"/></svg>