<svg xmlns="http://www.w3.org/2000/svg" width="480" height="130" viewBox="0 0 480 130">
  <metadata><?xpacket begin="﻿" id="W5M0MpCehiHzreSzNTczkc9d"?>
<x:xmpmeta xmlns:x="adobe:ns:meta/" x:xmptk="Adobe XMP Core 5.6-c138 79.159824, 2016/09/14-01:09:01        ">
   <rdf:RDF xmlns:rdf="http://www.w3.org/1999/02/22-rdf-syntax-ns#">
      <rdf:Description rdf:about=""/>
   </rdf:RDF>
</x:xmpmeta>
                                                                                                    
                                                                                                    
                                                                                                    
                                                                                                    
                                                                                                    
                                                                                                    
                                                                                                    
                                                                                                    
                                                                                                    
                                                                                                    
                                                                                                    
                                                                                                    
                                                                                                    
                                                                                                    
                                                                                                    
                                                                                                    
                                                                                                    
                                                                                                    
                                                                                                    
                                                                                                    
                           
<?xpacket end="w"?></metadata>
<defs>
    <style>
      .cls-1 {
        fill: #fff;
        fill-rule: evenodd;
      }
    </style>
  </defs>
  <path class="cls-1" d="M92.45,55.641H52.114a1.887,1.887,0,0,0-1.885,1.889V77.279a1.889,1.889,0,0,0,1.885,1.891H67.849v24.537s-3.533,1.207-13.3,1.207c-11.525,0-27.623-4.217-27.623-39.669s16.763-40.125,32.5-40.125c13.623,0,19.492,2.4,23.227,3.56a1.9,1.9,0,0,0,2.259-1.853l4.5-19.082a1.761,1.761,0,0,0-.72-1.474C87.174,5.186,77.922,0,54.548,0,27.62,0,0,11.474,0,66.626S31.623,130,58.272,130c22.065,0,35.451-9.443,35.451-9.443a1.622,1.622,0,0,0,.611-1.431V57.53A1.886,1.886,0,0,0,92.45,55.641ZM300.322,6.609a1.88,1.88,0,0,0-1.872-1.9H275.739a1.889,1.889,0,0,0-1.881,1.9s0.006,43.954.006,43.954h-35.4V6.609a1.883,1.883,0,0,0-1.874-1.9H213.878A1.888,1.888,0,0,0,212,6.609V125.626a1.893,1.893,0,0,0,1.876,1.9h22.711a1.888,1.888,0,0,0,1.874-1.9V74.718h35.4s-0.062,50.9-.062,50.908a1.893,1.893,0,0,0,1.881,1.9h22.765a1.888,1.888,0,0,0,1.874-1.9V6.609ZM135.307,22.227a14.645,14.645,0,1,0-14.646,14.818A14.719,14.719,0,0,0,135.307,22.227Zm-1.624,78.293V45.581a1.89,1.89,0,0,0-1.879-1.9h-22.64A2.167,2.167,0,0,0,107.2,45.8v78.71c0,2.313,1.44,3,3.3,3h20.4c2.238,0,2.787-1.1,2.787-3.038V100.52ZM386.636,43.864H364.1a1.892,1.892,0,0,0-1.875,1.9v58.358a25.436,25.436,0,0,1-13.852,4.195c-8.126,0-10.283-3.693-10.283-11.661V45.768a1.89,1.89,0,0,0-1.874-1.9H313.341a1.894,1.894,0,0,0-1.878,1.9v54.745c0,23.669,13.172,29.46,31.292,29.46,14.866,0,26.852-8.225,26.852-8.225a47.784,47.784,0,0,0,.829,4.848,1.984,1.984,0,0,0,1.658,1.031l14.551-.065a1.894,1.894,0,0,0,1.878-1.9l-0.007-79.893A1.893,1.893,0,0,0,386.636,43.864Zm61.6-2.673a42.33,42.33,0,0,0-21.506,5.719V6.609a1.885,1.885,0,0,0-1.874-1.9H402.077a1.887,1.887,0,0,0-1.877,1.9V125.626a1.893,1.893,0,0,0,1.88,1.9h15.8a1.883,1.883,0,0,0,1.648-1.011c0.392-.639.96-5.488,0.96-5.488s9.312,8.839,26.943,8.839c20.7,0,32.567-10.514,32.567-47.2S461.043,41.191,448.233,41.191Zm-8.889,67.057a27,27,0,0,1-13.119-3.791V66.767a30.012,30.012,0,0,1,11.648-3.785c8.116-.728,15.937,1.727,15.937,21.116C453.81,104.543,450.28,108.578,439.344,108.248ZM198.956,43.675H181.92S181.9,21.14,181.9,21.135a1.186,1.186,0,0,0-1.425-1.28H157.255a1.174,1.174,0,0,0-1.387,1.266V44.414s-11.635,2.813-12.422,3.04a1.89,1.89,0,0,0-1.359,1.814V63.9a1.887,1.887,0,0,0,1.878,1.9h11.9v35.212c0,26.154,18.319,28.723,30.68,28.723a51.737,51.737,0,0,0,13.52-2.229,1.759,1.759,0,0,0,1.067-1.706l0.018-16.1a1.918,1.918,0,0,0-1.882-1.9c-0.993,0-3.533.405-6.148,0.405-8.368,0-11.2-3.9-11.2-8.94s0-33.462,0-33.462h17.037a1.889,1.889,0,0,0,1.88-1.9V45.571A1.886,1.886,0,0,0,198.956,43.675Z"/>
</svg>
