<svg xmlns="http://www.w3.org/2000/svg" width="256" height="40" viewBox="0 0 256 40">
  <metadata><?xpacket begin="﻿" id="W5M0MpCehiHzreSzNTczkc9d"?>
<x:xmpmeta xmlns:x="adobe:ns:meta/" x:xmptk="Adobe XMP Core 5.6-c138 79.159824, 2016/09/14-01:09:01        ">
   <rdf:RDF xmlns:rdf="http://www.w3.org/1999/02/22-rdf-syntax-ns#">
      <rdf:Description rdf:about=""/>
   </rdf:RDF>
</x:xmpmeta>
                                                                                                    
                                                                                                    
                                                                                                    
                                                                                                    
                                                                                                    
                                                                                                    
                                                                                                    
                                                                                                    
                                                                                                    
                                                                                                    
                                                                                                    
                                                                                                    
                                                                                                    
                                                                                                    
                                                                                                    
                                                                                                    
                                                                                                    
                                                                                                    
                                                                                                    
                                                                                                    
                           
<?xpacket end="w"?></metadata>
<defs>
    <style>
      .cls-1 {
        fill: #fff;
      }

      .cls-1, .cls-2 {
        fill-rule: evenodd;
      }

      .cls-2 {
        fill: #713a9a;
      }
    </style>
  </defs>
  <path id="Beacon" class="cls-1" d="M52.53,13.34A3.931,3.931,0,0,0,55.2,9.5,4,4,0,0,0,53.684,6.19a6.523,6.523,0,0,0-4.16-1.2H42V22.274h7.767a6.7,6.7,0,0,0,4.316-1.25,4.2,4.2,0,0,0,1.551-3.46,4.417,4.417,0,0,0-.806-2.695,4.225,4.225,0,0,0-2.3-1.53h0Zm-7.5-5.924h3.992a3.986,3.986,0,0,1,2.429.607,2.149,2.149,0,0,1,.794,1.821q0,2.428-3.222,2.428H45.027V7.416Zm4.4,12.43h-4.4V14.724h4.4a3.908,3.908,0,0,1,2.465.631,2.38,2.38,0,0,1,.782,1.967,2.277,2.277,0,0,1-.782,1.918,4.024,4.024,0,0,1-2.465.607h0ZM69.963,15.84a6.546,6.546,0,0,0-1.455-4.5A5.021,5.021,0,0,0,64.552,9.7a5.79,5.79,0,0,0-3.054.813,5.534,5.534,0,0,0-2.092,2.27,7.2,7.2,0,0,0-.745,3.326,6.281,6.281,0,0,0,1.707,4.662,6.352,6.352,0,0,0,4.689,1.7,7.986,7.986,0,0,0,2.561-.425,6.737,6.737,0,0,0,2.128-1.129l-0.866-2.088a5.957,5.957,0,0,1-3.7,1.311,3.41,3.41,0,0,1-2.609-.935,4.451,4.451,0,0,1-.974-2.9h8.368V15.84Zm-5.338-3.957a2.513,2.513,0,0,1,1.888.7,3.414,3.414,0,0,1,.83,2.088H61.691a3.522,3.522,0,0,1,.974-2.076,2.737,2.737,0,0,1,1.96-.716h0ZM82.13,10.014v1.845a3.923,3.923,0,0,0-1.587-1.59,4.8,4.8,0,0,0-2.356-.57,4.932,4.932,0,0,0-2.789.813,5.406,5.406,0,0,0-1.912,2.282,7.868,7.868,0,0,0-.685,3.362,7.738,7.738,0,0,0,.673,3.326,5.005,5.005,0,0,0,4.713,2.986,4.8,4.8,0,0,0,2.356-.57,3.92,3.92,0,0,0,1.587-1.59v1.967h2.958V10.014H82.13ZM79,20.089a2.851,2.851,0,0,1-2.344-1.02,4.51,4.51,0,0,1-.83-2.913,4.82,4.82,0,0,1,.83-3,2.759,2.759,0,0,1,2.32-1.08,2.79,2.79,0,0,1,2.332,1.044,4.754,4.754,0,0,1,.817,2.986,4.664,4.664,0,0,1-.817,2.938A2.763,2.763,0,0,1,79,20.089h0Zm15.822,2.379a8.017,8.017,0,0,0,2.573-.413,5.326,5.326,0,0,0,2-1.141l-0.842-2.137a6.067,6.067,0,0,1-1.635.971,4.644,4.644,0,0,1-1.707.34,3.238,3.238,0,0,1-2.561-1.02,4.338,4.338,0,0,1-.9-2.962,4.347,4.347,0,0,1,.914-2.974A3.227,3.227,0,0,1,95.21,12.1a4.8,4.8,0,0,1,1.707.328,5.832,5.832,0,0,1,1.635.959l0.842-2.136a4.887,4.887,0,0,0-1.936-1.141A7.761,7.761,0,0,0,94.946,9.7a6.574,6.574,0,0,0-3.306.813,5.609,5.609,0,0,0-2.212,2.27,7.029,7.029,0,0,0-.782,3.375,7.085,7.085,0,0,0,.745,3.338,5.258,5.258,0,0,0,2.14,2.2,6.66,6.66,0,0,0,3.294.777h0Zm13.056,0a6.509,6.509,0,0,0,3.222-.777,5.293,5.293,0,0,0,2.152-2.221,7.193,7.193,0,0,0,.758-3.387,7.2,7.2,0,0,0-.758-3.387,5.3,5.3,0,0,0-2.152-2.222,6.513,6.513,0,0,0-3.222-.777,6.632,6.632,0,0,0-3.258.777A5.284,5.284,0,0,0,102.46,12.7a7.2,7.2,0,0,0-.758,3.387,7.193,7.193,0,0,0,.758,3.387,5.28,5.28,0,0,0,2.164,2.221,6.628,6.628,0,0,0,3.258.777h0Zm-0.024-2.379a2.8,2.8,0,0,1-2.32-1.008,4.725,4.725,0,0,1-.806-3,4.744,4.744,0,0,1,.818-3,3.125,3.125,0,0,1,4.641,0,4.75,4.75,0,0,1,.817,3,4.731,4.731,0,0,1-.8,3,2.826,2.826,0,0,1-2.345,1.008h0ZM124.522,9.7a4.813,4.813,0,0,0-2.417.607,4.421,4.421,0,0,0-1.7,1.724l-0.216-2.015H117.38a28.1,28.1,0,0,1,.193,3.472v8.789h2.981V15.331a3.262,3.262,0,0,1,.842-2.343,2.91,2.91,0,0,1,2.212-.886,2.09,2.09,0,0,1,1.707.668,3.31,3.31,0,0,1,.553,2.124v7.381h3.006V14.748q0-5.05-4.352-5.05h0Z"/>
  <path id="Loot_editor_for_Ark:_Survival_Evolved" data-name="Loot editor for Ark: Survival Evolved" class="cls-1" d="M47.409,34.9v-0.85H43.117V26.254H42.131V34.9h5.278Zm4.124,0.085a2.869,2.869,0,0,0,1.5-.388,2.6,2.6,0,0,0,1-1.1,4.133,4.133,0,0,0,0-3.35,2.6,2.6,0,0,0-1-1.1,3.1,3.1,0,0,0-3.006,0,2.6,2.6,0,0,0-1,1.1,4.133,4.133,0,0,0,0,3.35,2.593,2.593,0,0,0,1,1.1,2.869,2.869,0,0,0,1.5.388h0Zm0-.813a1.685,1.685,0,0,1-1.389-.6,2.732,2.732,0,0,1-.487-1.754,2.7,2.7,0,0,1,.493-1.73,1.852,1.852,0,0,1,2.753,0,2.7,2.7,0,0,1,.493,1.73,2.757,2.757,0,0,1-.481,1.754,1.668,1.668,0,0,1-1.383.6h0Zm7.358,0.813a2.869,2.869,0,0,0,1.5-.388,2.6,2.6,0,0,0,1-1.1,4.133,4.133,0,0,0,0-3.35,2.6,2.6,0,0,0-1-1.1,3.1,3.1,0,0,0-3.006,0,2.6,2.6,0,0,0-1,1.1,4.133,4.133,0,0,0,0,3.35,2.593,2.593,0,0,0,1,1.1,2.869,2.869,0,0,0,1.5.388h0Zm0-.813a1.685,1.685,0,0,1-1.389-.6,2.732,2.732,0,0,1-.487-1.754,2.7,2.7,0,0,1,.493-1.73,1.852,1.852,0,0,1,2.753,0,2.7,2.7,0,0,1,.493,1.73,2.757,2.757,0,0,1-.481,1.754,1.668,1.668,0,0,1-1.383.6h0Zm7.875-4.6V28.791H65.034V26.873l-0.974.352v1.566H62.882v0.777h1.178V33.04a1.979,1.979,0,0,0,.487,1.451,1.818,1.818,0,0,0,1.353.492,2.715,2.715,0,0,0,.842-0.121V34.023a1.953,1.953,0,0,1-.649.109,1.064,1.064,0,0,1-.781-0.273,1.316,1.316,0,0,1-.276-0.953V29.568h1.731Zm10.339,2.064a3.247,3.247,0,0,0-.685-2.191,2.361,2.361,0,0,0-1.888-.8,2.759,2.759,0,0,0-1.479.4,2.709,2.709,0,0,0-1.01,1.123,3.662,3.662,0,0,0-.361,1.657,3.21,3.21,0,0,0,.805,2.312,2.929,2.929,0,0,0,2.224.844,3.785,3.785,0,0,0,1.268-.218A2.81,2.81,0,0,0,77,34.169l-0.325-.716a3.038,3.038,0,0,1-1.948.716,1.917,1.917,0,0,1-1.521-.595,2.637,2.637,0,0,1-.535-1.76h4.436V31.632ZM74.544,29.41a1.556,1.556,0,0,1,1.184.449,2.1,2.1,0,0,1,.5,1.311H72.7a2.236,2.236,0,0,1,.607-1.3,1.694,1.694,0,0,1,1.232-.461h0Zm8.873-3.447v3.86a1.951,1.951,0,0,0-.793-0.868,2.408,2.408,0,0,0-1.238-.31,2.573,2.573,0,0,0-1.407.388,2.525,2.525,0,0,0-.944,1.1,4.311,4.311,0,0,0,.006,3.326,2.646,2.646,0,0,0,.944,1.123,2.484,2.484,0,0,0,1.4.4,2.44,2.44,0,0,0,1.244-.309,1.929,1.929,0,0,0,.8-0.88v1.1h0.962V25.963H83.417Zm-1.84,8.206a1.677,1.677,0,0,1-1.389-.625,2.746,2.746,0,0,1-.5-1.754,2.626,2.626,0,0,1,.5-1.712,1.7,1.7,0,0,1,1.389-.607,1.641,1.641,0,0,1,1.371.613,2.745,2.745,0,0,1,.481,1.73,2.766,2.766,0,0,1-.481,1.742,1.64,1.64,0,0,1-1.371.613h0ZM87.733,34.9V28.791H86.759V34.9h0.974Zm-1.07-7.575h1.19V26.206h-1.19v1.117Zm6.468,2.246V28.791H91.4V26.873l-0.974.352v1.566H89.248v0.777h1.178V33.04a1.979,1.979,0,0,0,.487,1.451,1.818,1.818,0,0,0,1.353.492,2.715,2.715,0,0,0,.842-0.121V34.023a1.953,1.953,0,0,1-.649.109,1.064,1.064,0,0,1-.782-0.273,1.316,1.316,0,0,1-.277-0.953V29.568h1.731Zm4.16,5.414a2.869,2.869,0,0,0,1.5-.388,2.6,2.6,0,0,0,1-1.1,4.13,4.13,0,0,0,0-3.35,2.6,2.6,0,0,0-1-1.1,3.1,3.1,0,0,0-3.006,0,2.6,2.6,0,0,0-1,1.1,4.133,4.133,0,0,0,0,3.35,2.593,2.593,0,0,0,1,1.1,2.869,2.869,0,0,0,1.5.388h0Zm0-.813a1.685,1.685,0,0,1-1.389-.6,2.732,2.732,0,0,1-.487-1.754,2.7,2.7,0,0,1,.493-1.73,1.852,1.852,0,0,1,2.753,0,2.7,2.7,0,0,1,.493,1.73,2.757,2.757,0,0,1-.481,1.754,1.668,1.668,0,0,1-1.383.6h0Zm7.671-5.523a2.076,2.076,0,0,0-1.155.328,1.856,1.856,0,0,0-.733.947l-0.1-1.129h-0.926a13.833,13.833,0,0,1,.1,1.712V34.9h0.974V31.413a2.126,2.126,0,0,1,.427-1.341,1.544,1.544,0,0,1,1.3-.552,1.926,1.926,0,0,1,.638.1l0.024-.9a1.993,1.993,0,0,0-.553-0.073h0Zm7.959-1.882a2.271,2.271,0,0,1,.625.1V26.024a3.066,3.066,0,0,0-.818-0.109,1.759,1.759,0,0,0-1.328.492,2.008,2.008,0,0,0-.475,1.451v0.935h-1.178v0.777h1.178V34.9H111.9V29.568h1.479V28.791H111.9V27.978a1.317,1.317,0,0,1,.27-0.941,1.012,1.012,0,0,1,.752-0.273h0Zm4.653,8.218a2.864,2.864,0,0,0,1.5-.388,2.591,2.591,0,0,0,1-1.1,4.13,4.13,0,0,0,0-3.35,2.593,2.593,0,0,0-1-1.1,3.1,3.1,0,0,0-3,0,2.593,2.593,0,0,0-1,1.1,4.13,4.13,0,0,0,0,3.35,2.591,2.591,0,0,0,1,1.1,2.868,2.868,0,0,0,1.5.388h0Zm0-.813a1.685,1.685,0,0,1-1.389-.6,2.729,2.729,0,0,1-.487-1.754,2.694,2.694,0,0,1,.493-1.73,1.852,1.852,0,0,1,2.753,0,2.694,2.694,0,0,1,.493,1.73,2.754,2.754,0,0,1-.481,1.754,1.666,1.666,0,0,1-1.382.6h0Zm7.67-5.523a2.073,2.073,0,0,0-1.154.328,1.851,1.851,0,0,0-.733.947l-0.1-1.129h-0.925a13.833,13.833,0,0,1,.1,1.712V34.9h0.974V31.413a2.131,2.131,0,0,1,.426-1.341,1.547,1.547,0,0,1,1.3-.552,1.92,1.92,0,0,1,.637.1l0.024-.9a1.988,1.988,0,0,0-.553-0.073h0ZM138.553,34.9l-3.763-8.643h-0.866L130.161,34.9h1.022l0.95-2.221h4.473l0.937,2.221h1.01Zm-4.184-7.49,1.888,4.443h-3.775ZM143,28.646a2.07,2.07,0,0,0-1.154.328,1.853,1.853,0,0,0-.734.947l-0.1-1.129h-0.926a13.833,13.833,0,0,1,.1,1.712V34.9h0.974V31.413a2.126,2.126,0,0,1,.427-1.341,1.544,1.544,0,0,1,1.305-.552,1.924,1.924,0,0,1,.637.1l0.024-.9A1.993,1.993,0,0,0,143,28.646h0Zm4.051,3.083,3.03-2.926h-1.238L146,31.6V25.963h-0.973V34.9H146V31.96l3.1,2.938h1.275Zm4.473-1.542h1.238V28.925h-1.238v1.262Zm0,4.71h1.238v-1.25h-1.238V34.9Zm9.883,0.1a4.27,4.27,0,0,0,1.677-.3,2.484,2.484,0,0,0,1.1-.856,2.188,2.188,0,0,0,.385-1.281,1.711,1.711,0,0,0-.421-1.208,2.587,2.587,0,0,0-1.052-.68q-0.632-.225-1.738-0.492a4.848,4.848,0,0,1-1.514-.571,1.1,1.1,0,0,1-.493-0.983,1.406,1.406,0,0,1,.565-1.184,2.521,2.521,0,0,1,1.563-.431,3.676,3.676,0,0,1,1.352.243,4.243,4.243,0,0,1,1.221.765l0.384-.765a3.46,3.46,0,0,0-1.3-.813,4.829,4.829,0,0,0-1.659-.279,3.972,3.972,0,0,0-1.641.316,2.54,2.54,0,0,0-1.089.88,2.264,2.264,0,0,0-.384,1.305,1.909,1.909,0,0,0,.4,1.256,2.542,2.542,0,0,0,1.034.734,10.7,10.7,0,0,0,1.624.473,10.943,10.943,0,0,1,1.172.328,1.871,1.871,0,0,1,.709.431,0.967,0.967,0,0,1,.271.71,1.337,1.337,0,0,1-.559,1.147,2.677,2.677,0,0,1-1.593.407,4.663,4.663,0,0,1-1.539-.231,4.068,4.068,0,0,1-1.3-.777l-0.373.765a4.548,4.548,0,0,0,3.2,1.093h0Zm9.221-6.2v3.447a1.953,1.953,0,0,1-.493,1.39,1.694,1.694,0,0,1-1.3.528,1.279,1.279,0,0,1-1.022-.388,1.821,1.821,0,0,1-.337-1.214V28.791h-0.974v3.787a2.584,2.584,0,0,0,.553,1.8,2.086,2.086,0,0,0,1.623.607,2.331,2.331,0,0,0,1.166-.291,2,2,0,0,0,.806-0.85V34.9h0.95V28.791H170.63Zm6.144-.146a2.076,2.076,0,0,0-1.155.328,1.856,1.856,0,0,0-.733.947l-0.1-1.129h-0.926a13.833,13.833,0,0,1,.1,1.712V34.9h0.974V31.413a2.126,2.126,0,0,1,.427-1.341,1.544,1.544,0,0,1,1.3-.552,1.926,1.926,0,0,1,.638.1l0.024-.9a1.993,1.993,0,0,0-.553-0.073h0Zm4.652,5.183L179.383,28.8h-1.022l2.572,6.094h0.926l2.609-6.094h-0.974Zm5.567,1.068V28.791h-0.974V34.9h0.974Zm-1.07-7.575h1.19V26.206h-1.19v1.117Zm5.711,6.506L189.59,28.8h-1.022l2.573,6.094h0.926l2.608-6.094H193.7Zm8.885-5.038v1.056a2.05,2.05,0,0,0-.806-0.886,2.371,2.371,0,0,0-1.238-.316,2.487,2.487,0,0,0-1.4.4,2.652,2.652,0,0,0-.944,1.123,4.319,4.319,0,0,0-.006,3.326,2.478,2.478,0,0,0,2.351,1.487,2.439,2.439,0,0,0,1.244-.309,1.931,1.931,0,0,0,.8-0.88v1.1h0.961V28.791h-0.961Zm-1.852,5.378a1.7,1.7,0,0,1-1.4-.607,2.673,2.673,0,0,1-.493-1.724,2.729,2.729,0,0,1,.5-1.742,1.679,1.679,0,0,1,1.389-.625,1.649,1.649,0,0,1,1.371.607,2.743,2.743,0,0,1,.481,1.736,2.769,2.769,0,0,1-.481,1.742,1.641,1.641,0,0,1-1.371.613h0Zm6.156,0.728V25.963h-0.974V34.9h0.974Zm11.517,0V34.072H211.9V30.928h4.2V30.09h-4.2V27.08h4.436V26.254h-5.41V34.9h5.41Zm4.293-1.068L218.589,28.8h-1.022L220.14,34.9h0.925l2.609-6.094H222.7Zm7.021,1.153a2.87,2.87,0,0,0,1.5-.388,2.6,2.6,0,0,0,1-1.1,4.141,4.141,0,0,0,0-3.35,2.6,2.6,0,0,0-1-1.1,3.1,3.1,0,0,0-3.006,0,2.593,2.593,0,0,0-1,1.1,4.13,4.13,0,0,0,0,3.35,2.591,2.591,0,0,0,1,1.1,2.87,2.87,0,0,0,1.5.388h0Zm0-.813a1.686,1.686,0,0,1-1.389-.6,2.735,2.735,0,0,1-.487-1.754,2.694,2.694,0,0,1,.493-1.73,1.852,1.852,0,0,1,2.753,0,2.694,2.694,0,0,1,.493,1.73,2.754,2.754,0,0,1-.481,1.754,1.666,1.666,0,0,1-1.382.6h0Zm5.831,0.728V25.963h-0.974V34.9h0.974Zm4.641-1.068L236.082,28.8H235.06l2.573,6.094h0.925l2.609-6.094h-0.973Zm9.582-2.2a3.247,3.247,0,0,0-.686-2.191,2.359,2.359,0,0,0-1.887-.8,2.76,2.76,0,0,0-1.479.4,2.711,2.711,0,0,0-1.01,1.123,3.667,3.667,0,0,0-.361,1.657,3.211,3.211,0,0,0,.806,2.312,2.928,2.928,0,0,0,2.224.844,3.788,3.788,0,0,0,1.269-.218,2.821,2.821,0,0,0,1.016-.595l-0.325-.716a3.039,3.039,0,0,1-1.948.716,1.918,1.918,0,0,1-1.521-.595,2.641,2.641,0,0,1-.535-1.76h4.437V31.632Zm-2.561-2.221a1.554,1.554,0,0,1,1.184.449,2.1,2.1,0,0,1,.5,1.311h-3.523a2.241,2.241,0,0,1,.608-1.3,1.693,1.693,0,0,1,1.232-.461h0Zm8.873-3.447v3.86a1.953,1.953,0,0,0-.794-0.868,2.406,2.406,0,0,0-1.238-.31,2.574,2.574,0,0,0-1.407.388,2.529,2.529,0,0,0-.944,1.1,4.319,4.319,0,0,0,.006,3.326,2.65,2.65,0,0,0,.944,1.123,2.486,2.486,0,0,0,1.4.4,2.439,2.439,0,0,0,1.244-.309,1.931,1.931,0,0,0,.8-0.88v1.1h0.962V25.963H254.02Zm-1.84,8.206a1.675,1.675,0,0,1-1.388-.625,2.744,2.744,0,0,1-.5-1.754,2.624,2.624,0,0,1,.5-1.712,1.7,1.7,0,0,1,1.388-.607,1.642,1.642,0,0,1,1.371.613,2.748,2.748,0,0,1,.481,1.73,2.769,2.769,0,0,1-.481,1.742,1.641,1.641,0,0,1-1.371.613h0Z"/>
  <path class="cls-1" d="M32,20L25.882,8.936,23.412,13.4,16,0,8.589,13.4,6.119,8.936,0,20,6.119,31.064,8.589,26.6,16,40l7.411-13.4,2.47,4.468Z"/>
  <path class="cls-2" d="M25.951,11.064L30.9,20l-4.954,8.936L21,20Zm-19.816,0L11.089,20,6.135,28.936,1.181,20Zm5.544,7.872,4.364-7.872,4.364,7.872,2.477-4.468L16.043,2.127,9.2,14.468Zm4.364,10-4.364-7.872L9.2,25.532l6.841,12.341,6.841-12.341-2.477-4.468Z"/>
</svg>
