<svg id="Layer_1" data-name="Layer 1" xmlns="http://www.w3.org/2000/svg" viewBox="0 0 48 46"><defs><style>.cls-1{fill:#fff;}</style></defs><title>landing-database</title><path class="cls-1" d="M16,36v2c0,2.7,4.6,5,10,5s10-2.3,10-5V36c-2.1,1.9-5.8,3.1-10,3.1S18.1,37.9,16,36Z" transform="translate(-2 -3)"/><path class="cls-1" d="M16,29.9v2.2c0,2.7,4.6,5,10,5s10-2.3,10-5V29.9C33.9,31.8,30.2,33,26,33S18.1,31.8,16,29.9Z" transform="translate(-2 -3)"/><path class="cls-1" d="M16,42v2c0,2.7,4.6,5,10,5s10-2.3,10-5V42c-2.1,1.9-5.8,3.1-10,3.1S18.1,43.9,16,42Z" transform="translate(-2 -3)"/><path class="cls-1" d="M40,17h-.6A7,7,0,0,0,33,12,13,13,0,0,0,7.6,16a6.15,6.15,0,0,0,.2,1.9A10.16,10.16,0,0,0,2,27,10,10,0,0,0,12,37h2V25.4h0c.4-4.1,6.3-6.5,12-6.5s11.5,2.4,12,6.5h0V37h2a10,10,0,0,0,0-20Z" transform="translate(-2 -3)"/><path class="cls-1" d="M26,21c-5.4,0-10,2.3-10,5s4.6,5,10,5,10-2.3,10-5S31.4,21,26,21Z" transform="translate(-2 -3)"/></svg>