<svg id="Layer_1" data-name="Layer 1" xmlns="http://www.w3.org/2000/svg" viewBox="0 0 578 610.67"><defs><style>.cls-1{fill:#fff;}</style></defs><title>landing-beacon</title><polygon class="cls-1" points="307 24.67 298.67 86.33 298.33 16.33 292.67 72 292 16 284.67 88 281.33 0 278 62 275.67 31.83 274 74 271.33 4 268 98 264 21.33 261.33 102 258.33 34.67 255.33 104 250.67 59.67 256.25 319.04 279 291.72 299.6 316.52 307 24.67"/><polygon class="cls-1" points="578 548.67 318 511 573.33 484 312 501 500.67 468 298.11 493.01 288.56 524.26 286.44 531.19 502 607 310.67 523.33 578 548.67"/><polygon class="cls-1" points="272.55 534.46 269.44 524.26 259.76 492.59 22.67 459.33 246 504 0 500.67 243 517 1.33 569.33 253 527 142 610.67 272.55 534.46"/><polygon class="cls-1" points="335.33 390.33 358.33 461.67 328.17 413.17 335.33 390.33"/><polygon class="cls-1" points="222.75 390.08 199.75 461.42 229.92 412.92 222.75 390.08"/><polygon class="cls-1" points="279 521.33 323 377.33 279 310 235 377.33 279 521.33"/></svg>