<?xml version="1.0" encoding="utf-8"?>
<!-- Generator: Adobe Illustrator 21.0.2, SVG Export Plug-In . SVG Version: 6.00 Build 0)  -->
<!DOCTYPE svg PUBLIC "-//W3C//DTD SVG 1.1//EN" "http://www.w3.org/Graphics/SVG/1.1/DTD/svg11.dtd">
<svg version="1.1" id="Layer_1" xmlns="http://www.w3.org/2000/svg" xmlns:xlink="http://www.w3.org/1999/xlink" x="0px" y="0px"
	 viewBox="0 0 553.1 553.1" style="enable-background:new 0 0 553.1 553.1;" xml:space="preserve">
<style type="text/css">
	.st0{fill:#FFFFFF;}
</style>
<title>landing-preset</title>
<polygon class="st0" points="553.1,222.9 520.3,141.8 496.2,198.7 "/>
<polygon class="st0" points="162.5,174.5 162.5,131.3 112.8,137.7 161.8,175.5 "/>
<polygon class="st0" points="162.5,406.2 162.5,343.4 141.6,312.9 162.5,320.6 162.5,303.3 138.8,294.4 110.8,213.8 162.5,217.9 
	162.5,192.7 104.8,148.1 0,284 248.4,475.6 302,406.2 "/>
<path class="st0" d="M508.2,136.7L437,106.5v58.8l9.2-6.1l15,83.9L437,271.8v134.4h-96.8l114.4,48.6L548,235l-69-29.3L508.2,136.7z
	 M460.8,339.9l-9.3-59.8l16.5-19.3L460.8,339.9z"/>
<polygon class="st0" points="361.2,139.3 423.1,139.3 361.2,77.4 "/>
<path class="st0" d="M348.1,152.4v-75H176.5v313.8H423V152.4H348.1z M215.7,282.8l24.4-75.6l7.6,24.2L215.7,282.8z M299.8,346.3
	l-46.6-152.6l46.6-71.4l46.6,71.4L299.8,346.3z M351.9,231.7l7.6-24.2l24.4,75.7L351.9,231.7z"/>
</svg>
