<?xml version="1.0" encoding="utf-8"?>
<!-- Generator: Adobe Illustrator 21.0.2, SVG Export Plug-In . SVG Version: 6.00 Build 0)  -->
<!DOCTYPE svg PUBLIC "-//W3C//DTD SVG 1.1//EN" "http://www.w3.org/Graphics/SVG/1.1/DTD/svg11.dtd">
<svg version="1.1" id="Layer_1" xmlns="http://www.w3.org/2000/svg" xmlns:xlink="http://www.w3.org/1999/xlink" x="0px" y="0px"
	 viewBox="0 0 478.9 478.9" style="enable-background:new 0 0 478.9 478.9;" xml:space="preserve">
<style type="text/css">
	.st0{fill:#713a9a;}
</style>
<title>landing-database</title>
<path class="st0" d="M404.1,223.4c0.1-2.8,0.1-5.4,0.1-7.5c0-70.5-57.1-127.7-127.6-127.7c0,0-0.1,0-0.1,0c-26.4,0-52.4,9-75.2,26
	c-15.4,11.6-28.4,26.1-38,42.9c-10.4-5.4-21.9-8.2-33.6-8.2c-19,0-37.2,8.8-51.3,24.8c-9.4,10.6-16,23.3-19.4,37.1
	c-16.1,6.4-30.2,17.1-40.6,31C6.4,257.9-0.1,277.4,0,297.5c0.1,51.4,41.7,93.1,93.1,93.2v-0.2h302.2v0.2c46.1,0,83.5-37.4,83.6-83.6
	C478.9,264,445.9,228.1,404.1,223.4z M165.1,303l21.6-67l6.7,21.5L165.1,303z M239.5,359.2L198.2,224l41.3-63.2l41.3,63.2
	L239.5,359.2z M285.6,257.6l6.7-21.4l21.6,67L285.6,257.6z"/>
</svg>
