<svg id="Layer_1" data-name="Layer 1" xmlns="http://www.w3.org/2000/svg" viewBox="0 0 62.9 87.8"><defs><style>.cls-1{fill:#fff;}</style></defs><title>landing-preset</title><path class="cls-1" d="M49.5,43a6.2,6.2,0,1,0-6.2-6.2A6.17,6.17,0,0,0,49.5,43Z" transform="translate(-18.6 -4.7)"/><path class="cls-1" d="M38.2,39.1a11.49,11.49,0,0,0,1.7,4.1l.5.7-1.9,1.9,2.1,2.1L42.5,46l.7.5a13.22,13.22,0,0,0,4.1,1.7l.8.2V51H51V48.4l.8-.2A12.81,12.81,0,0,0,56,46.5l.7-.5,1.9,1.8,2.1-2.1-2-1.7.5-.7a12.81,12.81,0,0,0,1.7-4.2l.2-.8h2.6V35.4H61.1l-.2-.8a12.81,12.81,0,0,0-1.7-4.2l-.5-.7,1.8-1.8-2.1-2.1-1.8,1.8-.6-.4a11,11,0,0,0-4.2-1.7l-.8-.2V22.7H48v2.6l-.8.2A11.16,11.16,0,0,0,43,27.3l-.7.5L40.5,26l-2.1,2.1,1.9,1.8-.5.7a12.81,12.81,0,0,0-1.7,4.2l-.1.6H35.4v2.9H38ZM49.5,28.6a8.2,8.2,0,1,1-8.2,8.2A8.24,8.24,0,0,1,49.5,28.6Z" transform="translate(-18.6 -4.7)"/><path class="cls-1" d="M79.9,9.4H61.6V6.2a1.54,1.54,0,0,0-1.5-1.5H39.9a1.54,1.54,0,0,0-1.5,1.5V9.5H20.1A1.54,1.54,0,0,0,18.6,11V91a1.54,1.54,0,0,0,1.5,1.5H57.9a6.73,6.73,0,0,0,4.8-2L79.5,73.7a6.73,6.73,0,0,0,2-4.8v-58A1.63,1.63,0,0,0,79.9,9.4ZM41.4,7.7H58.6v5.9H41.4Zm-8,25.7h3A14.34,14.34,0,0,1,37.8,30l-2.1-2.1L40.6,23l2.1,2.1a14.34,14.34,0,0,1,3.4-1.4v-3H53v2.9A14.34,14.34,0,0,1,56.4,25l2.1-2.1,4.9,4.9L61.3,30a14.34,14.34,0,0,1,1.4,3.4h2.9v6.9h-3a14.34,14.34,0,0,1-1.4,3.4l2.1,2.1-4.9,4.9-2.1-2.1A14.34,14.34,0,0,1,52.9,50v3H46V50a12.15,12.15,0,0,1-3.3-1.4l-2.2,2.2-4.9-4.9,2.2-2.2a15.55,15.55,0,0,1-1.4-3.3h-3Zm-6.9,34V55.2H67.3l6,6.1-2.5,2.5h0l-3.4,3.5-40.9.1ZM62.6,86.3V77.9a4,4,0,0,1,4-4H75Z" transform="translate(-18.6 -4.7)"/><rect class="cls-1" x="9.9" y="52.5" width="3.2" height="8.2"/><polygon class="cls-1" points="50.2 54.9 47.9 52.5 15.1 52.5 15.1 55.6 43.8 55.6 43.8 57.6 15.1 57.6 15.1 60.7 47.9 60.7 50.2 58.3 50.2 54.9"/></svg>