<svg id="Layer_1" data-name="Layer 1" xmlns="http://www.w3.org/2000/svg" viewBox="0 0 553.08 398.19"><defs><style>.cls-1{fill:#fff;}</style></defs><title>landing-preset</title><polygon class="cls-1" points="553.08 145.44 520.34 64.38 496.17 121.28 553.08 145.44"/><polygon class="cls-1" points="162.54 97.06 162.54 53.88 112.82 60.3 161.77 98.06 162.54 97.06"/><polygon class="cls-1" points="162.54 328.75 162.54 265.96 141.59 235.44 162.54 243.16 162.54 225.85 138.82 216.91 110.8 136.39 162.54 140.45 162.54 115.25 104.8 70.7 0 206.53 248.41 398.19 301.98 328.75 162.54 328.75"/><path class="cls-1" d="M531.24,315.57,460,285.34v58.78L469.2,338l15,83.92L460,450.73V585.08H363.19l114.43,48.58,93.33-219.8-69-29.3ZM483.77,518.81,474.43,459l16.45-19.31Z" transform="translate(-23 -256.33)"/><polygon class="cls-1" points="361.23 61.82 423.06 61.82 361.23 0 361.23 61.82"/><path class="cls-1" d="M371.09,331.29v-75H199.53V570.08H446.05V331.29ZM238.75,461.69l24.38-75.61,7.6,24.2Zm84,63.51L276.11,372.57l46.64-71.37,46.64,71.37Zm52.11-114.65,7.6-24.2L406.83,462Z" transform="translate(-23 -256.33)"/></svg>