<svg id="Layer_1" data-name="Layer 1" xmlns="http://www.w3.org/2000/svg" viewBox="0 0 578 725.33"><defs><style>.cls-1{fill:#fff;}</style></defs><title>landing-beacon</title><polygon class="cls-1" points="279 381.72 299.6 406.52 319.33 217.33 303.33 22.67 303.33 86 298 3.33 292.67 72 287.33 16 284.67 88 281.33 0 278 62 274 32 274 74 271.33 4 268 98 264 21.33 261.33 102 261.33 34.67 255.33 104 257.33 58.67 239.33 214 256.25 409.04 279 381.72"/><polygon class="cls-1" points="578 638.67 332.67 600.67 573.33 574 317.33 590 500.67 558 298.11 583.01 288.56 614.26 286.44 621.19 573.33 725.33 310.67 613.33 578 638.67"/><polygon class="cls-1" points="272.55 624.46 269.44 614.26 259.76 582.59 22.67 549.33 238 592.67 0 590.67 233.33 604.67 1.33 659.33 242.67 624.67 142 700.67 272.55 624.46"/><polygon class="cls-1" points="335.33 480.33 358.33 551.67 328.17 503.17 335.33 480.33"/><polygon class="cls-1" points="222.75 480.08 199.75 551.42 229.92 502.92 222.75 480.08"/><polygon class="cls-1" points="279 611.33 323 467.33 279 400 235 467.33 279 611.33"/></svg>