<svg id="Layer_1" data-name="Layer 1" xmlns="http://www.w3.org/2000/svg" viewBox="0 0 478.94 302.42"><defs><style>.cls-1{fill:#fff;}</style></defs><title>landing-database</title><path class="cls-1" d="M471.72,387.66c.1-2.83.15-5.42.15-7.48a127.65,127.65,0,0,0-127.7-127.7c-26.44,0-52.44,9-75.16,26a141.85,141.85,0,0,0-38,42.86,72.34,72.34,0,0,0-33.57-8.16c-19,0-37.19,8.8-51.32,24.78a87.54,87.54,0,0,0-19.4,37.09,93.68,93.68,0,0,0-40.56,31,92.16,92.16,0,0,0-18.52,55.66,93.25,93.25,0,0,0,93.15,93.15v-.24H463v.15a83.66,83.66,0,0,0,83.57-83.57C546.59,428.23,513.55,392.3,471.72,387.66Zm-239,79.51,21.59-67L261,421.64Zm74.41,56.26-41.31-135.2L307.08,325l41.31,63.22Zm46.16-101.56L360,400.43l21.59,67Z" transform="translate(-67.65 -252.48)"/></svg>