<?xml version="1.0" encoding="utf-8"?>
<!-- Generator: Adobe Illustrator 21.0.2, SVG Export Plug-In . SVG Version: 6.00 Build 0)  -->
<!DOCTYPE svg PUBLIC "-//W3C//DTD SVG 1.1//EN" "http://www.w3.org/Graphics/SVG/1.1/DTD/svg11.dtd">
<svg version="1.1" id="Layer_1" xmlns="http://www.w3.org/2000/svg" xmlns:xlink="http://www.w3.org/1999/xlink" x="0px" y="0px"
	 viewBox="0 0 610.7 610.7" style="enable-background:new 0 0 610.7 610.7;" xml:space="preserve">
<style type="text/css">
	.st0{fill:#713a9a;}
</style>
<title>landing-beacon</title>
<polygon class="st0" points="323.3,24.7 315,86.3 314.7,16.3 309,72 308.3,16 301,88 297.7,0 294.3,62 292,31.8 290.3,74 287.7,4 
	284.3,98 280.3,21.3 277.7,102 274.7,34.7 271.7,104 267,59.7 272.6,319 295.3,291.7 315.9,316.5 "/>
<polygon class="st0" points="594.3,548.7 334.3,511 589.7,484 328.3,501 517,468 314.4,493 304.9,524.3 302.8,531.2 518.3,607 
	327,523.3 "/>
<polygon class="st0" points="288.9,534.5 285.8,524.3 276.1,492.6 39,459.3 262.3,504 16.3,500.7 259.3,517 17.7,569.3 269.3,527 
	158.3,610.7 "/>
<polygon class="st0" points="351.7,390.3 374.7,461.7 344.5,413.2 "/>
<polygon class="st0" points="239.1,390.1 216.1,461.4 246.3,412.9 "/>
<polygon class="st0" points="295.3,521.3 339.3,377.3 295.3,310 251.3,377.3 "/>
</svg>
