<?xml version="1.0" encoding="UTF-8"?><svg id="a" xmlns="http://www.w3.org/2000/svg" viewBox="0 0 163.0001 78"><defs><style>.b{fill:#000;stroke-width:0px;}</style></defs><path class="b" d="M95.2301,21.7v-6.27h2.17l1.11,4.58,1.11-4.58h2.17v6.27h-1.27v-4.85h-.14l-1.23,4.58h-1.27l-1.23-4.58h-.14v4.85h-1.28Z"/><path class="b" d="M105.6601,19.6c0,.73.37,1.1,1.12,1.1s1.12-.37,1.12-1.1v-4.18h1.27v4.15c0,.77-.2,1.33-.6,1.69-.4.36-.99.54-1.79.54s-1.4-.18-1.79-.54c-.4-.36-.6-.92-.6-1.69v-4.15h1.27v4.18h0Z"/><path class="b" d="M115.3301,21.7h-3.57v-6.27h1.27v5.15h2.3v1.13-.01Z"/><path class="b" d="M116.1501,16.55v-1.13h4.61v1.13h-1.66v5.15h-1.27v-5.15h-1.68Z"/><path class="b" d="M122.8501,21.7v-6.27h1.27v6.27h-1.27Z"/><path class="b" d="M129.09,19.87h-1.03v1.83h-1.27v-6.27h2.31c1.49,0,2.23.73,2.23,2.18,0,.73-.19,1.29-.57,1.68s-.93.59-1.67.59v-.01ZM128.06,18.78h1.02c.63,0,.95-.39.95-1.18,0-.39-.08-.67-.23-.83-.15-.17-.39-.25-.72-.25h-1.02v2.27-.01Z"/><path class="b" d="M137.0801,21.7h-3.57v-6.27h1.27v5.15h2.3v1.13-.01Z"/><path class="b" d="M138.6301,21.7l1.41-6.27h2.42l1.41,6.27h-1.27l-.25-1.13h-2.2l-.25,1.13h-1.27ZM141.03,16.47l-.64,2.98h1.72l-.64-2.98h-.44,0Z"/><path class="b" d="M148.0401,21.7h-1.27v-2.54l-1.94-3.74h1.41l1.15,2.5,1.15-2.5h1.41l-1.92,3.74v2.54h.01Z"/><path class="b" d="M151.9401,21.7v-6.27h4.06v1.11h-2.79v1.47h2.23v1.09h-2.23v1.5h2.79v1.11h-4.06v-.01Z"/><path class="b" d="M159.6201,19.59v2.1h-1.27v-6.27h2.44c1.48,0,2.21.69,2.21,2.07,0,.82-.31,1.42-.92,1.81l.89,2.4h-1.39l-.73-2.1h-1.23v-.01ZM161.4701,18.23c.15-.18.22-.43.22-.73s-.08-.54-.24-.72-.38-.27-.68-.27h-1.16v1.99h1.18c.3,0,.53-.09.67-.28l.01.01Z"/><path class="b" d="M109.1101,26.77c-.67,0-1.01.22-1.01.66,0,.2.08.35.25.45.17.1.56.26,1.17.45s1.04.42,1.29.67.37.63.37,1.15c0,.66-.2,1.16-.6,1.49-.4.34-.92.51-1.57.51-.48,0-1.07-.07-1.76-.22l-.33-.06.13-.99c.82.11,1.45.17,1.89.17.65,0,.98-.27.98-.81,0-.2-.08-.35-.23-.46-.15-.11-.45-.23-.9-.36-.71-.2-1.22-.44-1.51-.72-.29-.28-.44-.67-.44-1.17,0-.63.19-1.09.57-1.4s.9-.46,1.57-.46c.46,0,1.03.06,1.73.18l.33.06-.1,1.01c-.87-.1-1.48-.15-1.84-.15h.01Z"/><path class="b" d="M113.4901,32.05v-6.27h4.06v1.11h-2.79v1.47h2.23v1.09h-2.23v1.5h2.79v1.11h-4.06v-.01Z"/><path class="b" d="M121.1701,29.94v2.1h-1.27v-6.27h2.44c1.48,0,2.21.69,2.21,2.07,0,.82-.31,1.42-.92,1.81l.89,2.4h-1.39l-.73-2.1h-1.23v-.01ZM123.0201,28.58c.15-.18.22-.43.22-.73s-.08-.54-.24-.72-.38-.27-.68-.27h-1.16v1.99h1.18c.3,0,.53-.09.67-.28l.01.01Z"/><path class="b" d="M130.2201,25.77h1.34l-1.46,6.27h-2.35l-1.46-6.27h1.34l1.09,5.17h.42l1.09-5.17h-.01Z"/><path class="b" d="M133.6801,32.05v-6.27h4.06v1.11h-2.79v1.47h2.23v1.09h-2.23v1.5h2.79v1.11h-4.06v-.01Z"/><path class="b" d="M141.3601,29.94v2.1h-1.27v-6.27h2.44c1.48,0,2.21.69,2.21,2.07,0,.82-.31,1.42-.92,1.81l.89,2.4h-1.39l-.73-2.1h-1.23v-.01ZM143.2101,28.58c.15-.18.22-.43.22-.73s-.08-.54-.24-.72-.38-.27-.68-.27h-1.16v1.99h1.18c.3,0,.53-.09.67-.28l.01.01Z"/><path class="b" d="M149.0201,26.77c-.67,0-1.01.22-1.01.66,0,.2.08.35.25.45.17.1.56.26,1.17.45s1.04.42,1.29.67.37.63.37,1.15c0,.66-.2,1.16-.6,1.49-.4.34-.92.51-1.57.51-.48,0-1.07-.07-1.76-.22l-.33-.06.13-.99c.82.11,1.45.17,1.89.17.65,0,.98-.27.98-.81,0-.2-.08-.35-.23-.46-.15-.11-.45-.23-.9-.36-.71-.2-1.22-.44-1.51-.72-.29-.28-.44-.67-.44-1.17,0-.63.19-1.09.57-1.4s.9-.46,1.57-.46c.46,0,1.03.06,1.73.18l.33.06-.1,1.01c-.87-.1-1.48-.15-1.84-.15h.01Z"/><path class="b" d="M8.64,23.82L3.83,10.63c-.09-.24-.45-.18-.45.08v13.04c0,.13-.1.23-.23.23H.23c-.13,0-.23-.1-.23-.23V.25C0,.12.1.02.23.02h2.82c.1,0,.19.06.22.15l4.77,13.14c.09.24.45.18.45-.08V.25c0-.13.1-.23.23-.23h2.92c.13,0,.23.1.23.23v23.5c0,.13-.1.23-.23.23h-2.78c-.1,0-.19-.06-.22-.15"/><path class="b" d="M13.5901,23.74V.24c0-.13.1-.23.23-.23h2.92c.13,0,.23.1.23.23v23.5c0,.13-.1.23-.23.23h-2.92c-.13,0-.23-.1-.23-.23"/><path class="b" d="M22.6901,23.74V3.43c0-.13-.1-.23-.23-.23h-3.53c-.13,0-.23-.1-.23-.23V.24c0-.13.1-.23.23-.23h10.99c.13,0,.23.1.23.23v2.73c0,.13-.1.23-.23.23h-3.61c-.13,0-.23.1-.23.23v20.31c0,.13-.1.23-.23.23h-2.92c-.13,0-.23-.1-.23-.23"/><path class="b" d="M31.8701,23.74V.24c0-.13.1-.23.23-.23h5.72c1.57,0,2.89.55,3.96,1.66,1.07,1.1,1.61,2.44,1.61,4.02v2.23c0,2.14-.87,3.8-2.62,4.96-.09.06-.13.17-.09.27l3.44,10.52c.05.15-.06.3-.22.3h-3.09c-.1,0-.19-.07-.22-.16l-3.12-9.95c-.03-.1-.12-.16-.22-.16h-1.74c-.13,0-.23.1-.23.23v9.81c0,.13-.1.23-.23.23h-2.92c-.13,0-.23-.1-.23-.23M39.4101,9.94s.02-.02.02-.03c.2-.26.35-.56.44-.88.09-.33.12-.71.12-1.12v-2.24c0-.74-.2-1.35-.61-1.8-.41-.45-.98-.69-1.72-.69h-2.19c-.13,0-.23.1-.23.23v7.03c0,.13.1.23.23.23h2.15c.71,0,1.3-.25,1.77-.74"/><path class="b" d="M45.9901,23.69L50.8701.19c.02-.11.12-.19.23-.19h2.92c.11,0,.2.08.23.18l5.21,23.5c.03.15-.08.28-.23.28h-3.17c-.11,0-.21-.08-.23-.19l-.89-4.78c-.02-.11-.12-.19-.23-.19h-4.01c-.11,0-.21.08-.23.19l-.89,4.78c-.02.11-.12.19-.23.19h-3.14c-.15,0-.26-.14-.23-.28M51.3501,15.63h2.65c.15,0,.26-.13.23-.28l-1.33-7.03c-.05-.25-.41-.25-.46,0l-1.33,7.03c-.03.14.08.28.23.28"/><path class="b" d="M66.61,0C68.13,0,69.45.54,70.55,1.64c1.11,1.09,1.66,2.4,1.66,3.94v12.47c0,1.72-.53,3.15-1.59,4.26-1.06,1.12-2.43,1.67-4.12,1.67h-5.05c-.13,0-.23-.1-.23-.23V.25c0-.13.1-.23.23-.23h5.15l.01-.02ZM68.8201,18.06V5.58c0-.67-.24-1.23-.72-1.67s-1.06-.66-1.74-.66h-1.52c-.13,0-.23.1-.23.23v17.1c0,.13.1.23.23.23h1.42c1.71-.02,2.55-.93,2.55-2.75"/><path class="b" d="M74.9401,2.44c.54-.75,1.21-1.35,2.04-1.79.82-.44,1.68-.65,2.57-.65s1.68.17,2.44.53c.76.35,1.39.84,1.9,1.45.5.61.85,1.23,1.04,1.87.18.63.28,1.33.28,2.08v11.99c0,.71-.07,1.33-.19,1.85-.13.53-.4,1.12-.82,1.79-.42.65-1.04,1.22-1.86,1.7-.82.47-1.71.71-2.67.71-1.11,0-2.11-.28-3.03-.85s-1.57-1.21-1.93-1.93c-.37-.72-.59-1.3-.65-1.73-.06-.44-.11-.95-.11-1.53V5.94c0-.71.08-1.33.23-1.87.14-.54.41-1.09.78-1.62M81.4401,4.3c-.47-.63-1.07-.96-1.83-.96-.4,0-.79.11-1.18.34-.39.23-.66.47-.81.74s-.25.54-.3.83c-.04.28-.07.52-.07.71v12.01c0,.24.02.49.05.77s.23.66.56,1.14c.34.48.92.72,1.74.72.42,0,.8-.1,1.14-.3.34-.2.59-.42.74-.69.15-.26.25-.5.29-.74s.08-.54.08-.91V5.98c0-.47-.02-.79-.05-.99-.02-.19-.15-.41-.36-.67"/><path class="b" d="M23.1601,29.79h38.88c.21,0,.31.27.15.41l-19.44,16.96c-.09.08-.22.08-.31,0l-19.45-16.96c-.16-.14-.06-.41.15-.41"/><path class="b" d="M90.2083,63.836h-1.5117v2.5918h1.5361c.3916,0,.6836-.1201.876-.3594.1914-.2402.2881-.5566.2881-.9482s-.1025-.7041-.3066-.9365c-.2041-.2314-.498-.3477-.8818-.3477Z"/><path class="b" d="M111.4222,63.836h-1.5117v2.5918h1.5361c.3916,0,.6836-.1201.876-.3594.1914-.2402.2881-.5566.2881-.9482s-.1025-.7041-.3066-.9365c-.2041-.2314-.498-.3477-.8818-.3477Z"/><path class="b" d="M66.9505,63.836h-1.5122v2.5918h1.5361c.3916,0,.6841-.1201.876-.3594.1919-.2402.2881-.5566.2881-.9482s-.1021-.7041-.3062-.9365c-.2041-.2314-.498-.3477-.8818-.3477Z"/><path class="b" d="M129.6741,63.7158c-.6406,0-1.0801.2246-1.3203.6719-.2402.4482-.3604,1.166-.3604,2.1543s.1182,1.6924.3545,2.1123c.2354.4199.6777.6299,1.3262.6299.6475,0,1.0898-.21,1.3252-.6299.2363-.4199.3545-1.124.3545-2.1123s-.1201-1.7061-.3604-2.1543c-.2393-.4473-.6797-.6719-1.3193-.6719Z"/><path class="b" d="M0,55v23h163v-23H0ZM20.534,68.7197c.2319.377.7119.5645,1.4404.5645l.9956-.0479v-1.584h-.7437v-1.4404h2.376v4.2363c-1.144.1836-2.0723.2754-2.7842.2754-1.272,0-2.146-.3398-2.6221-1.0195s-.7139-1.7598-.7139-3.2402c0-1.4795.248-2.5479.7441-3.2041.4956-.6553,1.3398-.9834,2.5317-.9834.7441,0,1.5479.084,2.4121.252l.4321.084-.0483,1.2842c-.96-.1045-1.7456-.1562-2.3579-.1562-.6118,0-1.042.0723-1.29.2158s-.4302.4102-.5459.7979c-.1162.3887-.1738,1.0518-.1738,1.9922s.1157,1.5977.3477,1.9736ZM31.4422,63.8604h-3.624v1.9082h2.9043v1.415h-2.9043v1.9561h3.624v1.4404h-5.2798v-8.1602h5.2798v1.4404ZM38.0775,63.8838h-2.1597v6.6963h-1.6562v-6.6963h-2.1841v-1.4639h6v1.4639ZM45.0482,67.2803v3.2998h-1.6558v-3.2998l-2.52-4.8604h1.8359l1.5,3.252,1.5-3.252h1.8359l-2.4961,4.8604ZM53.7567,69.71c-.5083.6758-1.3823,1.0137-2.6221,1.0137s-2.1143-.3379-2.6221-1.0137c-.5083-.6758-.7622-1.7334-.7622-3.1738s.2539-2.5098.7622-3.21c.5078-.7002,1.3818-1.0498,2.6221-1.0498s2.1138.3496,2.6221,1.0498c.5078.7002.7617,1.7695.7617,3.21s-.2539,2.498-.7617,3.1738ZM62.0784,67.8203c0,1-.2583,1.7334-.7744,2.2021-.5156.4678-1.2939.7012-2.334.7012s-1.8179-.2334-2.334-.7012c-.5156-.4688-.7739-1.2021-.7739-2.2021v-5.4004h1.6562v5.4365c0,.9521.4839,1.4277,1.4517,1.4277.9683,0,1.4521-.4756,1.4521-1.4277v-5.4365h1.6562v5.4004ZM69.7943,70.5801h-1.812l-.9478-2.7363h-1.5962v2.7363h-1.6558v-8.1602h3.168c1.9199,0,2.8799.8965,2.8799,2.6885,0,1.0635-.4004,1.8477-1.2002,2.3516l1.1641,3.1201ZM78.2781,70.0645c-.5205.4395-1.2002.6592-2.04.6592-.624,0-1.3882-.0957-2.292-.2871l-.4321-.084.168-1.2842c1.0718.1436,1.8921.2158,2.46.2158.8481,0,1.272-.3516,1.272-1.0557,0-.2568-.0981-.4561-.2939-.6006-.1963-.1436-.5859-.2998-1.1699-.4678-.9282-.2637-1.582-.5781-1.9619-.9424-.3804-.3633-.5703-.8701-.5703-1.5176,0-.8164.248-1.4238.7441-1.8242.4961-.3994,1.1758-.5996,2.04-.5996.5918,0,1.3438.0801,2.2559.2393l.4321.084-.1318,1.3086c-1.1284-.1279-1.9243-.1924-2.3882-.1924-.8721,0-1.3081.2881-1.3081.8643,0,.2559.1079.4521.3242.5879.2158.1367.7217.332,1.5181.5879.7959.2559,1.354.5459,1.6738.8701s.48.8223.48,1.4941c0,.8564-.2603,1.5039-.7798,1.9443ZM85.6693,63.8604h-3.6235v1.9082h2.9038v1.415h-2.9038v1.9561h3.6235v1.4404h-5.2793v-8.1602h5.2793v1.4404ZM93.0521,70.5801h-1.8115l-.9482-2.7363h-1.5957v2.7363h-1.6562v-8.1602h3.168c1.9199,0,2.8799.8965,2.8799,2.6885,0,1.0635-.4004,1.8477-1.2002,2.3516l1.1641,3.1201ZM98.6302,70.5801h-3.0596l-1.8965-8.1602h1.7402l1.416,6.7197h.54l1.416-6.7197h1.7402l-1.8965,8.1602ZM106.886,63.8604h-3.624v1.9082h2.9043v1.415h-2.9043v1.9561h3.624v1.4404h-5.2793v-8.1602h5.2793v1.4404ZM114.2659,70.5801h-1.8115l-.9482-2.7363h-1.5957v2.7363h-1.6562v-8.1602h3.168c1.9199,0,2.8799.8965,2.8799,2.6885,0,1.0635-.4004,1.8477-1.2002,2.3516l1.1641,3.1201ZM124.8743,70.5801h-2.7246l-2.04-6.7197h-.1201v6.7197h-1.6553v-8.1602h2.7959l1.9678,6.7197h.1201v-6.7197h1.6562v8.1602ZM132.2962,69.71c-.5088.6758-1.3828,1.0137-2.6221,1.0137-1.2402,0-2.1143-.3379-2.6221-1.0137-.5088-.6758-.7627-1.7334-.7627-3.1738s.2539-2.5098.7627-3.21c.5078-.7002,1.3818-1.0498,2.6221-1.0498,1.2393,0,2.1133.3496,2.6221,1.0498.5078.7002.7617,1.7695.7617,3.21s-.2539,2.498-.7617,3.1738ZM142.9583,70.5801h-2.5088l-1.2832-6.2041-1.2842,6.2041h-2.5078l-1.5605-8.1602h1.7402l1.0078,6.7441h.1797l1.4648-6.7441h1.9199l1.4639,6.7441h.1797l1.0078-6.7441h1.7402l-1.5596,8.1602Z"/><path class="b" d="M51.1346,63.7158c-.6401,0-1.0801.2246-1.3203.6719-.2397.4482-.3599,1.166-.3599,2.1543s.1182,1.6924.354,2.1123.6782.6299,1.3262.6299,1.0898-.21,1.3257-.6299.354-1.124.354-2.1123-.1196-1.7061-.3599-2.1543c-.2397-.4473-.6802-.6719-1.3198-.6719Z"/></svg>