<svg id="Layer_1" data-name="Layer 1" xmlns="http://www.w3.org/2000/svg" viewBox="0 0 1363.79 752.31"><path d="M79.1,218.5l-48.3-132v132H0V1.62H29.17l48,131.49V1.62H108V218.5Z"/><path d="M128.7,218.5V1.62h30.79V218.5Z"/><path d="M211.36,218.5v-188H175.05V1.62H279.11V30.47h-37v188Z"/><path d="M294,218.5V1.62h54.14q21.39,0,36,15T398.73,53V73.14q0,29.89-25.24,45.83l32.7,99.53H373.57l-29.3-93H324.81v93ZM362.75,91.39a20.76,20.76,0,0,0,4.05-8.15,42.13,42.13,0,0,0,1.13-10.1V53q0-10.1-5.51-16.29t-15.56-6.19H324.81V98.23h21.73A21.43,21.43,0,0,0,362.75,91.39Z"/><path d="M411.37,218.5,456.57,1.62h30L534.88,218.5H501.66L493,171.81H453l-8.7,46.69ZM458.06,143h29.18l-14.6-77.11Z"/><path d="M593.23,1.62q20.74,0,35.82,14.8T644.13,52V164.84q0,23.41-14.43,38.54T592.26,218.5h-48V1.62Zm20.09,163.29V52a19.73,19.73,0,0,0-6.52-15.13,22.51,22.51,0,0,0-15.79-6H575.07V189.65h15Q613.33,189.65,613.32,164.91Z"/><path d="M669.73,22.37A53.91,53.91,0,0,1,688.53,6,50,50,0,0,1,712.2,0a53.18,53.18,0,0,1,22.53,4.86A50.67,50.67,0,0,1,761.8,35.34a67,67,0,0,1,2.59,19.12V164.68a72.62,72.62,0,0,1-1.78,17Q760.83,189,755,198.08t-17.18,15.55a48.8,48.8,0,0,1-24.64,6.49,52.94,52.94,0,0,1-28-7.79q-12.81-7.77-17.83-17.67t-6-15.88a89,89,0,0,1-1-14.1V54.46a63.21,63.21,0,0,1,2.11-17.18A49.88,49.88,0,0,1,669.73,22.37Zm60,17.18q-6.5-8.74-16.86-8.75A21.57,21.57,0,0,0,702,33.88q-5.36,3.07-7.46,6.81a23.18,23.18,0,0,0-2.76,7.61,40,40,0,0,0-.65,6.49V165a58.81,58.81,0,0,0,.49,7.13c.32,2.59,2,6.11,5.19,10.53s8.48,6.65,16.05,6.65a20.48,20.48,0,0,0,10.53-2.75,18.63,18.63,0,0,0,6.82-6.33,22.4,22.4,0,0,0,2.74-6.8,44.49,44.49,0,0,0,.66-8.43V54.79a57.43,57.43,0,0,0-.49-9.08A15,15,0,0,0,729.71,39.55Z"/><polygon points="198.71 278.63 563.41 278.63 381.06 436.96 198.71 278.63"/><path d="M1021.71,180V167.2h21.19V205a163.67,163.67,0,0,1-24.83,2.46q-17,0-23.38-9.09t-6.36-28.89q0-19.8,6.63-28.57t22.58-8.78a112.9,112.9,0,0,1,21.5,2.25l3.86.75-.43,11.45a202.2,202.2,0,0,0-21-1.39q-8.18,0-11.5,1.92c-2.21,1.29-3.84,3.66-4.87,7.12s-1.55,9.38-1.55,17.76,1,14.25,3.1,17.6,6.35,5,12.84,5l8.88-.43V180Z"/><path d="M1056.91,206.15l16.37-72.76h28l16.37,72.76h-14.77L1100,193h-25.46l-2.89,13.16Zm27.82-60.56-7.38,34.56h19.9l-7.38-34.56Z"/><path d="M1133.63,206.15V133.39h25.14l12.84,53.07,12.84-53.07h25.15v72.76h-14.77V149.87h-1.6L1179,202.94h-14.77L1150,149.87h-1.6v56.28Z"/><path d="M1231.64,206.15V133.39h47.08v12.84h-32.31v17h25.89v12.63h-25.89v17.44h32.31v12.84Z"/><path d="M929.58,245.05q-11.66,0-11.66,7.7a5.84,5.84,0,0,0,2.89,5.25q2.88,1.81,13.53,5.24T949.27,271c2.85,2.88,4.28,7.33,4.28,13.32q0,11.44-6.95,17.33t-18.2,5.89A101.35,101.35,0,0,1,908,305l-3.85-.75,1.5-11.45a178.82,178.82,0,0,0,21.93,1.93q11.34,0,11.34-9.42a6.26,6.26,0,0,0-2.62-5.35c-1.75-1.28-5.23-2.68-10.43-4.17q-12.42-3.54-17.5-8.4t-5.08-13.54q0-10.9,6.63-16.26t18.19-5.35a120.51,120.51,0,0,1,20.12,2.14l3.85.75-1.17,11.66Q935.79,245.05,929.58,245.05Z"/><path d="M971.63,306.25V233.49h47.08v12.84H986.4v17h25.89V276H986.4v17.44h32.31v12.84Z"/><path d="M1051.88,281.86v24.39h-14.76V233.49h28.24q25.68,0,25.68,24,0,14.24-10.7,21l10.38,27.82h-16.16l-8.45-24.39ZM1073.39,266a13.14,13.14,0,0,0,2.57-8.45,12.19,12.19,0,0,0-2.73-8.35q-2.73-3.1-7.87-3.1h-13.48v23.11h13.7C1069.07,269.23,1071.68,268.16,1073.39,266Z"/><path d="M1148.07,233.49h15.52l-16.91,72.76H1119.4l-16.91-72.76H1118l12.62,59.92h4.82Z"/><path d="M1179.43,306.25V233.49h47.08v12.84h-32.32v17h25.9V276h-25.9v17.44h32.32v12.84Z"/><path d="M1259.67,281.86v24.39h-14.76V233.49h28.25q25.68,0,25.68,24,0,14.24-10.7,21l10.38,27.82h-16.16l-8.46-24.39ZM1281.18,266a13.14,13.14,0,0,0,2.57-8.45,12.19,12.19,0,0,0-2.73-8.35q-2.73-3.1-7.86-3.1h-13.49v23.11h13.7C1276.86,269.23,1279.47,268.16,1281.18,266Z"/><path d="M1339.82,245.05q-11.67,0-11.67,7.7A5.86,5.86,0,0,0,1331,258q2.89,1.81,13.54,5.24T1359.5,271c2.86,2.88,4.29,7.33,4.29,13.32q0,11.44-7,17.33t-18.19,5.89A101.44,101.44,0,0,1,1318.2,305l-3.85-.75,1.5-11.45a179.14,179.14,0,0,0,21.93,1.93q11.34,0,11.35-9.42a6.26,6.26,0,0,0-2.63-5.35c-1.74-1.28-5.22-2.68-10.43-4.17q-12.4-3.54-17.49-8.4t-5.09-13.54q0-10.9,6.64-16.26t18.19-5.35a120.61,120.61,0,0,1,20.12,2.14l3.85.75-1.18,11.66Q1346,245.05,1339.82,245.05Z"/><path d="M1207.44,752.3H156.35V572.79H1207.44Zm-1045.09-6H1201.44V578.79H162.35Z"/><path d="M300.48,668.16v-8.28h13.66v24.35a105.07,105.07,0,0,1-16,1.59q-11,0-15.08-5.86T279,661.33q0-12.76,4.28-18.43t14.56-5.65a73.39,73.39,0,0,1,13.87,1.44l2.48.49-.27,7.38a130.46,130.46,0,0,0-13.56-.9q-5.28,0-7.42,1.25a7.46,7.46,0,0,0-3.14,4.58c-.66,2.24-1,6-1,11.46s.67,9.19,2,11.35,4.1,3.24,8.28,3.24l5.73-.27v-9.11Z"/><path d="M327.12,685V638.07h30.36v8.28H336.64v11h16.7v8.15h-16.7v11.24h20.84V685Z"/><path d="M365.13,646.49v-8.42h34.5v8.42H387.21V685h-9.52v-38.5Z"/><path d="M447.72,685H438.2V666l-14.49-27.95h10.56l8.62,18.7,8.63-18.7h10.56L447.72,666Z"/><path d="M501.79,680q-4.4,5.84-15.08,5.83T471.63,680q-4.38-5.84-4.38-18.25t4.38-18.46q4.38-6,15.08-6t15.08,6q4.38,6,4.38,18.46T501.79,680Zm-22.71-6.07q2,3.62,7.63,3.62t7.62-3.62c1.36-2.42,2-6.46,2-12.15s-.69-9.8-2.07-12.38-3.91-3.86-7.59-3.86-6.21,1.28-7.59,3.86-2.07,6.7-2.07,12.38S477.73,671.5,479.08,673.92Z"/><path d="M527.42,669.33q0,8.2,8.35,8.21t8.35-8.21V638.07h9.52v31q0,8.63-4.45,12.66t-13.42,4q-9,0-13.42-4t-4.45-12.66v-31h9.52Z"/><path d="M577,669.26V685h-9.52V638.07h18.21q16.56,0,16.56,15.46,0,9.18-6.9,13.52L602,685H591.59l-5.45-15.73Zm13.87-10.21a8.5,8.5,0,0,0,1.66-5.45,7.85,7.85,0,0,0-1.76-5.38,6.4,6.4,0,0,0-5.08-2H577v14.91h8.83A6.06,6.06,0,0,0,590.83,659.05Z"/><path d="M647.82,645.53q-7.52,0-7.52,5a3.75,3.75,0,0,0,1.86,3.38c1.25.79,4.15,1.91,8.73,3.38s7.79,3.14,9.63,5,2.76,4.72,2.76,8.59q0,7.38-4.49,11.18t-11.73,3.79a65.51,65.51,0,0,1-13.18-1.65l-2.48-.49,1-7.38a114.2,114.2,0,0,0,14.14,1.24q7.31,0,7.31-6.07a4,4,0,0,0-1.69-3.45c-1.12-.83-3.37-1.73-6.72-2.69q-8-2.28-11.29-5.42t-3.27-8.73q0-7,4.28-10.48t11.72-3.45a78.93,78.93,0,0,1,13,1.37l2.48.49-.76,7.52Q651.83,645.52,647.82,645.53Z"/><path d="M674.94,685V638.07H705.3v8.28H684.46v11h16.7v8.15h-16.7v11.24H705.3V685Z"/><path d="M726.69,669.26V685h-9.52V638.07h18.21q16.56,0,16.56,15.46,0,9.18-6.9,13.52L751.73,685H741.31l-5.45-15.73Zm13.87-10.21a8.49,8.49,0,0,0,1.65-5.45,7.8,7.8,0,0,0-1.76-5.38,6.37,6.37,0,0,0-5.07-2h-8.69v14.91h8.83A6.08,6.08,0,0,0,740.56,659.05Z"/><path d="M788.72,638.07h10L787.82,685H770.23l-10.91-46.92h10l8.14,38.64h3.11Z"/><path d="M808.94,685V638.07H839.3v8.28H818.46v11h16.7v8.15h-16.7v11.24H839.3V685Z"/><path d="M860.68,669.26V685h-9.52V638.07h18.22q16.56,0,16.56,15.46,0,9.18-6.9,13.52L885.73,685H875.31l-5.45-15.73Zm13.87-10.21a8.44,8.44,0,0,0,1.66-5.45,7.85,7.85,0,0,0-1.76-5.38,6.37,6.37,0,0,0-5.07-2h-8.7v14.91h8.84A6,6,0,0,0,874.55,659.05Z"/><path d="M917.13,685V638.07H933.2l11.32,38.64h.69V638.07h9.52V685H939.07l-11.73-38.64h-.69V685Z"/><path d="M1001.41,680q-4.38,5.84-15.08,5.83T971.26,680q-4.39-5.84-4.39-18.25t4.39-18.46q4.38-6,15.07-6t15.08,6q4.38,6,4.38,18.46T1001.41,680Zm-22.7-6.07q2,3.62,7.62,3.62t7.63-3.62c1.35-2.42,2-6.46,2-12.15s-.69-9.8-2.07-12.38-3.91-3.86-7.59-3.86-6.21,1.28-7.59,3.86-2.07,6.7-2.07,12.38S977.35,671.5,978.71,673.92Z"/><path d="M1014.14,638.07h10l5.8,38.78h1l8.42-38.78h11l8.42,38.78h1l5.8-38.78h10l-9,46.92H1052.3l-7.39-35.67L1037.53,685h-14.42Z"/></svg>