<svg xmlns="http://www.w3.org/2000/svg" viewBox="0 0 1614.53 752.3"><defs><style>.a{fill:#333;}</style></defs><title>nitrado</title><path class="a" d="M293.48,447.13l-48.3-132v132h-30.8V230.26h29.18l48,131.49V230.26h30.8V447.13Z" transform="translate(-214.38 -228.63)"/><path class="a" d="M343.08,447.13V230.26h30.79V447.13Z" transform="translate(-214.38 -228.63)"/><path class="a" d="M425.74,447.13v-188H389.43V230.26H493.49v28.85H456.54v188Z" transform="translate(-214.38 -228.63)"/><path class="a" d="M508.4,447.13V230.26h54.14q21.39,0,36,15t14.59,36.41v20.15q0,29.91-25.24,45.84l32.7,99.52H588l-29.3-93H539.2v93ZM577.13,320a20.72,20.72,0,0,0,4-8.14,42.13,42.13,0,0,0,1.13-10.1v-20.2q0-10.09-5.51-16.28t-15.56-6.19h-22v67.75h21.72A21.43,21.43,0,0,0,577.13,320Z" transform="translate(-214.38 -228.63)"/><path class="a" d="M625.75,447.13,671,230.26h30l48.3,216.87H716.05l-8.71-46.68h-40l-8.7,46.68Zm46.7-75.53h29.17L687,294.48Z" transform="translate(-214.38 -228.63)"/><path class="a" d="M807.61,230.26q20.75,0,35.82,14.79t15.08,35.6V393.47q0,23.43-14.43,38.54t-37.44,15.12h-48V230.26Zm20.1,163.28v-113a19.7,19.7,0,0,0-6.53-15.13,22.46,22.46,0,0,0-15.79-6H789.46V418.28h15Q827.71,418.28,827.71,393.54Z" transform="translate(-214.38 -228.63)"/><path class="a" d="M884.11,251a54,54,0,0,1,18.8-16.37,50.13,50.13,0,0,1,23.67-6,53.23,53.23,0,0,1,22.54,4.87A50.71,50.71,0,0,1,976.18,264a67,67,0,0,1,2.59,19.12V393.32a72.59,72.59,0,0,1-1.78,17q-1.79,7.31-7.61,16.38t-17.19,15.56a48.86,48.86,0,0,1-24.64,6.48,53,53,0,0,1-28-7.78q-12.81-7.77-17.82-17.67t-6-15.88a90.31,90.31,0,0,1-1-14.1V283.09a63.21,63.21,0,0,1,2.11-17.18A50.11,50.11,0,0,1,884.11,251Zm60,17.18q-6.5-8.74-16.86-8.75a21.57,21.57,0,0,0-10.86,3.08q-5.36,3.09-7.46,6.81a23.46,23.46,0,0,0-2.76,7.62,40.78,40.78,0,0,0-.64,6.48V393.64a56.73,56.73,0,0,0,.49,7.13q.48,3.9,5.18,10.54T927.23,418a20.48,20.48,0,0,0,10.53-2.75,18.45,18.45,0,0,0,6.82-6.32,22,22,0,0,0,2.74-6.81,43.68,43.68,0,0,0,.66-8.43V283.42a57.52,57.52,0,0,0-.49-9.08A15,15,0,0,0,944.09,268.18Z" transform="translate(-214.38 -228.63)"/><polygon class="a" points="198.71 278.63 563.41 278.63 381.06 436.96 198.71 278.63"/><path class="a" d="M1102.19,413.78V392.06h-19.48v21.72h-10.63V361.42h10.63v21.4h19.48v-21.4h10.62v52.36Z" transform="translate(-214.38 -228.63)"/><path class="a" d="M1128.67,413.78V361.42h10.63v52.36Z" transform="translate(-214.38 -228.63)"/><path class="a" d="M1177,395v-9.24h15.25v27.18a117.73,117.73,0,0,1-17.87,1.77q-12.24,0-16.82-6.55t-4.58-20.79q0-14.24,4.77-20.55t16.25-6.32a81.36,81.36,0,0,1,15.48,1.62l2.77.54-.31,8.24a145.21,145.21,0,0,0-15.13-1q-5.9,0-8.28,1.38a8.33,8.33,0,0,0-3.5,5.12q-1.12,3.74-1.12,12.78t2.24,12.67q2.22,3.62,9.24,3.62l6.39-.31V395Z" transform="translate(-214.38 -228.63)"/><path class="a" d="M1236.78,413.78V392.06H1217.3v21.72h-10.63V361.42h10.63v21.4h19.48v-21.4h10.63v52.36Z" transform="translate(-214.38 -228.63)"/><path class="a" d="M1261.88,398V388.6h22.79V398Z" transform="translate(-214.38 -228.63)"/><path class="a" d="M1299.15,413.78V361.42H1333v9.24h-23.25V382.9h18.63V392h-18.63v12.56H1333v9.24Z" transform="translate(-214.38 -228.63)"/><path class="a" d="M1346.27,413.78V361.42h17.94l12.63,43.12h.77V361.42h10.63v52.36h-17.48l-13.09-43.12h-.77v43.12Z" transform="translate(-214.38 -228.63)"/><path class="a" d="M1421.73,413.78H1404.1V361.42h17.63a36.85,36.85,0,0,1,11.17,1.42,13.35,13.35,0,0,1,6.81,4.7,19.28,19.28,0,0,1,3.35,7.7,58,58,0,0,1,.92,11.51,67.93,67.93,0,0,1-.84,11.74,22.77,22.77,0,0,1-3.2,8.32,13.27,13.27,0,0,1-6.81,5.31A33.34,33.34,0,0,1,1421.73,413.78ZM1432.9,393q.15-2.48.15-6.82a61.31,61.31,0,0,0-.31-7,13.22,13.22,0,0,0-1.46-4.77,6.08,6.08,0,0,0-3.43-3,18.73,18.73,0,0,0-6.12-.8h-7v33.88h7q5.77,0,8.39-2.93C1431.61,400,1432.54,397.14,1432.9,393Z" transform="translate(-214.38 -228.63)"/><path class="a" d="M1498.35,398.53h-8.63v15.25H1479.1V361.42h19.25q18.63,0,18.63,18.17,0,9.17-4.74,14.05T1498.35,398.53Zm-8.63-9.09h8.55q7.92,0,7.93-9.85,0-4.86-1.93-7t-6-2.12h-8.55Z" transform="translate(-214.38 -228.63)"/><path class="a" d="M1539.54,396.22v17.56h-10.63V361.42h20.33q18.48,0,18.48,17.24,0,10.24-7.7,15.1l7.47,20h-11.63l-6.08-17.56Zm15.48-11.4a9.44,9.44,0,0,0,1.85-6.08,8.79,8.79,0,0,0-2-6,7.16,7.16,0,0,0-5.66-2.23h-9.7v16.63h9.85A6.77,6.77,0,0,0,1555,384.82Z" transform="translate(-214.38 -228.63)"/><path class="a" d="M1581.12,413.78V361.42H1615v9.24h-23.26V382.9h18.64V392h-18.64v12.56H1615v9.24Z" transform="translate(-214.38 -228.63)"/><path class="a" d="M1647.49,398.53h-8.62v15.25h-10.63V361.42h19.25q18.63,0,18.63,18.17,0,9.17-4.73,14.05T1647.49,398.53Zm-8.62-9.09h8.54q7.93,0,7.94-9.85c0-3.24-.65-5.56-1.93-7s-3.29-2.12-6-2.12h-8.54Z" transform="translate(-214.38 -228.63)"/><path class="a" d="M1672.21,413.78,1684,361.42h20.17l11.78,52.36h-10.62l-2.08-9.48h-18.33l-2.08,9.48Zm20-43.59-5.32,24.87h14.33l-5.32-24.87Z" transform="translate(-214.38 -228.63)"/><path class="a" d="M1727.42,413.78V361.42H1738v52.36Z" transform="translate(-214.38 -228.63)"/><path class="a" d="M1771.54,413.78H1753.9V361.42h17.64a36.78,36.78,0,0,1,11.16,1.42,13.34,13.34,0,0,1,6.82,4.7,19.56,19.56,0,0,1,3.35,7.7,58.74,58.74,0,0,1,.92,11.51,66.83,66.83,0,0,1-.85,11.74,22.76,22.76,0,0,1-3.19,8.32,13.3,13.3,0,0,1-6.82,5.31A33.24,33.24,0,0,1,1771.54,413.78ZM1782.7,393c.1-1.65.16-3.92.16-6.82a63.75,63.75,0,0,0-.31-7,13.23,13.23,0,0,0-1.47-4.77,6.09,6.09,0,0,0-3.42-3,18.82,18.82,0,0,0-6.12-.8h-7v33.88h7c3.85,0,6.64-1,8.39-2.93C1781.42,400,1782.34,397.14,1782.7,393Z" transform="translate(-214.38 -228.63)"/><path class="a" d="M1067.19,487.89V475.05h21.19v37.77a163.67,163.67,0,0,1-24.83,2.46q-17,0-23.38-9.09t-6.36-28.89q0-19.8,6.63-28.57T1063,440a113.84,113.84,0,0,1,21.51,2.24l3.85.75L1088,454.4a202.2,202.2,0,0,0-21-1.39q-8.18,0-11.5,1.93t-4.87,7.11q-1.54,5.19-1.55,17.76t3.1,17.61q3.11,5,12.84,5l8.88-.42V487.89Z" transform="translate(-214.38 -228.63)"/><path class="a" d="M1102.39,514l16.37-72.76h28L1163.17,514H1148.4l-2.89-13.16h-25.46L1117.16,514Zm27.82-60.56L1122.83,488h19.9l-7.38-34.56Z" transform="translate(-214.38 -228.63)"/><path class="a" d="M1179.11,514V441.24h25.15l12.84,53.07,12.84-53.07h25.14V514h-14.77V457.72h-1.6l-14.23,53.07h-14.77l-14.23-53.07h-1.6V514Z" transform="translate(-214.38 -228.63)"/><path class="a" d="M1277.12,514V441.24h47.08v12.84h-32.31v17h25.89v12.63h-25.89v17.44h32.31V514Z" transform="translate(-214.38 -228.63)"/><path class="a" d="M1394.71,452.8q-11.65,0-11.66,7.7a5.82,5.82,0,0,0,2.89,5.24q2.88,1.83,13.53,5.25t14.93,7.75q4.27,4.33,4.28,13.33,0,11.44-7,17.33t-18.19,5.88a101.25,101.25,0,0,1-20.43-2.56l-3.85-.75,1.49-11.45a178.68,178.68,0,0,0,21.94,1.92q11.34,0,11.34-9.41a6.26,6.26,0,0,0-2.62-5.35q-2.62-1.94-10.43-4.18-12.42-3.53-17.5-8.39t-5.08-13.54q0-10.92,6.63-16.26t18.19-5.35a120.51,120.51,0,0,1,20.12,2.14l3.85.74L1416,454.51Q1400.93,452.8,1394.71,452.8Z" transform="translate(-214.38 -228.63)"/><path class="a" d="M1436.76,514V441.24h47.08v12.84h-32.31v17h25.89v12.63h-25.89v17.44h32.31V514Z" transform="translate(-214.38 -228.63)"/><path class="a" d="M1517,489.6V514h-14.77V441.24h28.25q25.68,0,25.68,24,0,14.24-10.7,21L1555.85,514h-16.16l-8.45-24.4Zm21.51-15.83a13.14,13.14,0,0,0,2.56-8.45,12.18,12.18,0,0,0-2.72-8.35q-2.73-3.11-7.87-3.1H1517V477h13.7Q1535.95,477,1538.52,473.77Z" transform="translate(-214.38 -228.63)"/><path class="a" d="M1613.2,441.24h15.52L1611.81,514h-27.28l-16.91-72.76h15.52l12.62,59.92h4.82Z" transform="translate(-214.38 -228.63)"/><path class="a" d="M1644.55,514V441.24h47.08v12.84h-32.31v17h25.89v12.63h-25.89v17.44h32.31V514Z" transform="translate(-214.38 -228.63)"/><path class="a" d="M1724.8,489.6V514H1710V441.24h28.25q25.67,0,25.67,24,0,14.24-10.69,21L1763.64,514h-16.15L1739,489.6Zm21.51-15.83a13.14,13.14,0,0,0,2.57-8.45,12.19,12.19,0,0,0-2.73-8.35q-2.73-3.11-7.86-3.1H1724.8V477h13.7C1742,477,1744.6,475.91,1746.31,473.77Z" transform="translate(-214.38 -228.63)"/><path class="a" d="M1805,452.8q-11.67,0-11.67,7.7a5.84,5.84,0,0,0,2.89,5.24q2.89,1.83,13.54,5.25t14.92,7.75q4.29,4.33,4.28,13.33,0,11.44-7,17.33t-18.19,5.88a101.33,101.33,0,0,1-20.44-2.56l-3.85-.75,1.5-11.45a178.7,178.7,0,0,0,21.93,1.92q11.34,0,11.34-9.41a6.26,6.26,0,0,0-2.62-5.35q-2.62-1.94-10.43-4.18-12.42-3.53-17.49-8.39t-5.09-13.54q0-10.92,6.64-16.26t18.19-5.35a120.4,120.4,0,0,1,20.11,2.14l3.86.74-1.18,11.67Q1811.15,452.8,1805,452.8Z" transform="translate(-214.38 -228.63)"/><path class="a" d="M1544.58,980.94H493.49V801.42H1544.58Zm-1045.09-6H1538.58V807.42H499.49Z" transform="translate(-214.38 -228.63)"/><path class="a" d="M637.62,896.79v-8.28h13.67v24.36a105.3,105.3,0,0,1-16,1.59q-11,0-15.08-5.87T616.1,890q0-12.76,4.27-18.42t14.56-5.66a72.63,72.63,0,0,1,13.87,1.45l2.49.48-.28,7.38a132.87,132.87,0,0,0-13.56-.89q-5.28,0-7.42,1.24a7.46,7.46,0,0,0-3.13,4.59q-1,3.35-1,11.45t2,11.35q2,3.24,8.28,3.24l5.72-.27v-9.11Z" transform="translate(-214.38 -228.63)"/><path class="a" d="M664.26,913.63V866.71h30.36V875H673.78v11h16.7v8.14h-16.7v11.25h20.84v8.28Z" transform="translate(-214.38 -228.63)"/><path class="a" d="M702.28,875.12v-8.41h34.5v8.41H724.36v38.51h-9.53V875.12Z" transform="translate(-214.38 -228.63)"/><path class="a" d="M784.87,913.63h-9.52v-19l-14.5-27.94h10.56l8.63,18.7,8.62-18.7h10.56l-14.35,27.94Z" transform="translate(-214.38 -228.63)"/><path class="a" d="M838.93,908.62q-4.38,5.83-15.08,5.84t-15.08-5.84q-4.38-5.82-4.38-18.25t4.38-18.45q4.4-6,15.08-6t15.08,6q4.38,6,4.38,18.45T838.93,908.62Zm-22.7-6.07c1.35,2.42,3.9,3.62,7.62,3.62s6.27-1.2,7.63-3.62,2-6.46,2-12.14-.69-9.81-2.07-12.39-3.91-3.86-7.59-3.86-6.21,1.29-7.59,3.86-2.07,6.71-2.07,12.39S814.87,900.14,816.23,902.55Z" transform="translate(-214.38 -228.63)"/><path class="a" d="M864.56,898q0,8.22,8.35,8.21t8.35-8.21V866.71h9.52v31q0,8.63-4.45,12.66t-13.42,4q-9,0-13.42-4T855,897.76v-31h9.52Z" transform="translate(-214.38 -228.63)"/><path class="a" d="M914.1,897.89v15.74h-9.52V866.71H922.8q16.56,0,16.56,15.45,0,9.18-6.9,13.53l6.69,17.94H928.73l-5.45-15.74ZM928,887.68a8.42,8.42,0,0,0,1.66-5.45,7.87,7.87,0,0,0-1.76-5.38,6.41,6.41,0,0,0-5.07-2h-8.7v14.9h8.83A6.06,6.06,0,0,0,928,887.68Z" transform="translate(-214.38 -228.63)"/><path class="a" d="M985,874.16q-7.51,0-7.52,5a3.75,3.75,0,0,0,1.87,3.38q1.86,1.17,8.72,3.38t9.63,5c1.84,1.86,2.76,4.73,2.76,8.59q0,7.38-4.49,11.18t-11.73,3.8A65.53,65.53,0,0,1,971,912.8l-2.49-.48,1-7.39a114.35,114.35,0,0,0,14.14,1.24q7.32,0,7.32-6.07a4.06,4.06,0,0,0-1.69-3.45,24.35,24.35,0,0,0-6.73-2.69q-8-2.28-11.28-5.41T968,879.82q0-7.05,4.28-10.49T984,865.88a77.92,77.92,0,0,1,13,1.38l2.48.48-.76,7.52Q989,874.17,985,874.16Z" transform="translate(-214.38 -228.63)"/><path class="a" d="M1012.08,913.63V866.71h30.36V875H1021.6v11h16.7v8.14h-16.7v11.25h20.84v8.28Z" transform="translate(-214.38 -228.63)"/><path class="a" d="M1063.83,897.89v15.74h-9.52V866.71h18.21q16.56,0,16.56,15.45,0,9.18-6.9,13.53l6.7,17.94h-10.42L1073,897.89Zm13.87-10.21a8.47,8.47,0,0,0,1.65-5.45,7.82,7.82,0,0,0-1.76-5.38,6.4,6.4,0,0,0-5.07-2h-8.69v14.9h8.83A6.08,6.08,0,0,0,1077.7,887.68Z" transform="translate(-214.38 -228.63)"/><path class="a" d="M1125.86,866.71h10L1125,913.63h-17.59l-10.9-46.92h10l8.14,38.64h3.11Z" transform="translate(-214.38 -228.63)"/><path class="a" d="M1146.08,913.63V866.71h30.36V875H1155.6v11h16.7v8.14h-16.7v11.25h20.84v8.28Z" transform="translate(-214.38 -228.63)"/><path class="a" d="M1197.83,897.89v15.74h-9.53V866.71h18.22q16.56,0,16.56,15.45,0,9.18-6.9,13.53l6.69,17.94h-10.42L1207,897.89Zm13.87-10.21a8.47,8.47,0,0,0,1.65-5.45,7.87,7.87,0,0,0-1.76-5.38,6.4,6.4,0,0,0-5.07-2h-8.69v14.9h8.83A6.08,6.08,0,0,0,1211.7,887.68Z" transform="translate(-214.38 -228.63)"/><path class="a" d="M1254.27,913.63V866.71h16.07l11.32,38.64h.69V866.71h9.52v46.92h-15.66L1264.48,875h-.69v38.64Z" transform="translate(-214.38 -228.63)"/><path class="a" d="M1338.55,908.62q-4.38,5.83-15.08,5.84t-15.07-5.84q-4.38-5.82-4.38-18.25t4.38-18.45q4.38-6,15.07-6t15.08,6q4.38,6,4.38,18.45T1338.55,908.62Zm-22.7-6.07c1.36,2.42,3.9,3.62,7.62,3.62s6.27-1.2,7.63-3.62,2-6.46,2-12.14-.69-9.81-2.07-12.39-3.91-3.86-7.59-3.86-6.21,1.29-7.59,3.86-2.07,6.71-2.07,12.39S1314.49,900.14,1315.85,902.55Z" transform="translate(-214.38 -228.63)"/><path class="a" d="M1351.28,866.71h10l5.79,38.78h1l8.42-38.78h11l8.41,38.78h1l5.79-38.78h10l-9,46.92h-14.42L1382.05,878l-7.38,35.68h-14.42Z" transform="translate(-214.38 -228.63)"/></svg>