<?xml version="1.0" encoding="UTF-8"?><svg id="l" xmlns="http://www.w3.org/2000/svg" viewBox="0 0 72 45"><defs><style>.m{fill:#f90;}.m,.n,.o{stroke-width:0px;}.m,.o{fill-rule:evenodd;}.n{fill:#333e48;}.o{fill:#fff;}</style></defs><rect class="n" width="72" height="45" rx="6" ry="6"/><path class="m" d="M56.195034,30.492312c-5.474212,4.040158-13.410523,6.188241-20.244789,6.188241-9.578372,0-18.202709-3.540139-24.728965-9.434366-.51202-.464019-.056002-1.094044.560022-.736029,7.040274,4.098159,15.750615,6.566258,24.744965,6.566258,6.066238,0,12.736496-1.260047,18.872737-3.864149.926035-.392014,1.702066.610024.796029,1.280045Z"/><path class="m" d="M58.473122,27.890209c-.700028-.896035-4.628179-.424016-6.392247-.21201-.534021.064002-.618024-.404015-.136007-.740031,3.134121-2.202085,8.26832-1.568062,8.864344-.830034.600022.74203-.158007,5.892228-3.09212,8.348325-.454016.376014-.884033.176006-.682026-.322011.660026-1.652065,2.140083-5.346209,1.440055-6.244243l-.001999.000004Z"/><path class="o" d="M44.076561,26.874171v-.934035c0-.266009.130006-.450018.408017-.432016.518022.072001,1.24805.146006,1.76807.040002.680027-.142004,1.166046-.624025,1.454055-1.282051.404015-.928038.674026-1.676064.842032-2.166085l-5.148199-12.7605c-.086002-.218009-.112004-.620025.320012-.620025h1.800069c.344015,0,.48402.220008.560023.432016l3.734147,10.364404,3.566141-10.364404c.072001-.212008.22001-.432016.560023-.432016h1.696065c.430017,0,.406014.402016.320012.620025l-5.108197,13.158514c-.660026,1.752067-1.54206,4.540178-3.526138,5.026197-.994038.260008-2.250088.164008-2.986116-.144007-.186008-.094005-.258009-.342012-.258009-.50602h-.002007ZM41.674467,21.535962c-.001095.238142-.193874.430921-.432016.432016h-1.27005c-.251112.002998-.464519-.182868-.496018-.432016l-.128003-.864032c-.584022.494019-1.30005.928038-2.076081,1.230047-1.494058.580024-3.216125.676025-4.674182-.22001-1.056041-.648024-1.616062-1.914074-1.616062-3.220125,0-1.01004.312012-2.012078,1.000039-2.740107.922037-.994038,2.258087-1.480057,3.870152-1.480057.974037,0,2.368092.114005,3.382132.446017v-1.740068c0-1.768069-.744028-2.534099-2.708106-2.534099-1.500058,0-2.648104.226009-4.246166.724029-.25601.008-.404015-.186008-.404015-.424016v-.992039c0-.23801.202008-.468019.422017-.538021,1.140044-.498019,2.758109-.808032,4.476174-.864034,2.240089,0,4.900193.504019,4.900193,3.950155,0,0,0,9.26636-.000008,9.26636ZM39.234373,18.995862v-2.622102c-.852034-.234008-2.262089-.330013-2.808108-.330013-.862033,0-1.80607.204008-2.300089.734028-.368014.390015-.534021.948037-.534021,1.488059,0,.700028.240009,1.400054.806031,1.744067.654025.446017,1.672066.392014,2.628101.120006.918035-.26001,1.780068-.720027,2.208086-1.132044v-.002001ZM22.953738,10.453529c2.81611,0,3.584139,2.214087,3.584139,4.752184.016001,1.708067-.300011,3.234125-1.184046,4.106159-.664025.654025-1.404054.832033-2.518098.832033-.992039,0-2.296089-.51802-3.270128-1.238049v-7.252283c1.014039-.780031,2.308091-1.200048,3.388133-1.200044ZM19.13359,27.328187h-1.700066c-.238922.000004-.432916-.193096-.434018-.432016V9.175481c0-.23801.194008-.432016.432017-.432016h1.302051c.27401,0,.460018.198008.496019.432016l.136005.928036c1.220047-1.082043,2.790108-1.77607,4.286166-1.77607,4.188163,0,5.566217,3.452134,5.566217,7.040275,0,3.84015-2.108082,6.926269-5.670221,6.926269-1.500058,0-2.904113-.554022-3.982156-1.516058v6.120237c-.002186.23736-.194649.428934-.432014.430017Z"/></svg>