<?xml version="1.0" encoding="UTF-8"?><svg id="l" xmlns="http://www.w3.org/2000/svg" viewBox="0 0 72 45"><defs><style>.m{fill:#000;}.m,.n{stroke-width:0px;}.n{fill:#fff;}</style></defs><rect class="m" width="72" height="45" rx="6" ry="6"/><path class="n" d="M37.882,15.0862c2.6851.6562,4.8216,2.6858,5.6145,5.3338l4.1396,1.0298c-.3263-3.1111-1.8997-5.957-4.3607-7.8881l1.1782-4.7141-3.776-.9397-.9353,3.7455c-.6156-.2073-1.247-.3643-1.888-.4698l.9367-3.7455-3.776-.9381-1.1782,4.7141c-4.3389.7884-8.0131,3.9811-9.1345,8.4698s.6196,9.0269,4.0785,11.7528l-1.1782,4.7156,3.776.9396.9353-3.7455c.6157.2073,1.2471.3644,1.8881.4698l-.9368,3.7455,3.776.9382,1.1782-4.7142c3.0826-.5527,5.8105-2.3286,7.5637-4.9237l-4.1411-1.0297c-1.9458,1.9659-4.7858,2.757-7.4677,2.08-4.1687-1.0357-6.72-5.1957-5.6974-9.2902s5.2349-6.5731,9.4051-5.536Z"/></svg>