<svg xmlns="http://www.w3.org/2000/svg" xmlns:xlink="http://www.w3.org/1999/xlink" viewBox="0 0 72 45"><defs><style>.a{fill:none;}.b{clip-path:url(#a);}.c{fill:#fff;}.d{fill:#f48120;}.e{fill:#231f20;}</style><clipPath id="a"><rect class="a" width="72" height="45" rx="6"/></clipPath></defs><g class="b"><rect class="c" x="1" y="1" width="70" height="43" rx="5"/><path class="d" d="M20.17336,44.48793c30.10163-5.66457,47.90608-16.626,51.25-18.82087l.157,14.105-1.37173,3.03443-3.53325,1.74584Z"/><path class="e" d="M7.80912,13.9141H5v9.811H7.79435a5.106,5.106,0,0,0,3.50056-1.13265,4.92274,4.92274,0,0,0,1.78106-3.766C13.076,15.93107,10.91273,13.9141,7.80912,13.9141Zm2.23561,7.37022a3.6274,3.6274,0,0,1-2.61889.77992H6.91223V15.57647h.51361a3.54738,3.54738,0,0,1,2.61889.79344,3.30354,3.30354,0,0,1,1.06,2.44229A3.36626,3.36626,0,0,1,10.04473,21.28432Z"/><rect class="e" x="13.95655" y="13.9141" width="1.91372" height="9.81103"/><path class="e" d="M20.54965,17.679c-1.1484-.42494-1.48563-.70517-1.48563-1.23523,0-.618.60078-1.08755,1.42566-1.08755a1.97884,1.97884,0,0,1,1.54319.79455l1.00128-1.31112a4.29265,4.29265,0,0,0-2.883-1.08769,2.88183,2.88183,0,0,0-3.06,2.81118c0,1.35161.61652,2.04364,2.41384,2.69051a7.63635,7.63635,0,0,1,1.32292.55874,1.17468,1.17468,0,0,1,.57377,1.01517A1.39843,1.39843,0,0,1,19.916,22.21138a2.26349,2.26349,0,0,1-2.08863-1.30852L16.591,22.09332a3.813,3.813,0,0,0,3.39675,1.86781,3.16316,3.16316,0,0,0,3.38384-3.22149C23.37158,19.18071,22.72655,18.4752,20.54965,17.679Z"/><path class="e" d="M23.97527,18.82646A5.08054,5.08054,0,0,0,29.1538,23.9463a5.29153,5.29153,0,0,0,2.39938-.57169V21.12184a3.06043,3.06043,0,0,1-2.31035,1.07454,3.20638,3.20638,0,0,1-3.29532-3.38418,3.26134,3.26134,0,0,1,3.20629-3.36953,3.20662,3.20662,0,0,1,2.39938,1.104V14.295a4.88759,4.88759,0,0,0-2.35419-.6026A5.15949,5.15949,0,0,0,23.97527,18.82646Z"/><polygon class="e" points="46.727 20.504 44.11 13.914 42.02 13.914 46.183 23.977 47.213 23.977 51.451 13.914 49.377 13.914 46.727 20.504"/><polygon class="e" points="52.317 23.725 57.744 23.725 57.744 22.064 54.229 22.064 54.229 19.416 57.615 19.416 57.615 17.754 54.229 17.754 54.229 15.576 57.744 15.576 57.744 13.914 52.317 13.914 52.317 23.725"/><path class="e" d="M65.32134,16.8106c0-1.83673-1.26521-2.8965-3.47207-2.8965H59.0116v9.811h1.91152V19.78389h.24949l2.64886,3.94124h2.35347l-3.08862-4.13319A2.60871,2.60871,0,0,0,65.32134,16.8106ZM61.482,18.431h-.55892V15.4595h.58929c1.19191,0,1.83969.49935,1.83969,1.45415C63.3521,17.9,62.70432,18.431,61.482,18.431Z"/><path class="e" d="M66.54288,14.283c0-.17193-.11845-.266-.32651-.266h-.27685v.86227h.20579v-.33443l.24137.33443h.2513l-.28353-.3555A.23679.23679,0,0,0,66.54288,14.283Zm-.36278.11769h-.03479v-.22542h.037c.10182,0,.15473.03666.15473.11087C66.33706,14.36237,66.28339,14.40064,66.1801,14.40064Z"/><path class="e" d="M66.25784,13.69475A.75186.75186,0,1,0,67,14.44635.74733.74733,0,0,0,66.25784,13.69475ZM66.25489,15.064a.61735.61735,0,1,1,.59522-.61648A.60766.60766,0,0,1,66.25489,15.064Z"/><circle class="d" cx="37.39683" cy="18.8553" r="5.21934"/><path class="e" d="M66,2a4.00451,4.00451,0,0,1,4,4V39a4.00451,4.00451,0,0,1-4,4H6a4.00451,4.00451,0,0,1-4-4V6A4.00451,4.00451,0,0,1,6,2H66m0-2H6A6,6,0,0,0,0,6V39a6,6,0,0,0,6,6H66a6,6,0,0,0,6-6V6a6,6,0,0,0-6-6Z"/></g></svg>