<svg xmlns="http://www.w3.org/2000/svg" xmlns:xlink="http://www.w3.org/1999/xlink" viewBox="0 0 72 45"><defs><style>.a{fill:none;}.b{clip-path:url(#a);}.c{fill:#fff;}.d{fill:#5f6360;}.d,.e{fill-rule:evenodd;}.e{fill:#a41760;}.f{fill:#231f20;}</style><clipPath id="a"><rect class="a" width="72" height="45" rx="6"/></clipPath></defs><g class="b"><rect class="c" x="1" y="1" width="70" height="43" rx="5"/><path class="d" d="M55.26109,23.04208H50.93023a.86293.86293,0,0,1-.87357-.85495.89625.89625,0,0,1,.87357-.89369h6.59345V18.076H50.93023a4.127,4.127,0,1,0,0,8.25355h4.272a.86165.86165,0,0,1,.87364.8534.83859.83859,0,0,1-.87364.82529H46.04149c-.77776,1.46885-1.534,2.72786-3.06927,3.35737H55.26109a4.162,4.162,0,0,0,0-8.32349"/><path class="d" d="M38.65917,18.076a6.65468,6.65468,0,0,0-6.66027,6.63082V38.5h3.32318V31.36557h3.33016A6.64481,6.64481,0,1,0,38.65917,18.076Zm0,9.93224H35.32208v-3.313a3.3436,3.3436,0,1,1,3.33709,3.313Z"/><path class="e" d="M21.4781,31.36557a6.74089,6.74089,0,0,1-6.49871-5.1086,9.61161,9.61161,0,0,1-.2066-1.58671,10.3191,10.3191,0,0,1,.19557-1.59657,6.713,6.713,0,0,1,13.21243,1.58077v1.6051H18.3785a3.37087,3.37087,0,0,0,3.0996,1.74864h8.81177l.0121-9.46494a2.58726,2.58726,0,0,0-2.59356-2.56566H15.21909a2.55782,2.55782,0,0,0-2.59356,2.53069v12.355a2.61726,2.61726,0,0,0,2.59356,2.60063H27.70841a2.57544,2.57544,0,0,0,2.55431-2.09836H21.4781"/><path class="e" d="M21.46382,21.17845a3.60724,3.60724,0,0,0-3.09557,1.86363h6.19128a3.60731,3.60731,0,0,0-3.09571-1.86363"/><path class="e" d="M27.12021,11.95986a5.66365,5.66365,0,0,0-11.31264-.14905.34661.34661,0,0,0-.00028.03735v1.64078a.38973.38973,0,0,0,.36491.39029h2.08165a.40447.40447,0,0,0,.38167-.39029V11.95986a2.83,2.83,0,0,1,5.65646,0v1.52908a.39265.39265,0,0,0,.3683.39029H26.742a.40136.40136,0,0,0,.37821-.39029V11.95986"/><path class="f" d="M66,2a4.00455,4.00455,0,0,1,4,4V39a4.00455,4.00455,0,0,1-4,4H6a4.00451,4.00451,0,0,1-4-4V6A4.00451,4.00451,0,0,1,6,2H66m0-2H6A6,6,0,0,0,0,6V39a6,6,0,0,0,6,6H66a6,6,0,0,0,6-6V6a6,6,0,0,0-6-6Z"/></g></svg>