<svg xmlns="http://www.w3.org/2000/svg" viewBox="0 0 72 45"><defs><style>.a{fill:#016fd0;}.b{fill:#fff;}</style></defs><rect class="a" width="72" height="45" rx="6"/><path class="b" d="M13.94209,35.52558V24.2497H25.88115l1.28093,1.66985,1.32329-1.66985H71.82121V34.74794a5.00452,5.00452,0,0,1-2.444.77764H45.38123L43.937,33.7481v1.77748H39.2045V32.49137a3.97055,3.97055,0,0,1-2.0441.42354H35.54956v2.61067H28.3841L27.105,33.81991l-1.29874,1.70567Z"/><path class="b" d="M0,15.75113,2.69231,9.47442H7.34837l1.52791,3.516V9.47442h5.78791l.90957,2.54123.8818-2.54123H42.43729V10.752a5.60528,5.60528,0,0,1,3.6105-1.27756l8.43012.02946,1.50153,3.46995V9.47442h4.84363l1.33311,1.9932V9.47442h4.88806V20.75028H62.15618l-1.27757-1.99966v1.99966H53.76226l-.71565-1.77748H51.13349l-.704,1.77748H45.60341a4.77048,4.77048,0,0,1-3.16613-1.25147v1.25147H35.16073l-1.4442-1.77748v1.77748H6.6586L5.94344,18.9728h-1.907l-.7101,1.77748H0Z"/><path class="a" d="M3.64522,10.86449.01389,19.3075H2.37807l.67-1.69067H6.94327l.66656,1.69067h2.41626l-3.62786-8.443Zm1.34352,1.965L6.176,15.78381H3.798Z"/><path class="a" d="M10.276,19.30609v-8.443l3.35964.01248,1.95408,5.44352,1.90729-5.456h3.33277v8.443H18.71906V13.08492l-2.23744,6.22117H14.63048L12.3868,13.08492v6.22117Z"/><path class="a" d="M22.274,19.30609v-8.443h6.88772v1.88858H24.407v1.4442h4.64366v1.77748H24.407v1.49975h4.75475v1.833Z"/><path class="a" d="M30.38376,10.86449v8.443h2.11076V16.308h.88873l2.53083,2.99948h2.57943L35.7162,16.19692a2.57123,2.57123,0,0,0,2.31558-2.59331,2.7311,2.7311,0,0,0-2.9509-2.73912Zm2.11076,1.88857H34.9073a.969.969,0,0,1,.99983.88874.95389.95389,0,0,1-.96858.88874h-2.444V12.75306Z"/><path class="a" d="M41.04863,19.30609h-2.1552v-8.443h2.1552Z"/><path class="a" d="M46.15888,19.30609h-.4652c-2.25085,0-3.61745-1.7733-3.61745-4.18679,0-2.47311,1.3513-4.25623,4.19374-4.25623H48.6029v1.99966H46.18467a2.03089,2.03089,0,0,0-1.96991,2.2774A2.067,2.067,0,0,0,46.49215,17.462h.55546Z"/><path class="a" d="M50.75185,10.86449l-3.63133,8.443H49.4847l.67-1.69067H54.0499l.66656,1.69067h2.41626l-3.62787-8.443Zm1.34352,1.965,1.1873,2.95437H50.9046l1.19078-2.95437Z"/><path class="a" d="M57.3792,19.30609v-8.443h2.68357l3.42651,5.30467V10.86307H65.6v8.443H63.00325L59.49,13.86257v5.44352Z"/><path class="a" d="M15.38629,34.08137v-8.443H22.274v1.88858H17.51926v1.4442h4.64366v1.77748H17.51926v1.49975H22.274v1.833Z"/><path class="a" d="M49.13615,34.08137v-8.443h6.88773v1.88858H51.26912v1.4442h4.62145v1.77748H51.26912v1.49975h4.75476v1.833Z"/><path class="a" d="M22.54133,34.08137l3.3536-4.16944-3.43344-4.27358h2.65927l2.04479,2.64191,2.05174-2.64191h2.55512l-3.38832,4.22151,3.35978,4.22151H29.085L27.09959,31.4811l-1.93717,2.60027Z"/><path class="a" d="M31.9946,25.63978v8.443h2.1663V31.41658h2.22185c1.88,0,3.305-.99737,3.305-2.937a2.77865,2.77865,0,0,0-3.03074-2.8398Zm2.1663,1.9094h2.33988a.953.953,0,0,1,1.04149.97206.97394.97394,0,0,1-1.04843.97206H34.1609V27.54918Z"/><path class="a" d="M40.60426,25.63835v8.443H42.715V31.08188h.88874l2.53082,2.99949H48.714l-2.77731-3.11059a2.57123,2.57123,0,0,0,2.31558-2.59331,2.73109,2.73109,0,0,0-2.95089-2.73912H40.60426ZM42.715,27.52693H45.1278a.969.969,0,0,1,.99983.88873.95389.95389,0,0,1-.96859.88874H42.715Z"/><path class="a" d="M57.00149,34.08137v-1.833h4.22429c.625,0,.89568-.33776.89568-.70821,0-.35493-.26979-.71377-.89568-.71377H59.31687a2.36025,2.36025,0,0,1-2.58339-2.52873c0-1.35377.84625-2.65928,3.31194-2.65928h4.11042L63.2671,27.538h-3.555c-.67955,0-.88874.35659-.88874.69712a.736.736,0,0,0,.77765.736h1.99966c1.8497,0,2.65233,1.04921,2.65233,2.42321a2.53146,2.53146,0,0,1-2.753,2.687Z"/><path class="a" d="M64.74845,34.08137v-1.833h4.22428c.62505,0,.89569-.33776.89569-.70821,0-.35493-.26979-.71377-.89569-.71377H67.06382a2.36025,2.36025,0,0,1-2.58339-2.52873c0-1.35377.84625-2.65928,3.31194-2.65928h4.11042L71.01405,27.538H67.4591c-.67955,0-.88874.35659-.88874.69712a.736.736,0,0,0,.77765.736h1.99966c1.8497,0,2.65233,1.04921,2.65233,2.42321a2.53146,2.53146,0,0,1-2.753,2.687Z"/></svg>