<svg xmlns="http://www.w3.org/2000/svg" viewBox="0 0 72 45"><defs><style>.a{fill:#000268;}.a,.b,.c{fill-rule:evenodd;}.b{fill:#fff;}.c{fill:#ff0007;}</style></defs><path class="a" d="M0,12.63232A5.55333,5.55333,0,0,1,5.58214,7.10947H66.41789A5.55246,5.55246,0,0,1,72,12.63232V32.369a5.55248,5.55248,0,0,1-5.58211,5.52153H5.58214A5.55336,5.55336,0,0,1,0,32.369V12.63232Z"/><path class="b" d="M2.291,12.82129V32.18183a3.47105,3.47105,0,0,0,3.49011,3.45108H37.65357V9.37022H5.78115A3.471,3.471,0,0,0,2.291,12.82129Zm43.59778,9.58357c0,1.23264-.61324,2.07982-1.62852,2.07982a1.81737,1.81737,0,0,1-1.64466-1.976c0-1.15867.65759-2.0201,1.64466-2.0201a1.71564,1.71564,0,0,1,1.62852,1.91628Zm-5.96135,7.06967h2.68817V25.27077h.03a2.708,2.708,0,0,0,2.46675,1.26252c2.31524,0,3.55511-1.90067,3.55511-4.18816,0-1.8708-1.1798-3.907-3.33188-3.907a3.07363,3.07363,0,0,0-2.89886,1.57535h-.03V18.61778H39.92747V29.47453Zm12.4117-5.57009c0-.742.71631-1.0232,1.629-1.0232.403,0,.79209.02809,1.13544.04412a1.74612,1.74612,0,0,1-1.659,1.82668c-.62755,0-1.1054-.31149-1.1054-.8476Zm5.42255,2.451a9.47863,9.47863,0,0,1-.14883-1.82668V21.64725c0-2.36145-1.71726-3.20908-3.70481-3.20908a8.07781,8.07781,0,0,0-3.10733.55037l.04574,1.81288a5.06627,5.06627,0,0,1,2.47928-.58023c.96958,0,1.76167.283,1.7778,1.33784a7.89,7.89,0,0,0-1.25557-.1052c-1.43306,0-4.01815.283-4.01815,2.644,0,1.6792,1.3739,2.43544,2.91275,2.43544a2.67046,2.67046,0,0,0,2.4654-1.3962h.03c0,.40243.04391.8017.06007,1.21839Zm1.20981,3.11905a7.86562,7.86562,0,0,0,1.67287.17961c2.46544,0,3.04725-1.88686,3.8093-3.833l2.85448-7.20336h-2.69l-1.59849,5.04959h-.03l-1.67334-5.04959h-2.897L61.571,26.53329a1.36584,1.36584,0,0,1-1.36,1.07044,3.24807,3.24807,0,0,1-1.061-.16355l-.17842,2.03435Z"/><path class="c" d="M8.85843,22.42046c0-1.05484.52356-1.93188,1.5245-1.93188a1.69632,1.69632,0,0,1,1.71729,1.82669,1.81055,1.81055,0,0,1-1.71729,1.99025c-.8064,0-1.5245-.68228-1.5245-1.88506Zm5.84166-3.80268H12.26472v1.39574h-.02825a3.04608,3.04608,0,0,0-2.6456-1.57535c-2.41969,0-3.51072,1.72464-3.51072,4.02638,0,2.28749,1.33,3.89093,3.46456,3.89093a3.0386,3.0386,0,0,0,2.61556-1.32221h.03v.41666c0,1.5143-.83644,2.24205-2.3892,2.24205a5.37635,5.37635,0,0,1-2.62993-.63816l-.13447,2.10965a9.08462,9.08462,0,0,0,2.97329.49067c3.13733,0,4.69009-1.02543,4.69009-4.20421V18.61778Zm4.54484-3.22291H16.55541v1.9604h2.68952v-1.9604ZM16.55677,26.35548h2.68816v-7.7377H16.55677v7.7377ZM26.7326,18.52776a5.84718,5.84718,0,0,0-.91086-.08959,2.40147,2.40147,0,0,0-2.3009,1.60521h-.03v-1.4256H21.0411v7.7377h2.68863V23.08891c0-1.51562.70333-2.42117,1.95754-2.42117a3.15707,3.15707,0,0,1,.91086.08778l.13447-2.22776Zm4.63006,6.13472c-1.23987,0-1.7473-1.025-1.7473-2.16806,0-1.15867.50743-2.18364,1.7473-2.18364,1.24123,0,1.74908,1.025,1.74908,2.18364,0,1.14308-.50785,2.16806-1.74908,2.16806Zm0,1.87081c2.56983,0,4.52737-1.484,4.52737-4.03887,0-2.57046-1.95754-4.05625-4.52737-4.05625-2.56939,0-4.52558,1.48579-4.52558,4.05625,0,2.55488,1.95619,4.03887,4.52558,4.03887Z"/></svg>