<svg xmlns="http://www.w3.org/2000/svg" xmlns:xlink="http://www.w3.org/1999/xlink" viewBox="0 0 72 45"><defs><style>.a{fill:none;}.b{clip-path:url(#a);}.c{fill:#fff;}.d{fill:#231f20;}.e{fill:#0a0b09;}.f{fill:#d50172;}</style><clipPath id="a"><rect class="a" width="72" height="45" rx="6"/></clipPath></defs><g class="b"><rect class="c" x="1" y="1" width="70" height="43" rx="5"/><path class="d" d="M66,2a4.00451,4.00451,0,0,1,4,4V39a4.00451,4.00451,0,0,1-4,4H6a4.00451,4.00451,0,0,1-4-4V6A4.00451,4.00451,0,0,1,6,2H66m0-2H6A6,6,0,0,0,0,6V39a6,6,0,0,0,6,6H66a6,6,0,0,0,6-6V6a6,6,0,0,0-6-6Z"/><path class="c" d="M44.03,8.2875l-5.8875-.495L18.36,7.495V37.9325H39.475L46.51,36.02l4.79-4.1525,2.3425-6.53V17.79L50.14,11.7275Z"/><path class="e" d="M18.9825,8.005v28.99H36.595c10.635,0,16.4225-4.955,16.4225-14.5325C53.0175,12.62,46.745,8.005,36.595,8.005ZM36.595,6.5c15.5975,0,17.9275,10.0025,17.9275,15.9625C54.5225,32.805,48.1575,38.5,36.595,38.5H17.4775V6.5Z"/><path class="f" d="M29.8525,17.9675v3.27h1.005c.695,0,1.3375-.2,1.3375-1.66,0-1.4275-.715-1.61-1.3375-1.61Zm16.75-1.6275h1.625v4.8975H50.635C49.975,12.35,42.9825,10.43,36.63,10.43H29.855v5.9125h1.0025c1.8275,0,2.9625,1.24,2.9625,3.2325,0,2.0575-1.1075,3.285-2.9625,3.285H29.855V34.6925h6.7725c10.33,0,13.925-4.7975,14.05-11.8325H46.6V16.34ZM42.075,19.98H43.25l-.5375-1.845H42.615Zm-2.5325,2.8825,1.9675-6.525h2.31l1.965,6.525h-1.69L43.7275,21.6h-2.125l-.37,1.2625Zm-.78-1.625v1.625H34.745v-6.52h3.8875V17.965h-2.265v.755h2.14v1.6225h-2.14v.8925c.905.0025,2.395.0025,2.395.0025Z"/><path d="M27.725,19.6a3.505,3.505,0,1,1-3.505-3.505A3.50437,3.50437,0,0,1,27.725,19.6ZM21.41,34.69h5.64V24.6525H21.41Z"/></g></svg>