<?xml version="1.0" encoding="UTF-8"?><svg id="a" xmlns="http://www.w3.org/2000/svg" viewBox="0 0 72 45"><defs><style>.b{fill:#00d54b;}.c{fill:#fff;}</style></defs><path class="b" d="M10.3717,0C4.6436,0,0,4.6436,0,10.3717v24.2566c0,5.7281,4.6436,10.3717,10.3717,10.3717H61.6283c5.7281,0,10.3717-4.6436,10.3717-10.3717V10.3717c0-5.7281-4.6436-10.3717-10.3717-10.3717H10.3717Z"/><path class="c" d="M43.2684,16.9524c-1.7078-1.4446-3.8715-2.2387-6.1083-2.2421-1.8448,0-3.6897,.6091-3.6897,2.3038,0,1.5447,1.6418,2.1538,3.6632,2.8953l.6002,.2207c3.9986,1.3505,7.2911,3.0012,7.2911,6.9204,0,4.2546-3.3013,7.1675-8.7122,7.4941l-.4943,2.2774c-.0776,.4246-.451,.7309-.8827,.7238h-3.3984c-.5165-.0179-.9206-.4511-.9026-.9676,.0019-.0546,.0086-.1089,.0199-.1623l.5296-2.4098c-2.0408-.5188-3.9173-1.5451-5.4551-2.9835-.3632-.3252-.394-.8832-.0688-1.2464,.0216-.0242,.0446-.0471,.0688-.0688l1.889-1.8449c.3332-.3558,.8918-.3743,1.2477-.0411,.0141,.0133,.0278,.027,.0411,.0411,1.7282,1.6505,4.0367,2.5542,6.4261,2.5157,2.4627,0,4.131-1.0416,4.131-2.7011,0-1.4918-1.3682-1.9949-3.9721-2.9482l-.8827-.3178c-3.3366-1.1916-6.5055-2.8953-6.5055-6.8498,0-4.5812,3.8221-6.8144,8.3327-7.0616l.4767-2.3215c.0776-.4247,.451-.7309,.8827-.7238h3.3896c.4873-.0155,.8948,.3668,.9104,.8541,.0027,.084-.0067,.1679-.0277,.2493l-.5296,2.5951c1.7257,.568,3.3238,1.4676,4.7048,2.6481,.3763,.3099,.4303,.8662,.1204,1.2425-.0237,.0288-.0492,.056-.0763,.0815l-1.7654,1.7654c-.3492,.3288-.8906,.3403-1.2534,.0265v.0353Z"/></svg>