<svg xmlns="http://www.w3.org/2000/svg" viewBox="0 0 72 45"><defs><style>.a{fill:none;}.b{fill:#ff5f00;}.c{fill:#eb001b;}.d{fill:#f79e1b;}</style></defs><rect width="72" height="45" rx="6"/><rect class="a" x="4.76426" y="0.36545" width="62.47147" height="44.26909" transform="translate(-0.26186 0.42451) rotate(-0.67317)"/><rect class="b" x="29.52696" y="10.89875" width="12.91182" height="23.20291" transform="translate(-0.26187 0.42431) rotate(-0.67317)"/><path class="c" d="M30.34724,22.56642a14.73072,14.73072,0,0,1,5.49938-11.66687,14.75637,14.75637,0,1,0,.27261,23.20131A14.73094,14.73094,0,0,1,30.34724,22.56642Z"/><path class="d" d="M59.85591,22.2197a14.75582,14.75582,0,0,1-23.7367,11.88115,14.75848,14.75848,0,0,0-.2726-23.20131A14.75581,14.75581,0,0,1,59.85591,22.2197Z"/><path class="d" d="M58.5556,31.37952l-.00558-.475.19153-.00225-.00114-.09678-.48778.00573.00113.09678.19162-.00225.00558.475Zm.947-.01113-.00673-.57271-.14952.00175-.16735.396-.17665-.39191-.1496.00176.00673.57272.10558-.00124-.00508-.432.16566.37055.10947-.00129.15691-.37529.00509.433Z"/></svg>