<svg xmlns="http://www.w3.org/2000/svg" xmlns:xlink="http://www.w3.org/1999/xlink" viewBox="0 0 72 45"><defs><style>.a{fill:none;}.b{clip-path:url(#a);}.c{fill:#fff;}.d{fill:#40a737;}.e{fill:#0066b1;}.f{fill:#be1833;}.g{fill:#231f20;}</style><clipPath id="a"><rect class="a" width="72" height="45" rx="6"/></clipPath></defs><g class="b"><rect class="c" x="1" y="1" width="70" height="43" rx="5"/><path class="d" d="M46.79854,25.92857h3.07692c.08791,0,.293-.0293.381-.0293A1.37279,1.37279,0,0,0,51.34066,24.522a1.4223,1.4223,0,0,0-1.08425-1.37729,1.54827,1.54827,0,0,0-.381-.0293H46.79854v2.81318Z"/><path class="d" d="M49.52381,6.5a5.33391,5.33391,0,0,0-5.33333,5.33333V17.3718h7.53113a3.01379,3.01379,0,0,1,.52748.0293c1.69963.08791,2.95971.967,2.95971,2.49084a2.49194,2.49194,0,0,1-2.43224,2.43224v.05861c1.72894.11721,3.04762,1.08424,3.04762,2.57875,0,1.61172-1.4652,2.66667-3.39927,2.66667H44.16117V38.4707h7.82418a5.33391,5.33391,0,0,0,5.33333-5.33333V6.5Z"/><path class="d" d="M50.95971,20.24359a1.24665,1.24665,0,0,0-1.08425-1.26007c-.05861,0-.20513-.02931-.293-.02931H46.79854V21.533h2.78388a.81648.81648,0,0,0,.293-.02931A1.24665,1.24665,0,0,0,50.95971,20.24359Z"/><path class="e" d="M20.044,6.5a5.33392,5.33392,0,0,0-5.33334,5.33333V24.99084a10.54651,10.54651,0,0,0,4.60074,1.20147A2.552,2.552,0,0,0,22.15385,23.555V17.34249h4.57143v6.18315c0,2.40293-1.49451,4.3663-6.56411,4.3663a22.49582,22.49582,0,0,1-5.47985-.674V38.44139h7.82417a5.33391,5.33391,0,0,0,5.33334-5.33333V6.5Z"/><path class="f" d="M34.78388,6.5a5.33391,5.33391,0,0,0-5.33333,5.33333v6.97436c1.348-1.14285,3.69231-1.87545,7.47253-1.69963a23.77837,23.77837,0,0,1,4.19048.64469v2.25641a10.14416,10.14416,0,0,0-4.044-1.17216c-2.8718-.20513-4.60073,1.20146-4.60073,3.663,0,2.49084,1.72894,3.89744,4.60073,3.663a10.64315,10.64315,0,0,0,4.044-1.17217v2.25641a23.21233,23.21233,0,0,1-4.19048.64469c-3.78022.17583-6.12454-.55678-7.47253-1.69963V38.5h7.82418a5.33391,5.33391,0,0,0,5.33333-5.33333V6.5Z"/><path class="g" d="M66,2a4.00451,4.00451,0,0,1,4,4V39a4.00451,4.00451,0,0,1-4,4H6a4.00451,4.00451,0,0,1-4-4V6A4.00451,4.00451,0,0,1,6,2H66m0-2H6A6,6,0,0,0,0,6V39a6,6,0,0,0,6,6H66a6,6,0,0,0,6-6V6a6,6,0,0,0-6-6Z"/></g></svg>