<svg xmlns="http://www.w3.org/2000/svg" xmlns:xlink="http://www.w3.org/1999/xlink" viewBox="0 0 72 45"><defs><style>.a{fill:none;}.b{clip-path:url(#a);}.c{fill:#fff;}.d{fill:#231f20;}.e{fill:#d13239;}.f{fill:#b3b2b1;}</style><clipPath id="a"><rect class="a" width="72" height="45" rx="6"/></clipPath></defs><g class="b"><rect class="c" x="1" y="1" width="70" height="43" rx="5"/><path class="d" d="M66,2a4.00451,4.00451,0,0,1,4,4V39a4.00451,4.00451,0,0,1-4,4H6a4.00451,4.00451,0,0,1-4-4V6A4.00451,4.00451,0,0,1,6,2H66m0-2H6A6,6,0,0,0,0,6V39a6,6,0,0,0,6,6H66a6,6,0,0,0,6-6V6a6,6,0,0,0-6-6Z"/><polygon class="e" points="17.981 24.098 23.107 24.088 22.921 25.256 18.632 29.338 22.229 29.338 22.022 30.589 16.73 30.589 16.947 29.297 21.05 25.359 17.774 25.359 17.981 24.098"/><path class="e" d="M12.38957,22.10377a1.36047,1.36047,0,0,0-.44441-.27905,3.64764,3.64764,0,0,0-.59944-.16536c-.25837-.04134-.50641-.062-.68211-.07235-.16536-.01033-.26871-.01033-.26871-.01033H6.48825L5,30.58885H6.39523L6.943,27.25062l2.70778.01034a4.16556,4.16556,0,0,0,1.7983-.35139,2.13436,2.13436,0,0,0,.95083-1.29188s.08268-.33073.155-.74413c.07234-.4444.155-.98183.186-1.27121.02067-.124.031-.2067.031-.2067a1.20682,1.20682,0,0,0,.02067-.23771,1.68,1.68,0,0,0-.186-.78546A2.73885,2.73885,0,0,0,12.38957,22.10377Zm-1.07485,1.5916c0,.02067-.124.74412-.28938,1.60193a.713.713,0,0,1-.59944.56843,4.53089,4.53089,0,0,1-.99216.08268l-2.26338-.01034.49608-2.99716,2.04635.01033h.33072a6.50331,6.50331,0,0,1,.75446.04134.831.831,0,0,1,.42373.13436.52476.52476,0,0,1,.10335.29971A1.41085,1.41085,0,0,1,11.31472,23.69537Z"/><polygon class="e" points="30.042 21.577 31.385 21.577 29.887 30.589 28.543 30.589 30.042 21.577"/><polygon class="e" points="37.204 24.098 38.496 24.088 38.951 28.667 40.925 24.088 42.516 24.088 42.981 28.687 44.955 24.088 46.299 24.088 43.457 30.589 41.875 30.589 41.421 26.041 39.416 30.589 37.865 30.589 37.204 24.098"/><path class="e" d="M27.57176,24.15011a5.97,5.97,0,0,0-1.58126-.14469,5.49706,5.49706,0,0,0-.98183.07235,2.58091,2.58091,0,0,0-1.48825.80613,5.24782,5.24782,0,0,0-.70278,2.129,10.13572,10.13572,0,0,0-.22738,2.14969,1.437,1.437,0,0,0,.86815,1.27121,3.2544,3.2544,0,0,0,1.12652.22738,7.67718,7.67718,0,0,0,1.90165-.10336,2.30733,2.30733,0,0,0,1.25054-.76479,2.93073,2.93073,0,0,0,.33072-.54776,3.19893,3.19893,0,0,0,.186-.52708l.08269-.35139H26.94132s-.07234.91981-.8268,1.0025a6.75063,6.75063,0,0,1-1.30222.04134c-.14469-.01034-.95082.031-.88881-.64078v-.04134a3.066,3.066,0,0,1,.124-.96116l4.37173-.01033.186-1.08518C28.843,25.442,28.688,24.51184,27.57176,24.15011ZM27.272,26.51684H24.27488l.11368-.47542a1.167,1.167,0,0,1,.31006-.52708,1.369,1.369,0,0,1,.72345-.2067,5.51848,5.51848,0,0,1,1.45724.04133.47443.47443,0,0,1,.39273.28938A2.0961,2.0961,0,0,1,27.272,26.51684Z"/><path class="e" d="M23.95449,28.73887v.031C23.94416,28.82155,23.95449,28.73887,23.95449,28.73887Z"/><path class="e" d="M35.8088,24.15011a5.97,5.97,0,0,0-1.58126-.14469,5.497,5.497,0,0,0-.98183.07235,2.58091,2.58091,0,0,0-1.48825.80613,5.24789,5.24789,0,0,0-.70279,2.129,10.13587,10.13587,0,0,0-.22737,2.14969,1.437,1.437,0,0,0,.86815,1.27121,3.2544,3.2544,0,0,0,1.12652.22738,7.67718,7.67718,0,0,0,1.90165-.10336,2.37552,2.37552,0,0,0,1.25054-.76479,2.93073,2.93073,0,0,0,.33072-.54776,3.19893,3.19893,0,0,0,.186-.52708l.08268-.35139H35.17836s-.07234.91981-.8268,1.0025a8.47882,8.47882,0,0,1-1.30222.05167c-.14469-.01033-.95083.031-.88882-.64077v-.04134a3.06634,3.06634,0,0,1,.124-.96116l4.37173-.01034.186-1.08518C37.08,25.45233,36.93532,24.51184,35.8088,24.15011Zm-.29972,2.36673H32.51192l.11368-.47542a1.167,1.167,0,0,1,.31006-.52708,1.369,1.369,0,0,1,.72345-.2067,5.51848,5.51848,0,0,1,1.45724.04133.47445.47445,0,0,1,.39274.28938A2.09621,2.09621,0,0,1,35.50908,26.51684Z"/><path class="e" d="M47.83881,24.09844l.8578,4.75412,2.42874-4.75412,1.36423.01033L48.986,30.8989a7.08525,7.08525,0,0,1-1.02317,1.53993,1.77275,1.77275,0,0,1-.95083.48575,2.30965,2.30965,0,0,1-.75446,0l-.33072-.062.2067-1.2092a1.91362,1.91362,0,0,0,.86815-.031c.32038-.124.57876-.68212.57876-.68212l.16536-.279-1.27121-6.58344,1.36423.02068Z"/><path class="f" d="M52.996,24.73921h1.40557l.08267-.54776s.155-.99217.48575-1.1782a1.67427,1.67427,0,0,1,.48575-.155,6.84273,6.84273,0,0,1,1.21954-.062c.5891.02067.80613.031,1.40557.093a.49053.49053,0,0,1,.4444.64078l-.11368.85781a2.10739,2.10739,0,0,1-.186.6201,1.21876,1.21876,0,0,1-.65111.42374c-.46508.155-2.05668.55809-2.05668.55809l-1.25054.36173a3.11122,3.11122,0,0,0-1.19887.69245,2.83784,2.83784,0,0,0-.66144,1.30221c-.062.27905-.39273,2.23238-.39273,2.23238H58.763l.22738-1.34356-5.33289.01033.093-.54775s.062-.56843.28938-.75446a1.136,1.136,0,0,1,.53743-.28938c.25837-.093,1.12652-.32039,1.12652-.32039l2.01533-.54775a3.16109,3.16109,0,0,0,1.52959-.88882,4.87547,4.87547,0,0,0,.59943-1.74662,7.73607,7.73607,0,0,0,.031-1.46758,1.62264,1.62264,0,0,0-.81646-.95083,4.34714,4.34714,0,0,0-2.036-.26871,7.00326,7.00326,0,0,0-2.42874.29972,1.95043,1.95043,0,0,0-1.19887,1.21953,8.14781,8.14781,0,0,0-.40306,1.757Z"/><path class="f" d="M65.69778,27.25063l.95083-5.66361H64.97433l-5.21921,5.6016-.2377,1.4159h4.55776l-.33073,1.99467H65.15l.33073-1.99467h1.29188L67,27.25063Zm-1.3849,0H61.36739l3.58627-3.824Z"/><path class="f" d="M15.34539,22.3208h4.29938s.96116-.77512,1.64328-1.28154c.68211-.49608,1.93265-1.29188,1.93265-1.29188L20.792,18.61052s-2.05668,1.27121-2.92483,1.87065c-.84747.55809-2.52175,1.83963-2.52175,1.83963Z"/><path class="f" d="M24.5746,18.95158,22.57993,17.608a37.70033,37.70033,0,0,1,4.20637-1.98433c2.39773-.95082,3.67928-1.35389,3.67928-1.35389l.40306,1.90165s-2.30471.77513-3.6276,1.39523a24.52721,24.52721,0,0,0-2.66644,1.3849Z"/><path class="f" d="M32.34656,15.758l-.35139-1.943s2.45974-.6511,4.71278-1.07484,5.23987-.6201,5.23987-.6201l-.99216,3.0075a21.48021,21.48021,0,0,0-5.09519-.02067,28.60217,28.60217,0,0,0-3.51391.6511Z"/><path class="f" d="M42.52659,15.386l1.66394-3.33822a46.048,46.048,0,0,1,6.7798.4134,47.49154,47.49154,0,0,1,5.953,1.26088l-7.96833,4.165a19.7693,19.7693,0,0,0-4.17536-1.90165c-1.30222-.3824-2.253-.59944-2.253-.59944Z"/><path class="f" d="M50.39156,18.79655l1.74663,1.33322H66.52458a2.88893,2.88893,0,0,0-.4134-1.12652A7.19387,7.19387,0,0,0,64.98466,17.701a11.7523,11.7523,0,0,0-1.32289-1.0025,20.19576,20.19576,0,0,0-3.29688-1.73629l-9.97333,3.8343Z"/><path class="e" d="M16.27555,24.0881a3.18219,3.18219,0,0,0-1.48825.45474l.07234-.45474H13.43341l-1.14719,6.46974h1.43657l.63044-3.58626A1.83171,1.83171,0,0,1,16.08952,25.349h.74412L17.061,24.0881Z"/></g></svg>