<svg xmlns="http://www.w3.org/2000/svg" xmlns:xlink="http://www.w3.org/1999/xlink" viewBox="0 0 72 45"><defs><style>.a{fill:none;}.b{clip-path:url(#a);}.c{fill:#fff;}.d{fill:#1e3764;}.e{fill:url(#b);}.f{fill:url(#c);}.g{fill:#231f20;}</style><clipPath id="a"><rect class="a" width="72" height="45" rx="6"/></clipPath><linearGradient id="b" x1="15.44612" y1="195.49225" x2="34.29461" y2="202.49311" gradientTransform="matrix(1, 0, 0, -1, 0, 218)" gradientUnits="userSpaceOnUse"><stop offset="0" stop-color="#005ab9"/><stop offset="1" stop-color="#1e3764"/></linearGradient><linearGradient id="c" x1="37.56003" y1="200.24883" x2="57.57321" y2="207.07686" gradientTransform="matrix(1, 0, 0, -1, 0, 218)" gradientUnits="userSpaceOnUse"><stop offset="0" stop-color="#fba900"/><stop offset="1" stop-color="#ffd800"/></linearGradient></defs><g class="b"><rect class="c" x="1" y="1" width="70" height="43" rx="5"/><path class="d" d="M10.2346,38.3716V30.92813h2.29685c1.66947,0,2.74347.62737,2.74347,1.92467a1.73094,1.73094,0,0,1-.81879,1.54186,1.84406,1.84406,0,0,1,1.09524,1.77579c0,1.49936-1.09524,2.20116-2.79661,2.20116Zm1.47806-4.34914h1.09527a.831.831,0,0,0,.957-.93572c0-.64868-.52107-.86131-1.22289-.86131h-.82941Zm0,3.05184h.91448c.89323,0,1.41427-.22331,1.41427-.9251,0-.69117-.44659-.97828-1.28665-.97828h-1.0421Zm6.70506,1.42489c-1.45681,0-2.19053-.71242-2.19053-1.66944,0-1.05275.86133-1.6695,2.13736-1.68012a6.65927,6.65927,0,0,1,.94638.08509v-.25523c0-.64862-.37217-.957-1.08462-.957a3.73065,3.73065,0,0,0-1.40364.25523l-.26583-1.14841a5.27145,5.27145,0,0,1,1.83961-.319,2.06456,2.06456,0,0,1,2.33937,2.26495v2.95612a5.32507,5.32507,0,0,1-2.31809.46786Zm.89321-1.20158V36.15982a3.57183,3.57183,0,0,0-.755-.08509c-.48916,0-.87195.19143-.87195.69122,0,.44662.319.68055.88257.68055a1.66457,1.66457,0,0,0,.74435-.14889Zm2.458,1.074V33.27812a6.49314,6.49314,0,0,1,2.40319-.46787c1.55248,0,2.44571.7656,2.44571,2.17986V38.3716H25.15041V35.09645c0-.73371-.34027-1.074-.98892-1.074a2.23015,2.23015,0,0,0-.93576.19143v4.15771Zm9.977-5.24232-.27648,1.159a3.23917,3.23917,0,0,0-1.20158-.26586c-.86131,0-1.3292.60613-1.3292,1.6057,0,1.09524.48914,1.65883,1.40364,1.65883a3.01042,3.01042,0,0,0,1.18031-.27648l.23393,1.18033a3.57891,3.57891,0,0,1-1.53123.30835,2.58768,2.58768,0,0,1-2.786-2.82853,2.59074,2.59074,0,0,1,2.701-2.86041,4.09877,4.09877,0,0,1,1.60565.319Zm3.17013,5.36991a2.583,2.583,0,0,1-2.6584-2.84978,2.65917,2.65917,0,1,1,5.30614,0,2.56977,2.56977,0,0,1-2.64775,2.84978Zm0-1.2122c.755,0,1.14841-.62738,1.14841-1.63758,0-.99957-.39342-1.627-1.14841-1.627-.74435,0-1.15907.62738-1.15907,1.627,0,1.0102.41472,1.63758,1.15906,1.63758Zm3.49693,1.08461V33.27812a6.49314,6.49314,0,0,1,2.40319-.46787c1.55247,0,2.44571.7656,2.44571,2.17986V38.3716H41.79452V35.09645c0-.73371-.34027-1.074-.98892-1.074a2.23012,2.23012,0,0,0-.93576.19143v4.15771Zm8.15829.12759c-1.26537,0-1.914-.69117-1.914-2.09481V34.10756h-.72309V32.93784h.7231V31.75751l1.46741-.07442v1.25476h1.18032v1.16971H46.12474v2.27557c0,.61676.25523.90386.73372.90386a2.57833,2.57833,0,0,0,.56358-.06379l.07445,1.18033a4.05586,4.05586,0,0,1-.92514.09566Zm3.70391,0c-1.45681,0-2.19053-.71242-2.19053-1.66944,0-1.05275.86133-1.6695,2.13736-1.68012a6.65913,6.65913,0,0,1,.94637.08509v-.25523c0-.64862-.37217-.957-1.08461-.957a3.73065,3.73065,0,0,0-1.40364.25523l-.26583-1.14841a5.27145,5.27145,0,0,1,1.83961-.319,2.06456,2.06456,0,0,1,2.33937,2.26495v2.95612a5.32525,5.32525,0,0,1-2.31811.46786Zm.8932-1.20158V36.15982a3.57136,3.57136,0,0,0-.755-.08509c-.48913,0-.87193.19143-.87193.69122,0,.44662.319.68055.88259.68055a1.66448,1.66448,0,0,0,.74433-.14889Zm6.4455-4.16833-.27648,1.159a3.23912,3.23912,0,0,0-1.20158-.26586c-.86131,0-1.3292.60613-1.3292,1.6057,0,1.09524.48914,1.65883,1.40365,1.65883a3.01038,3.01038,0,0,0,1.1803-.27648l.234,1.18033a3.57924,3.57924,0,0,1-1.53123.30835,2.58769,2.58769,0,0,1-2.786-2.82853,2.59073,2.59073,0,0,1,2.70092-2.86041,4.09883,4.09883,0,0,1,1.60567.319Zm3.2263,5.36991c-1.26538,0-1.914-.69117-1.914-2.09481V34.10756h-.7231V32.93784h.7231V31.75751l1.46741-.07442v1.25476H61.574v1.16971H60.39365v2.27557c0,.61676.25523.90386.73372.90386a2.57849,2.57849,0,0,0,.56359-.06379l.07444,1.18033a4.05586,4.05586,0,0,1-.92514.09566Z"/><path class="e" d="M20.47023,27.2064c7.76488,0,11.64732-5.1766,15.52976-10.3532H10.2346V27.2064Z"/><path class="f" d="M51.52975,6.5C43.76488,6.5,39.88244,11.6766,36,16.8532H61.76539V6.5Z"/><path class="g" d="M66,2a4.00451,4.00451,0,0,1,4,4V39a4.00451,4.00451,0,0,1-4,4H6a4.00451,4.00451,0,0,1-4-4V6A4.00451,4.00451,0,0,1,6,2H66m0-2H6A6,6,0,0,0,0,6V39a6,6,0,0,0,6,6H66a6,6,0,0,0,6-6V6a6,6,0,0,0-6-6Z"/></g></svg>