<svg xmlns="http://www.w3.org/2000/svg" viewBox="0 0 72 45"><defs><style>.a{fill:#1a1f71;}.b{fill:#fff;}</style></defs><rect class="a" width="72" height="45" rx="6"/><path class="b" d="M27.36562,13.14608l-8.01113,19.1163H14.12563L10.18611,17.00806A2.11285,2.11285,0,0,0,9.009,15.32553,20.78523,20.78523,0,0,0,4.12823,13.701l.12108-.55493h8.41255a2.30464,2.30464,0,0,1,2.2801,1.94938L17.025,26.15958l5.14517-13.0135ZM47.847,26.01817c.02321-5.04253-6.97743-5.317-6.92706-7.57292.01359-.6886.66629-1.41726,2.09565-1.60131a9.33321,9.33321,0,0,1,4.87693.85272l.86769-4.05188a13.2911,13.2911,0,0,0-4.62515-.84637c-4.88753,0-8.32825,2.5997-8.35731,6.31938-.032,2.75073,2.45483,4.2857,4.33063,5.20179,1.92617.9374,2.57015,1.53586,2.56341,2.37648-.0126,1.28309-1.53686,1.84377-2.95849,1.869a10.34825,10.34825,0,0,1-5.0812-1.20852l-.89526,4.1912a15.08408,15.08408,0,0,0,5.501,1.01684c5.19455,0,8.59273-2.572,8.60919-6.54637m12.9069,6.24421h4.57477l-3.99178-19.1163H57.11368a2.25546,2.25546,0,0,0-2.10537,1.4013l-7.416,17.715H52.783l1.03042-2.85486h6.345Zm-5.518-6.773L57.84,18.31158,59.338,25.48942ZM34.4326,13.14608l-4.09154,19.1163H25.39492l4.09253-19.1163Z"/></svg>