<svg xmlns="http://www.w3.org/2000/svg" xmlns:xlink="http://www.w3.org/1999/xlink" viewBox="0 0 72 45"><defs><style>.a{fill:none;}.b{clip-path:url(#a);}.c{fill:#fff;}.d{fill:#004a98;}.e{fill:#231f20;}</style><clipPath id="a"><rect class="a" width="72" height="45" rx="6"/></clipPath></defs><g class="b"><rect class="c" x="1" y="1" width="70" height="43" rx="5"/><path class="d" d="M33.62915,38.49982a16.03175,16.03175,0,0,1-16.139-15.8605A15.786,15.786,0,0,1,33.62915,6.5h4.14862c8.748-.00169,16.73205,6.59489,16.73205,16.13932,0,8.72746-7.984,15.8605-16.732,15.8605Zm.03573-30.67646A14.647,14.647,0,1,0,48.31277,22.47208,14.64942,14.64942,0,0,0,33.66488,7.82336ZM30.3398,31.13415V13.808a9.27639,9.27639,0,0,0,0,17.32614Zm12.61006-8.66207a9.29322,9.29322,0,0,0-5.96307-8.66576V31.1375A9.29313,9.29313,0,0,0,42.94986,22.47208Z"/><path class="e" d="M66,2a4.00451,4.00451,0,0,1,4,4V39a4.00451,4.00451,0,0,1-4,4H6a4.00451,4.00451,0,0,1-4-4V6A4.00451,4.00451,0,0,1,6,2H66m0-2H6A6,6,0,0,0,0,6V39a6,6,0,0,0,6,6H66a6,6,0,0,0,6-6V6a6,6,0,0,0-6-6Z"/></g></svg>