<svg xmlns="http://www.w3.org/2000/svg" xmlns:xlink="http://www.w3.org/1999/xlink" width="1200" height="1200" viewBox="0 0 1200 1200"><g><g transform="translate(600 600) scale(0.69 0.69) rotate(0) translate(-600 -600)" style="fill:#1A1A1A"><svg fill="#1A1A1A" xmlns="http://www.w3.org/2000/svg" xmlns:xlink="http://www.w3.org/1999/xlink" xml:space="preserve" version="1.1" style="shape-rendering:geometricPrecision;text-rendering:geometricPrecision;image-rendering:optimizeQuality;" viewBox="0 0 201 179" x="0px" y="0px" fill-rule="evenodd" clip-rule="evenodd"><defs><style type="text/css">
   
    .fil0 {fill:#1A1A1A}
   
  </style></defs><g><path class="fil0" d="M126 179l-64 0c-34,0 -62,-28 -62,-62l0 -55c0,-34 28,-62 62,-62l64 0 0 29 -64 0c-18,0 -33,15 -33,33l0 55c0,18 15,33 33,33l64 0 0 29z"></path><polygon class="fil0" points="87,112 133,112 133,133 201,89 133,46 133,66 87,66 "></polygon></g></svg></g></g></svg>