<svg id="Layer_1" data-name="Layer 1" xmlns="http://www.w3.org/2000/svg" xmlns:xlink="http://www.w3.org/1999/xlink" viewBox="0 0 2498.25 1036.13"><defs><style>.cls-1{fill:#fff;}.cls-2{mask:url(#mask);}</style><mask id="mask" x="0" y="0" width="2498.25" height="1036.13" maskUnits="userSpaceOnUse"><g transform="translate(0 -3.78)"><g id="b"><path id="a" class="cls-1" d="M.33,3.78H2498.25V1039.91H.33Z"/></g></g></mask></defs><title>stripe-white</title><g class="cls-2"><path class="cls-1" d="M261.06,469.86c-53.83-19.92-83.33-35.4-83.33-59.74,0-20.65,17-32.45,47.2-32.45,55.31,0,112.09,21.39,151.18,40.56L398.23,281.8c-31-14.75-94.4-39.08-182.15-39.08-62,0-113.57,16.22-150.44,46.46C27.28,320.88,7.37,366.61,7.37,421.92c0,100.29,61.21,143.07,160.77,179.2,64.16,22.86,85.55,39.09,85.55,64.16,0,24.34-20.65,38.35-58.26,38.35-46.46,0-123.16-22.86-173.31-52.36L0,789.18c42.77,24.33,122.42,49.4,205,49.4,65.63,0,120.2-15.48,157.08-45,41.29-32.45,62.68-80.38,62.68-142.33,0-102.51-62.68-145.28-163.72-181.41Zm523.88-80.39,22.12-135.69H690.27V89.05l-157,25.84L510.55,253.78l-55.23,9L434.65,389.47h75.68V655.7C510.33,725,528,773,564.16,802.45c30.24,24.34,73.74,36.13,135,36.13,47.19,0,76-8.1,95.86-13.27V681.5c-11.06,3-36.13,8.12-53.09,8.12-36.14,0-51.62-18.44-51.62-60.47V389.47Zm350.75-143.62c-51.62,0-92.92,27.1-109.14,75.78l-11.06-67.85h-160V827.52h182.89V455.11c22.86-28,55.31-38.16,99.55-38.16,9.59,0,19.92,0,32.45,2.21V250.28A148.83,148.83,0,0,0,1135.69,245.85ZM1306.79,197c53.09,0,95.86-43.51,95.86-96.6,0-53.84-42.77-96.61-95.86-96.61a96.61,96.61,0,1,0,0,193.21Zm-92.19,56.79h183.63V827.52H1214.6Zm704,51.62c-32.45-42-77.43-62.68-135-62.68-53.09,0-99.55,22.12-143.06,68.58L1631,253.78H1470.22v786.13l182.89-30.23V825.31c28,8.85,56.78,13.27,82.6,13.27,45.72,0,112.09-11.79,163.71-67.84,49.41-53.84,74.49-137.17,74.49-247,0-97.35-18.44-171.09-55.31-218.29Zm-151.92,354c-14.75,28-37.61,42.78-64.16,42.78-18.43,0-34.66-3.69-49.41-11.06V418.23c31-32.44,59-36.13,69.32-36.13,46.46,0,69.32,50.15,69.32,148.23,0,56-8.11,99.55-25.07,129Zm731.57-123.89c0-91.45-19.91-163.72-59-214.61-39.83-51.62-99.56-78.16-175.52-78.16-155.61,0-252.21,115-252.21,299.4,0,103.25,25.81,180.68,76.69,230.09,45.73,44.25,111.36,66.37,196.17,66.37,78.17,0,150.44-18.43,196.17-48.67l-19.91-125.36c-45,24.33-97.35,37.61-156.35,37.61-35.4,0-59.73-7.38-77.43-22.87-19.18-16.22-30.24-42.77-33.92-80.38H2496c.74-8.85,2.22-50.15,2.22-63.42Zm-306.79-48.68c5.16-81.85,27.28-120.2,69.32-120.2,41.3,0,62.69,39.09,65.64,120.2Z" transform="translate(0 -3.78)"/></g></svg>