<?xml version="1.0" encoding="UTF-8"?><svg id="Layer_1" xmlns="http://www.w3.org/2000/svg" xmlns:xlink="http://www.w3.org/1999/xlink" viewBox="0 0 1024 1024"><defs><style>.cls-1{fill:none;}.cls-2{fill:url(#Beacon_Colors-2);}.cls-2,.cls-3,.cls-4{fill-rule:evenodd;}.cls-3{fill:url(#Beacon_Colors-3);}.cls-4{fill:url(#Beacon_Colors);}</style><linearGradient id="Beacon_Colors" x1="869.08" y1="47.28" x2="228.08" y2="881.64" gradientTransform="matrix(1, 0, 0, 1, 0, 0)" gradientUnits="userSpaceOnUse"><stop offset="0" stop-color="#ff0"/><stop offset=".5" stop-color="#d40cc3"/><stop offset="1" stop-color="#1f0099"/></linearGradient><linearGradient id="Beacon_Colors-2" x1="733.29" y1="-57.04" x2="92.29" y2="777.31" xlink:href="#Beacon_Colors"/><linearGradient id="Beacon_Colors-3" x1="1004.83" y1="151.58" x2="363.84" y2="985.93" xlink:href="#Beacon_Colors"/></defs><g><path class="cls-4" d="M345.65,674.12l166.41,349.88,166.35-349.89-53.4-112.27-112.95,243.72-113.03-243.74-53.37,112.3h0Zm332.75-324.23L512.06,0l-166.41,349.89,53.37,112.3,113.03-243.75,112.95,243.72,53.4-112.27Z"/><polygon class="cls-2" points="219.02 512 296.12 674.09 373.17 512 296.12 349.91 219.02 512"/><polygon class="cls-3" points="650.83 512 727.93 674.09 804.98 512 727.93 349.91 650.83 512"/></g><rect class="cls-1" x="2" width="1024" height="1024"/></svg>