<?xml version="1.0" standalone="no"?>
<!DOCTYPE svg PUBLIC "-//W3C//DTD SVG 20010904//EN"
 "http://www.w3.org/TR/2001/REC-SVG-20010904/DTD/svg10.dtd">
<svg version="1.0" xmlns="http://www.w3.org/2000/svg"
 width="700.000000pt" height="700.000000pt" viewBox="0 0 700.000000 700.000000"
 preserveAspectRatio="xMidYMid meet">
<metadata>
Created by potrace 1.11, written by Peter Selinger 2001-2013
</metadata>
<g transform="translate(0.000000,700.000000) scale(0.100000,-0.100000)"
fill="#000000" stroke="none">
<path d="M3492 6078 c-7 -7 -12 -15 -12 -19 0 -3 -38 -84 -84 -180 -88 -184
-151 -316 -221 -464 -104 -221 -126 -267 -180 -380 -97 -204 -256 -536 -297
-623 -27 -57 -37 -90 -32 -105 4 -12 44 -98 89 -192 45 -93 97 -204 115 -245
19 -41 40 -83 46 -94 14 -20 7 -32 114 199 81 175 287 619 315 680 18 39 51
111 75 160 23 50 49 107 57 128 8 20 18 37 22 37 3 0 13 -15 20 -32 8 -18 38
-82 67 -143 28 -60 63 -135 77 -166 14 -30 85 -183 158 -340 72 -156 156 -338
186 -404 30 -66 58 -123 62 -127 7 -8 38 53 186 367 41 88 78 166 83 173 4 9
-12 54 -42 115 -64 134 -175 368 -264 558 -22 46 -72 152 -112 234 -40 83 -87
182 -105 220 -18 39 -59 124 -90 190 -31 66 -70 147 -85 180 -118 252 -136
285 -148 273z"/>
<path d="M2353 4213 c-90 -189 -173 -363 -249 -522 -41 -84 -77 -164 -80 -177
-4 -17 15 -68 66 -176 70 -147 151 -317 263 -552 l52 -109 40 85 c22 46 63
133 92 194 29 60 84 177 123 259 115 241 130 274 130 286 0 13 -7 29 -125 274
-39 83 -96 202 -126 265 -30 63 -72 152 -94 198 l-41 84 -51 -109z"/>
<path d="M4582 4298 c-7 -7 -12 -16 -12 -20 0 -4 -43 -99 -96 -210 -53 -112
-116 -243 -139 -293 -23 -49 -61 -128 -84 -174 -22 -46 -41 -91 -41 -99 0 -16
2 -21 127 -282 78 -162 162 -339 226 -473 l32 -69 52 109 c28 59 90 188 137
287 47 98 86 180 86 182 0 2 26 57 59 122 l59 119 -40 84 c-22 46 -59 125 -83
174 -23 50 -64 135 -90 190 -135 285 -155 328 -155 335 0 17 -26 30 -38 18z"/>
<path d="M2911 3219 c-5 -13 -37 -81 -70 -151 -147 -308 -181 -381 -181 -388
0 -9 43 -103 135 -295 89 -186 154 -323 195 -410 21 -44 62 -132 93 -195 144
-302 171 -359 197 -415 15 -33 64 -136 109 -230 45 -93 88 -183 95 -198 l14
-29 16 23 c9 13 16 26 16 30 0 6 34 78 214 452 36 76 66 140 66 141 0 2 40 86
88 187 49 101 104 216 122 254 18 39 60 126 93 195 33 69 77 161 97 205 21 44
58 124 84 177 25 53 46 101 46 107 0 6 -28 68 -61 138 -34 70 -92 192 -129
271 -37 79 -72 143 -76 143 -5 0 -32 -51 -61 -113 -29 -62 -70 -151 -92 -198
-22 -47 -67 -146 -101 -220 -35 -74 -84 -180 -109 -235 -26 -55 -83 -178 -126
-272 -44 -95 -82 -173 -85 -173 -3 0 -12 15 -19 33 -20 45 -84 183 -142 306
-27 57 -49 105 -49 106 0 2 -29 64 -65 140 -36 75 -65 138 -65 140 0 1 -23 52
-51 111 -28 60 -78 168 -111 239 -32 72 -63 134 -68 139 -6 6 -13 0 -19 -15z"/>
</g>
</svg>
