<?xml version="1.0" standalone="no"?>
<!DOCTYPE svg PUBLIC "-//W3C//DTD SVG 20010904//EN"
 "http://www.w3.org/TR/2001/REC-SVG-20010904/DTD/svg10.dtd">
<svg version="1.0" xmlns="http://www.w3.org/2000/svg"
 width="700.000000pt" height="700.000000pt" viewBox="0 0 700.000000 700.000000"
 preserveAspectRatio="xMidYMid meet">
<metadata>
Created by potrace 1.11, written by Peter Selinger 2001-2013
</metadata>
<g transform="translate(0.000000,700.000000) scale(0.100000,-0.100000)"
fill="#000000" stroke="none">
<path d="M3400 6363 c-58 -102 -119 -211 -136 -242 -17 -31 -190 -339 -384
-686 -194 -346 -367 -655 -383 -685 -17 -30 -41 -72 -54 -92 -13 -21 -23 -39
-23 -42 0 -2 -21 -41 -47 -87 l-46 -82 24 -46 c13 -25 33 -62 45 -81 11 -19
37 -64 56 -100 20 -36 92 -166 162 -289 69 -124 126 -228 126 -233 0 -34 45
34 155 237 6 11 24 43 40 70 15 28 69 124 120 215 51 91 103 183 115 205 13
22 92 165 178 317 85 153 158 276 162 273 6 -4 48 -77 165 -290 15 -27 31 -54
35 -60 4 -5 22 -37 40 -70 44 -80 389 -695 429 -765 17 -30 41 -74 53 -97 12
-24 25 -43 28 -43 4 0 43 66 88 148 45 81 89 158 97 172 8 14 66 117 129 230
l115 204 -36 66 c-20 36 -74 131 -119 212 -46 82 -84 151 -84 154 0 3 -8 18
-18 32 -11 15 -35 56 -54 92 -19 36 -127 229 -240 430 -113 201 -216 385 -230
410 -14 25 -66 117 -115 205 -49 88 -104 186 -122 219 -18 32 -45 79 -60 105
-14 25 -38 67 -51 94 -54 102 -43 109 -160 -100z"/>
<path d="M1771 4984 c-12 -19 -21 -37 -21 -40 0 -2 -10 -21 -23 -42 -13 -20
-39 -66 -59 -102 -30 -56 -67 -121 -185 -330 -11 -19 -35 -62 -53 -95 -27 -49
-127 -227 -277 -495 -29 -52 -76 -137 -117 -210 -20 -36 -40 -72 -46 -80 -5
-8 -18 -32 -29 -53 l-21 -37 66 -118 c37 -64 78 -137 92 -162 29 -53 216 -388
246 -442 12 -20 68 -121 126 -224 58 -103 116 -208 130 -233 14 -25 63 -113
110 -195 95 -169 81 -164 146 -47 17 31 106 191 199 356 92 165 179 320 193
345 14 25 44 79 67 120 53 94 56 98 209 373 l127 228 -192 342 c-183 326 -208
371 -263 470 -13 23 -32 58 -43 77 -11 19 -64 114 -118 210 -164 294 -236 420
-240 420 -1 0 -12 -16 -24 -36z"/>
<path d="M5203 5003 c-4 -10 -33 -65 -66 -122 -32 -58 -101 -179 -152 -270
-51 -91 -134 -240 -184 -330 -51 -90 -103 -184 -117 -210 -14 -25 -29 -53 -35
-61 -5 -8 -72 -127 -148 -263 l-139 -249 30 -51 c17 -29 127 -225 246 -437
118 -212 287 -513 375 -670 88 -157 169 -302 181 -322 11 -21 22 -38 25 -38 5
0 71 117 219 385 19 33 57 101 84 150 28 50 81 144 118 210 37 66 78 140 92
165 14 25 96 171 182 324 151 270 156 281 145 310 -7 17 -16 36 -19 41 -4 6
-59 102 -123 215 -135 241 -530 948 -561 1003 -12 21 -26 46 -31 55 -6 9 -29
52 -53 94 -48 86 -59 98 -69 71z"/>
<path d="M2737 3289 c-13 -20 -70 -122 -185 -329 -13 -25 -70 -126 -125 -224
l-100 -180 30 -55 c58 -108 361 -650 450 -806 26 -44 57 -100 71 -125 45 -82
97 -175 109 -195 7 -11 16 -27 20 -35 4 -8 44 -80 88 -160 45 -80 93 -165 107
-190 14 -25 78 -139 143 -255 65 -115 127 -227 138 -248 11 -21 23 -35 27 -30
8 8 27 40 128 221 31 57 62 111 67 121 6 9 41 73 79 141 38 69 106 190 151
270 45 80 93 165 107 190 14 25 160 286 325 580 165 294 305 544 311 556 9 18
-2 43 -79 179 -49 87 -89 160 -89 162 0 2 -11 20 -24 41 -13 20 -37 62 -53 92
-68 128 -167 300 -172 300 -3 0 -15 -17 -27 -38 -11 -20 -38 -68 -59 -107 -21
-38 -138 -248 -260 -465 -122 -217 -259 -462 -305 -545 -46 -82 -89 -156 -95
-163 -11 -12 -70 84 -211 343 -8 16 -374 668 -451 805 -11 19 -35 62 -53 95
-43 79 -46 81 -63 54z"/>
</g>
</svg>
