<svg xmlns="http://www.w3.org/2000/svg" viewBox="0 0 249.95377 85.70684"><defs><style>.a{fill:#fff;fill-rule:evenodd;}</style></defs><path class="a" d="M8.22208,44.83545V55.48217h9.26773a3.63018,3.63018,0,0,0,2.77542-1.27574,5.93465,5.93465,0,0,0,1.33553-4.17A5.27262,5.27262,0,0,0,20.26523,46.103a3.65076,3.65076,0,0,0-2.77542-1.26756Zm0-6.56288H15.961A4.38079,4.38079,0,0,0,19.01753,37.171,3.82237,3.82237,0,0,0,20.063,34.22047a3.77138,3.77138,0,0,0-1.04547-2.91225A4.34256,4.34256,0,0,0,15.961,30.19643H8.22208v8.07614ZM0,22.29359H16.24119a12.2813,12.2813,0,0,1,8.59031,3.28775,10.10154,10.10154,0,0,1,3.70575,7.62284,8.73906,8.73906,0,0,1-1.49968,4.96233,6.24687,6.24687,0,0,1-4.56627,2.8254,9.78749,9.78749,0,0,1,5.41676,3.946,10.16467,10.16467,0,0,1,2.129,6.34614,11.98339,11.98339,0,0,1-3.43482,8.135,11.50158,11.50158,0,0,1-8.81241,3.967H0Z"/><polygon class="a" points="64.666 30.515 46.104 30.515 46.104 37.74 62.936 37.74 62.936 45.954 46.104 45.954 46.104 55.193 64.666 55.193 64.666 63.386 37.881 63.386 37.881 22.294 64.666 22.294 64.666 30.515"/><path class="a" d="M72.10143,63.38614,92.48364,20.53263l20.37312,42.85351h-8.98641c-5.95992-12.54731-5.0994-9.275-11.38671-24.57134-.30825.63843-.74446,1.66384-1.30563,3.05657-5.17016,12.541-4.93525,10.663-10.08906,21.51477Z"/><polygon class="a" points="210.08 63.386 210.08 21.189 241.741 47.26 241.741 22.294 249.954 22.294 249.954 64.633 218.302 38.564 218.302 63.386 210.08 63.386"/><path class="a" d="M146.71923,33.175a13.44542,13.44542,0,0,0-4.19822-2.66026,13.18877,13.18877,0,0,0-4.87546-.90843,13.25877,13.25877,0,0,0-13.23347,13.23346A13.21928,13.21928,0,0,0,142.521,55.16388a13.01881,13.01881,0,0,0,4.19822-2.63206l5.58166,5.97794a20.87439,20.87439,0,0,1-6.74227,4.30518,21.23114,21.23114,0,0,1-7.91307,1.50953A20.65731,20.65731,0,0,1,122.487,58.02639a20.66575,20.66575,0,0,1-6.288-15.18662,20.62961,20.62961,0,0,1,6.288-15.15857,20.658,20.658,0,0,1,15.15858-6.29808,21.42,21.42,0,0,1,7.91307,1.49968,20.88575,20.88575,0,0,1,6.74227,4.31429Z"/><path class="a" d="M165.73045,56.42253l13.928,29.28431L193.58118,56.4216,189.112,47.02518l-9.45361,20.39856-9.46068-20.40041-4.46729,9.3992Zm27.85073-27.13729L179.65842,0l-13.928,29.28524,4.46729,9.399,9.46068-20.40116L189.112,38.6824Z"/><polygon class="a" points="155.132 42.853 161.585 56.42 168.033 42.853 161.585 29.287 155.132 42.853"/><polygon class="a" points="191.274 42.853 197.727 56.42 204.175 42.853 197.727 29.287 191.274 42.853"/></svg>