<svg id="Titlebar" xmlns="http://www.w3.org/2000/svg" xmlns:xlink="http://www.w3.org/1999/xlink" width="1212" height="714" viewBox="0 0 1212 714">
  <metadata><?xpacket begin="﻿" id="W5M0MpCehiHzreSzNTczkc9d"?>
<x:xmpmeta xmlns:x="adobe:ns:meta/" x:xmptk="Adobe XMP Core 5.6-c138 79.159824, 2016/09/14-01:09:01        ">
   <rdf:RDF xmlns:rdf="http://www.w3.org/1999/02/22-rdf-syntax-ns#">
      <rdf:Description rdf:about=""/>
   </rdf:RDF>
</x:xmpmeta>
                                                                                                    
                                                                                                    
                                                                                                    
                                                                                                    
                                                                                                    
                                                                                                    
                                                                                                    
                                                                                                    
                                                                                                    
                                                                                                    
                                                                                                    
                                                                                                    
                                                                                                    
                                                                                                    
                                                                                                    
                                                                                                    
                                                                                                    
                                                                                                    
                                                                                                    
                                                                                                    
                           
<?xpacket end="w"?></metadata>
<defs>
    <style>
      .cls-1 {
        fill: #ececec;
        filter: url(#filter);
      }

      .cls-2 {
        fill: url(#linear-gradient);
      }

      .cls-13, .cls-14, .cls-15, .cls-17, .cls-3 {
        fill-rule: evenodd;
      }

      .cls-4 {
        fill: #df4845;
      }

      .cls-5 {
        fill: #fc625d;
      }

      .cls-6 {
        fill: #dea034;
      }

      .cls-7 {
        fill: #fdbe41;
      }

      .cls-8 {
        fill: #28ab35;
      }

      .cls-9 {
        fill: #34c84a;
      }

      .cls-10 {
        fill: #b3b3b3;
      }

      .cls-11 {
        fill: #efefef;
      }

      .cls-12, .cls-13 {
        fill: #fff;
      }

      .cls-14 {
        fill: #d6d6d6;
      }

      .cls-15, .cls-16 {
        fill: #363636;
      }

      .cls-17, .cls-18 {
        fill: #cbcbcb;
      }
    </style>
    <filter id="filter" x="36" y="17" width="1140" height="642" filterUnits="userSpaceOnUse">
      <feOffset result="offset" dy="5" in="SourceAlpha"/>
      <feGaussianBlur result="blur" stdDeviation="4.472"/>
      <feFlood result="flood" flood-opacity="0.4"/>
      <feComposite result="composite" operator="in" in2="blur"/>
      <feBlend result="blend" in="SourceGraphic"/>
    </filter>
    <linearGradient id="linear-gradient" x1="606" y1="53" x2="606" y2="32" gradientUnits="userSpaceOnUse">
      <stop offset="0" stop-color="#d4d4d4"/>
      <stop offset="0.939" stop-color="#ebebeb"/>
      <stop offset="1" stop-color="#fff"/>
    </linearGradient>
  </defs>
  <path id="Background" class="cls-1" d="M68,32H1150a6,6,0,0,1,6,6V628a6,6,0,0,1-6,6H62a6,6,0,0,1-6-6V44A12,12,0,0,1,68,32Z"/>
  <path id="Background-2" data-name="Background" class="cls-2" d="M62,32H1150a6,6,0,0,1,6,6V53a0,0,0,0,1,0,0H56a0,0,0,0,1,0,0V38A6,6,0,0,1,62,32Z"/>
  <path id="Default_Loot.beacon" data-name="Default Loot.beacon" class="cls-3" d="M548.393,47.171a5.135,5.135,0,0,0,.52-0.033,2.9,2.9,0,0,0,.663-0.156,3.035,3.035,0,0,0,.7-0.358,2.353,2.353,0,0,0,.617-0.637,3.56,3.56,0,0,0,.449-1.008,5.3,5.3,0,0,0,.175-1.463,6.233,6.233,0,0,0-.162-1.488,2.865,2.865,0,0,0-.533-1.118,2.346,2.346,0,0,0-.956-0.7,3.808,3.808,0,0,0-1.443-.241h-2.08v7.2h2.054Zm-0.1-8.242a4.627,4.627,0,0,1,3.3,1.092,4.37,4.37,0,0,1,1.157,3.328,7.487,7.487,0,0,1-.26,2.074,3.869,3.869,0,0,1-.806,1.521,3.485,3.485,0,0,1-1.391.943,5.565,5.565,0,0,1-2,.325H545.1V38.929h3.185Zm10.537,4.537a1.9,1.9,0,0,0-.4-0.6,1.923,1.923,0,0,0-.6-0.4,1.894,1.894,0,0,0-.761-0.149,1.922,1.922,0,0,0-.773.149,1.792,1.792,0,0,0-.592.41,1.988,1.988,0,0,0-.39.6,2.329,2.329,0,0,0-.169.734H559A2.269,2.269,0,0,0,558.826,43.466Zm0.266,4.316a3.048,3.048,0,0,1-1.9.572,3.45,3.45,0,0,1-1.4-.26,2.752,2.752,0,0,1-1-.728,3.1,3.1,0,0,1-.6-1.118,5.385,5.385,0,0,1-.228-1.417,4.045,4.045,0,0,1,.234-1.4,3.353,3.353,0,0,1,.657-1.105,2.971,2.971,0,0,1,1-.728,3.055,3.055,0,0,1,1.267-.26,2.761,2.761,0,0,1,1.489.37,2.955,2.955,0,0,1,.949.943,3.735,3.735,0,0,1,.494,1.248,5.317,5.317,0,0,1,.11,1.287H555.14a2.686,2.686,0,0,0,.1.839,1.9,1.9,0,0,0,.377.7,1.869,1.869,0,0,0,.663.487,2.287,2.287,0,0,0,.949.182,1.913,1.913,0,0,0,1.151-.325,1.569,1.569,0,0,0,.591-0.988h1.092A2.683,2.683,0,0,1,559.092,47.782Zm1.807-5.317V41.49h1.131v-1a1.574,1.574,0,0,1,.475-1.242,2.018,2.018,0,0,1,1.384-.422,2.87,2.87,0,0,1,.358.026,1.933,1.933,0,0,1,.357.078v0.962a1.371,1.371,0,0,0-.312-0.072,2.745,2.745,0,0,0-.312-0.02,1.069,1.069,0,0,0-.624.156,0.689,0.689,0,0,0-.221.6V41.49h1.3v0.975h-1.3v5.746H562.03V42.465H560.9Zm10.738,4.862a1.336,1.336,0,0,1-.338.052,0.267,0.267,0,0,1-.3-0.182,2.526,2.526,0,0,1-.046-0.571V43.176a1.806,1.806,0,0,0-.221-0.947,1.552,1.552,0,0,0-.585-0.564,2.367,2.367,0,0,0-.812-0.266,6.321,6.321,0,0,0-.9-0.065,4.7,4.7,0,0,0-1.072.117,2.621,2.621,0,0,0-.891.384,1.972,1.972,0,0,0-.624.7,2.382,2.382,0,0,0-.26,1.053h1.105a1.131,1.131,0,0,1,.507-1.008,2.339,2.339,0,0,1,1.17-.267,3.646,3.646,0,0,1,.527.039,1.432,1.432,0,0,1,.481.156,0.937,0.937,0,0,1,.351.338,1.1,1.1,0,0,1,.136.585,0.6,0.6,0,0,1-.182.474,1.2,1.2,0,0,1-.494.247,4.771,4.771,0,0,1-.721.13c-0.273.031-.562,0.076-0.865,0.137q-0.429.078-.838,0.2a2.353,2.353,0,0,0-.728.344,1.7,1.7,0,0,0-.514.592,1.975,1.975,0,0,0-.2.936,1.946,1.946,0,0,0,.176.864,1.559,1.559,0,0,0,.474.578,2,2,0,0,0,.709.325,3.66,3.66,0,0,0,2.171-.136,2.639,2.639,0,0,0,1.059-.786,1.045,1.045,0,0,0,.254.786,0.95,0.95,0,0,0,.682.241,1.565,1.565,0,0,0,.793-0.169V47.327Zm-1.794-1.461a1.238,1.238,0,0,1-.117.5,1.477,1.477,0,0,1-.364.492,1.975,1.975,0,0,1-.637.375,2.631,2.631,0,0,1-.936.149,2.279,2.279,0,0,1-.494-0.052,1.2,1.2,0,0,1-.409-0.168,0.911,0.911,0,0,1-.286-0.3,0.888,0.888,0,0,1-.111-0.459,1.027,1.027,0,0,1,.189-0.653,1.222,1.222,0,0,1,.487-0.369,2.765,2.765,0,0,1,.676-0.187c0.251-.039.5-0.073,0.748-0.1s0.483-.069.708-0.116a1.383,1.383,0,0,0,.546-0.227v1.126Zm7.605,2.345V47.145h-0.026a2.258,2.258,0,0,1-.9.916,2.687,2.687,0,0,1-1.287.293,3.011,3.011,0,0,1-1.105-.175,1.758,1.758,0,0,1-.715-0.5,1.887,1.887,0,0,1-.384-0.773,4.194,4.194,0,0,1-.11-0.995V41.49h1.105v4.55a1.333,1.333,0,0,0,.364.988,1.351,1.351,0,0,0,1,.364,2.249,2.249,0,0,0,.877-0.156,1.648,1.648,0,0,0,.618-0.442,1.906,1.906,0,0,0,.37-0.669,2.7,2.7,0,0,0,.124-0.839v-3.8h1.105v6.721h-1.04Zm4.134-9.282v9.282h-1.105V38.929h1.105Zm4.849,2.561v0.975h-1.339v4.173a1.194,1.194,0,0,0,.032.312,0.322,0.322,0,0,0,.124.182,0.54,0.54,0,0,0,.253.084,3.683,3.683,0,0,0,.423.02h0.507v0.975h-0.845a3.976,3.976,0,0,1-.735-0.059,1.079,1.079,0,0,1-.494-0.215,0.908,0.908,0,0,1-.279-0.442,2.542,2.542,0,0,1-.091-0.754V42.465h-1.144V41.49h1.144V39.475h1.105V41.49h1.339Zm6.773-2.561v8.242h4.914v1.04h-6.149V38.929H593.2Zm7.039,7.014a2.273,2.273,0,0,0,.448.793,1.944,1.944,0,0,0,.67.488,2.038,2.038,0,0,0,1.625,0,1.931,1.931,0,0,0,.669-0.488,2.259,2.259,0,0,0,.449-0.793,3.718,3.718,0,0,0,0-2.171,2.335,2.335,0,0,0-.449-0.8,1.9,1.9,0,0,0-.669-0.494,2.038,2.038,0,0,0-1.625,0,1.915,1.915,0,0,0-.67.494,2.35,2.35,0,0,0-.448.8A3.7,3.7,0,0,0,600.243,45.942Zm-1.125-2.47a3.148,3.148,0,0,1,.624-1.118,2.95,2.95,0,0,1,1.027-.747,3.765,3.765,0,0,1,2.815,0,2.951,2.951,0,0,1,1.02.747,3.118,3.118,0,0,1,.624,1.118,4.466,4.466,0,0,1,.208,1.385,4.4,4.4,0,0,1-.208,1.378,3.123,3.123,0,0,1-.624,1.111,2.875,2.875,0,0,1-1.02.741,3.85,3.85,0,0,1-2.815,0,2.875,2.875,0,0,1-1.027-.741,3.153,3.153,0,0,1-.624-1.111,4.434,4.434,0,0,1-.208-1.378A4.5,4.5,0,0,1,599.118,43.472Zm8.847,2.47a2.273,2.273,0,0,0,.448.793,1.944,1.944,0,0,0,.67.488,2.038,2.038,0,0,0,1.625,0,1.94,1.94,0,0,0,.669-0.488,2.274,2.274,0,0,0,.449-0.793,3.718,3.718,0,0,0,0-2.171,2.351,2.351,0,0,0-.449-0.8,1.912,1.912,0,0,0-.669-0.494,2.038,2.038,0,0,0-1.625,0,1.915,1.915,0,0,0-.67.494,2.35,2.35,0,0,0-.448.8A3.7,3.7,0,0,0,607.965,45.942Zm-1.125-2.47a3.148,3.148,0,0,1,.624-1.118,2.95,2.95,0,0,1,1.027-.747,3.765,3.765,0,0,1,2.815,0,2.951,2.951,0,0,1,1.02.747,3.118,3.118,0,0,1,.624,1.118,4.466,4.466,0,0,1,.208,1.385,4.4,4.4,0,0,1-.208,1.378,3.123,3.123,0,0,1-.624,1.111,2.875,2.875,0,0,1-1.02.741,3.85,3.85,0,0,1-2.815,0,2.875,2.875,0,0,1-1.027-.741,3.153,3.153,0,0,1-.624-1.111,4.434,4.434,0,0,1-.208-1.378A4.5,4.5,0,0,1,606.84,43.472Zm10.751-1.983v0.975h-1.339v4.173a1.188,1.188,0,0,0,.033.312,0.32,0.32,0,0,0,.123.182,0.545,0.545,0,0,0,.254.084,3.676,3.676,0,0,0,.422.02h0.507v0.975h-0.845a3.957,3.957,0,0,1-.734-0.059,1.074,1.074,0,0,1-.494-0.215,0.917,0.917,0,0,1-.28-0.442,2.575,2.575,0,0,1-.091-0.754V42.465H614V41.49h1.144V39.475h1.1V41.49h1.339Zm3.172,5.278v1.443H619.32V46.768h1.443Zm3.328-7.839V42.4h0.026a1.655,1.655,0,0,1,.858-0.812,3.2,3.2,0,0,1,1.287-.254,3.037,3.037,0,0,1,1.359.286,2.774,2.774,0,0,1,.962.773,3.43,3.43,0,0,1,.578,1.124,4.6,4.6,0,0,1,.2,1.352,4.764,4.764,0,0,1-.188,1.352,3.2,3.2,0,0,1-.572,1.111,2.7,2.7,0,0,1-.962.748,3.125,3.125,0,0,1-1.346.273,3.314,3.314,0,0,1-.552-0.052,3.063,3.063,0,0,1-.605-0.169,2.347,2.347,0,0,1-.565-0.319,1.768,1.768,0,0,1-.449-0.5h-0.026v0.9h-1.105V38.929h1.105Zm3.972,4.947a2.487,2.487,0,0,0-.377-0.8,1.852,1.852,0,0,0-.65-0.559,1.981,1.981,0,0,0-.93-0.208,1.824,1.824,0,0,0-1.586.8,2.4,2.4,0,0,0-.357.813,3.927,3.927,0,0,0,.006,1.878,2.364,2.364,0,0,0,.371.813,1.888,1.888,0,0,0,.656.566,2.053,2.053,0,0,0,.975.215,1.891,1.891,0,0,0,.956-0.221,1.778,1.778,0,0,0,.617-0.585,2.536,2.536,0,0,0,.338-0.832,4.441,4.441,0,0,0,.1-0.962A3.45,3.45,0,0,0,628.063,43.875Zm7.344-.41a1.883,1.883,0,0,0-.4-0.6,1.912,1.912,0,0,0-.6-0.4,1.89,1.89,0,0,0-.76-0.149,1.931,1.931,0,0,0-.774.149,1.788,1.788,0,0,0-.591.41,1.951,1.951,0,0,0-.39.6,2.276,2.276,0,0,0-.169.734h3.861A2.27,2.27,0,0,0,635.407,43.466Zm0.267,4.316a3.052,3.052,0,0,1-1.9.572,3.455,3.455,0,0,1-1.4-.26,2.749,2.749,0,0,1-.994-0.728,3.1,3.1,0,0,1-.605-1.118,5.386,5.386,0,0,1-.227-1.417,4.045,4.045,0,0,1,.234-1.4,3.368,3.368,0,0,1,.656-1.105,2.991,2.991,0,0,1,1-.728,3.06,3.06,0,0,1,1.268-.26,2.755,2.755,0,0,1,1.488.37,2.935,2.935,0,0,1,.949.943,3.714,3.714,0,0,1,.494,1.248,5.37,5.37,0,0,1,.111,1.287h-5.031a2.657,2.657,0,0,0,.1.839,1.887,1.887,0,0,0,.377.7,1.851,1.851,0,0,0,.663.487,2.284,2.284,0,0,0,.949.182,1.91,1.91,0,0,0,1.15-.325,1.574,1.574,0,0,0,.592-0.988h1.092A2.691,2.691,0,0,1,635.674,47.782Zm8.437-.455a1.336,1.336,0,0,1-.338.052,0.269,0.269,0,0,1-.306-0.182,2.6,2.6,0,0,1-.045-0.571V43.176a1.806,1.806,0,0,0-.221-0.947,1.567,1.567,0,0,0-.585-0.564A2.372,2.372,0,0,0,641.8,41.4a6.307,6.307,0,0,0-.9-0.065,4.705,4.705,0,0,0-1.073.117,2.624,2.624,0,0,0-.89.384,1.972,1.972,0,0,0-.624.7,2.382,2.382,0,0,0-.26,1.053h1.105a1.131,1.131,0,0,1,.507-1.008,2.339,2.339,0,0,1,1.17-.267,3.622,3.622,0,0,1,.526.039,1.425,1.425,0,0,1,.481.156,0.937,0.937,0,0,1,.351.338,1.1,1.1,0,0,1,.137.585,0.6,0.6,0,0,1-.182.474,1.2,1.2,0,0,1-.494.247,4.786,4.786,0,0,1-.722.13q-0.409.046-.864,0.137-0.429.078-.839,0.2a2.364,2.364,0,0,0-.728.344,1.706,1.706,0,0,0-.513.592,1.975,1.975,0,0,0-.2.936,1.946,1.946,0,0,0,.175.864,1.552,1.552,0,0,0,.475.578,2,2,0,0,0,.708.325,3.66,3.66,0,0,0,2.171-.136,2.648,2.648,0,0,0,1.06-.786,1.045,1.045,0,0,0,.253.786,0.952,0.952,0,0,0,.683.241,1.565,1.565,0,0,0,.793-0.169V47.327Zm-1.794-1.461a1.238,1.238,0,0,1-.117.5,1.49,1.49,0,0,1-.364.492,1.975,1.975,0,0,1-.637.375,2.631,2.631,0,0,1-.936.149,2.272,2.272,0,0,1-.494-0.052,1.206,1.206,0,0,1-.41-0.168,0.921,0.921,0,0,1-.286-0.3,0.9,0.9,0,0,1-.11-0.459,1.033,1.033,0,0,1,.188-0.653,1.226,1.226,0,0,1,.488-0.369,2.752,2.752,0,0,1,.676-0.187q0.376-.058.747-0.1t0.709-.116a1.383,1.383,0,0,0,.546-0.227v1.126Zm7.1-3.206a1.678,1.678,0,0,0-1.118-.351,2.059,2.059,0,0,0-1,.221,1.784,1.784,0,0,0-.644.585,2.463,2.463,0,0,0-.344.839,4.531,4.531,0,0,0-.1.981,3.72,3.72,0,0,0,.11.91,2.444,2.444,0,0,0,.345.786,1.737,1.737,0,0,0,.611.553,1.826,1.826,0,0,0,.9.208,1.808,1.808,0,0,0,1.28-.429,1.939,1.939,0,0,0,.566-1.209h1.131a3.1,3.1,0,0,1-.93,1.924,2.918,2.918,0,0,1-2.034.676,3.5,3.5,0,0,1-1.359-.247,2.631,2.631,0,0,1-.988-0.7,3.034,3.034,0,0,1-.6-1.085,4.538,4.538,0,0,1-.2-1.385,4.933,4.933,0,0,1,.2-1.41,3.268,3.268,0,0,1,.591-1.144,2.774,2.774,0,0,1,1-.767,3.252,3.252,0,0,1,1.391-.279,4.062,4.062,0,0,1,1.072.136,2.615,2.615,0,0,1,.884.422,2.311,2.311,0,0,1,.631.722,2.681,2.681,0,0,1,.312,1.033h-1.144A1.688,1.688,0,0,0,649.415,42.66Zm4.192,3.282a2.273,2.273,0,0,0,.448.793,1.944,1.944,0,0,0,.67.488,2.038,2.038,0,0,0,1.625,0,1.94,1.94,0,0,0,.669-0.488,2.274,2.274,0,0,0,.449-0.793,3.718,3.718,0,0,0,0-2.171,2.351,2.351,0,0,0-.449-0.8,1.912,1.912,0,0,0-.669-0.494,2.038,2.038,0,0,0-1.625,0,1.915,1.915,0,0,0-.67.494,2.35,2.35,0,0,0-.448.8A3.7,3.7,0,0,0,653.607,45.942Zm-1.125-2.47a3.148,3.148,0,0,1,.624-1.118,2.95,2.95,0,0,1,1.027-.747,3.765,3.765,0,0,1,2.815,0,2.951,2.951,0,0,1,1.02.747,3.118,3.118,0,0,1,.624,1.118,4.466,4.466,0,0,1,.208,1.385,4.4,4.4,0,0,1-.208,1.378,3.123,3.123,0,0,1-.624,1.111,2.875,2.875,0,0,1-1.02.741,3.85,3.85,0,0,1-2.815,0,2.875,2.875,0,0,1-1.027-.741,3.153,3.153,0,0,1-.624-1.111,4.434,4.434,0,0,1-.208-1.378A4.5,4.5,0,0,1,652.482,43.472ZM661.4,41.49v1.066h0.026a2.328,2.328,0,0,1,2.184-1.222,2.917,2.917,0,0,1,1.105.182,1.818,1.818,0,0,1,.715.507,1.889,1.889,0,0,1,.384.773,4.194,4.194,0,0,1,.11.995v4.42h-1.105v-4.55a1.334,1.334,0,0,0-.364-0.988,1.352,1.352,0,0,0-1-.364,2.249,2.249,0,0,0-.877.156,1.652,1.652,0,0,0-.618.442,1.911,1.911,0,0,0-.37.669,2.7,2.7,0,0,0-.124.839v3.8H660.36V41.49h1.04Z"/>
  <circle id="Close_Outer" data-name="Close Outer" class="cls-4" cx="70" cy="43" r="6"/>
  <circle id="Close_Inner" data-name="Close Inner" class="cls-5" cx="70" cy="43" r="5"/>
  <circle id="Minimize_Outer" data-name="Minimize Outer" class="cls-6" cx="90" cy="43" r="6"/>
  <circle id="Minimize_Inner" data-name="Minimize Inner" class="cls-7" cx="90" cy="43" r="5"/>
  <circle id="Zoom_Outer" data-name="Zoom Outer" class="cls-8" cx="110" cy="43" r="6"/>
  <circle id="Zoom_Inner" data-name="Zoom Inner" class="cls-9" cx="110" cy="43" r="5"/>
  <rect class="cls-10" x="56" y="53" width="1100" height="1"/>
  <path id="Background_Lower" data-name="Background Lower" class="cls-11" d="M56,622H1156a0,0,0,0,1,0,0v6a6,6,0,0,1-6,6H62a6,6,0,0,1-6-6v-6A0,0,0,0,1,56,622Z"/>
  <rect id="Background_Upper" data-name="Background Upper" class="cls-12" x="56" y="610" width="1100" height="12"/>
  <g id="Highlights">
    <path class="cls-13" d="M56,610H86v24H62a6,6,0,0,1-6-6V610Zm1,1H85v22H63a6,6,0,0,1-6-6V611Z"/>
    <path class="cls-13" d="M87,610h30v24H87V610Zm1,1h28v22H88V611Z"/>
    <path id="Rectangle_7_copy" data-name="Rectangle 7 copy" class="cls-13" d="M118,610h30v24H118V610Zm1,1h28v22H119V611Z"/>
    <path id="Rectangle_7_copy_2" data-name="Rectangle 7 copy 2" class="cls-13" d="M291,610h30v24H291V610Zm1,1h28v22H292V611Z"/>
    <path id="Rectangle_7_copy_3" data-name="Rectangle 7 copy 3" class="cls-13" d="M322,610h30v24H322V610Zm1,1h28v22H323V611Z"/>
    <path id="Rectangle_7_copy_4" data-name="Rectangle 7 copy 4" class="cls-13" d="M482,610h30v24H482V610Zm1,1h28v22H483V611Z"/>
    <path id="Rectangle_7_copy_5" data-name="Rectangle 7 copy 5" class="cls-13" d="M513,610h30v24H513V610Zm1,1h28v22H514V611Z"/>
    <path id="Rectangle_7_copy_6" data-name="Rectangle 7 copy 6" class="cls-13" d="M544,610h30v24H544V610Zm1,1h28v22H545V611Z"/>
    <path class="cls-13" d="M149,610H290v24H149V610Zm1,1H289v22H150V611Z"/>
    <path class="cls-13" d="M353,610H481v24H353V610Zm1,1H480v22H354V611Z"/>
    <path class="cls-13" d="M575,610h581v18a6,6,0,0,1-6,6H575V610Zm1,1h579v16a6,6,0,0,1-6,6H576V611Z"/>
  </g>
  <path id="Borders" class="cls-14" d="M56,609H1156v1H56v-1Zm30,1h1v24H86V610Zm31,0h1v24h-1V610Zm31,0h1v24h-1V610Zm142,0h1v24h-1V610Zm31,0h1v24h-1V610Zm31,0h1v24h-1V610Zm129,0h1v24h-1V610Zm31,0h1v24h-1V610Zm31,0h1v24h-1V610Zm31,0h1v24h-1V610Z"/>
  <path id="Add_With_Menu_Shadow" data-name="Add With Menu Shadow" class="cls-13" d="M73,623h5l-2.469,3Zm-2-1H68v-3H66v3H63v2h3v3h2v-3h3v-2Z"/>
  <path id="Add_With_Menu" data-name="Add With Menu" class="cls-15" d="M73,622h5l-2.469,3Zm-2-1H68v-3H66v3H63v2h3v3h2v-3h3v-2Z"/>
  <path id="Edit_Shadow" data-name="Edit Shadow" class="cls-13" d="M99.857,627.207l-2.1-2.1,8.151-8.16,2.1,2.1Zm-1.148-1.122-0.4-.4,8.153-8.162,0.4,0.4ZM96,628.963l-0.016-.017,1.066-3.137,2.084,2.086Zm2.8-2.88H97.318v1.455H98.8v-1.455Z"/>
  <path id="Edit" class="cls-15" d="M99.857,626.207l-2.1-2.1,8.151-8.16,2.1,2.1Zm-1.148-1.122-0.4-.4,8.153-8.162,0.4,0.4ZM96,627.963l-0.016-.017,1.066-3.137,2.084,2.086Zm2.8-2.88H97.318v1.455H98.8v-1.455Z"/>
  <rect id="Delete_Shadow" data-name="Delete Shadow" class="cls-12" x="129" y="622" width="8" height="2"/>
  <rect id="Delete" class="cls-16" x="129" y="621" width="8" height="2"/>
  <rect id="Delete_Shadow_copy" data-name="Delete Shadow copy" class="cls-12" x="333" y="622" width="8" height="2"/>
  <rect id="Delete_copy" data-name="Delete copy" class="cls-16" x="333" y="621" width="8" height="2"/>
  <path id="Add_With_Menu_Shadow_copy" data-name="Add With Menu Shadow copy" class="cls-13" d="M308,623h5l-2.469,3Zm-2-1h-3v-3h-2v3h-3v2h3v3h2v-3h3v-2Z"/>
  <path id="Add_With_Menu_copy" data-name="Add With Menu copy" class="cls-15" d="M308,622h5l-2.469,3Zm-2-1h-3v-3h-2v3h-3v2h3v3h2v-3h3v-2Z"/>
  <path id="Add_Shadow" data-name="Add Shadow" class="cls-13" d="M493,622h3v-3h2v3h3v2h-3v3h-2v-3h-3v-2Z"/>
  <path id="Add" class="cls-15" d="M493,621h3v-3h2v3h3v2h-3v3h-2v-3h-3v-2Z"/>
  <path id="Edit_Shadow_copy" data-name="Edit Shadow copy" class="cls-13" d="M525.857,627.207l-2.1-2.1,8.151-8.16,2.1,2.1Zm-1.148-1.122-0.4-.4,8.153-8.162,0.4,0.4ZM522,628.963l-0.016-.017,1.066-3.137,2.085,2.086Zm2.8-2.88h-1.485v1.455H524.8v-1.455Z"/>
  <path id="Edit_copy" data-name="Edit copy" class="cls-17" d="M525.857,626.207l-2.1-2.1,8.151-8.16,2.1,2.1Zm-1.148-1.122-0.4-.4,8.153-8.162,0.4,0.4ZM522,627.963l-0.016-.017,1.066-3.137,2.085,2.086Zm2.8-2.88h-1.485v1.455H524.8v-1.455Z"/>
  <rect id="Delete_Shadow_copy_2" data-name="Delete Shadow copy 2" class="cls-12" x="555" y="622" width="8" height="2"/>
  <rect id="Delete_copy_2" data-name="Delete copy 2" class="cls-18" x="555" y="621" width="8" height="2"/>
</svg>
