<svg xmlns="http://www.w3.org/2000/svg" xmlns:xlink="http://www.w3.org/1999/xlink" viewBox="0 0 250 86"><defs><style>.a,.b,.c,.d{fill-rule:evenodd;}.b{fill:url(#a);}.c{fill:url(#b);}.d{fill:url(#c);}</style><linearGradient id="a" x1="209.54025" y1="4.10423" x2="155.8903" y2="73.93785" gradientUnits="userSpaceOnUse"><stop offset="0" stop-color="#ff0"/><stop offset="0.5" stop-color="#d40cc3"/><stop offset="1" stop-color="#1f0099"/></linearGradient><linearGradient id="b" x1="198.17471" y1="-4.62739" x2="144.52475" y2="65.20623" xlink:href="#a"/><linearGradient id="c" x1="220.9024" y1="12.83325" x2="167.25245" y2="82.66687" xlink:href="#a"/></defs><path class="a" d="M8.22208,44.982V55.62874h9.26773A3.63017,3.63017,0,0,0,20.26523,54.353a5.93465,5.93465,0,0,0,1.33553-4.17,5.27262,5.27262,0,0,0-1.33553-3.93342A3.65073,3.65073,0,0,0,17.48981,44.982Zm0-6.56288H15.961a4.38079,4.38079,0,0,0,3.05656-1.10155A3.82238,3.82238,0,0,0,20.063,34.367a3.77141,3.77141,0,0,0-1.04547-2.91225A4.3426,4.3426,0,0,0,15.961,30.343H8.22208v8.07615ZM0,22.44017H16.24119a12.28126,12.28126,0,0,1,8.59031,3.28775,10.10154,10.10154,0,0,1,3.70575,7.62283,8.73909,8.73909,0,0,1-1.49968,4.96234,6.24687,6.24687,0,0,1-4.56627,2.8254,9.78752,9.78752,0,0,1,5.41676,3.946,10.16469,10.16469,0,0,1,2.129,6.34615,11.98339,11.98339,0,0,1-3.43482,8.135,11.50158,11.50158,0,0,1-8.81241,3.967H0Z"/><polygon class="a" points="64.666 30.661 46.104 30.661 46.104 37.887 62.936 37.887 62.936 46.101 46.104 46.101 46.104 55.34 64.666 55.34 64.666 63.533 37.881 63.533 37.881 22.44 64.666 22.44 64.666 30.661"/><path class="a" d="M72.10143,63.53272,92.48364,20.67921l20.37312,42.85351h-8.98641c-5.95992-12.54731-5.0994-9.275-11.38671-24.57134-.30825.63843-.74446,1.66384-1.30563,3.05656C86.00785,54.559,86.24276,52.681,81.089,63.53272Z"/><polygon class="a" points="210.08 63.533 210.08 21.336 241.741 47.407 241.741 22.44 249.954 22.44 249.954 64.779 218.302 38.71 218.302 63.533 210.08 63.533"/><path class="a" d="M146.71923,33.32157a13.44578,13.44578,0,0,0-4.19822-2.66026,13.18876,13.18876,0,0,0-4.87546-.90842,13.25875,13.25875,0,0,0-13.23347,13.23346A13.21928,13.21928,0,0,0,142.521,55.31046a13.01881,13.01881,0,0,0,4.19822-2.63206l5.58166,5.97794a20.87456,20.87456,0,0,1-6.74227,4.30518,21.23114,21.23114,0,0,1-7.91307,1.50953A20.65731,20.65731,0,0,1,122.487,58.173a20.66575,20.66575,0,0,1-6.288-15.18662,20.62965,20.62965,0,0,1,6.288-15.15858,20.658,20.658,0,0,1,15.15858-6.29807,21.4198,21.4198,0,0,1,7.91307,1.49968,20.88589,20.88589,0,0,1,6.74227,4.31428Z"/><path class="b" d="M165.73045,56.56911l13.928,29.28431,13.92276-29.28524L189.112,47.17176l-9.45361,20.39856L170.19774,47.1699l-4.46729,9.39921Zm27.85073-27.13729L179.65842.14658l-13.928,29.28524,4.46729,9.399,9.46068-20.40116L189.112,38.829Z"/><polygon class="c" points="155.132 43 161.585 56.566 168.033 43 161.585 29.434 155.132 43"/><polygon class="d" points="191.274 43 197.727 56.566 204.175 43 197.727 29.434 191.274 43"/></svg>