<?xml version="1.0" standalone="no"?>
<!DOCTYPE svg PUBLIC "-//W3C//DTD SVG 20010904//EN"
 "http://www.w3.org/TR/2001/REC-SVG-20010904/DTD/svg10.dtd">
<svg version="1.0" xmlns="http://www.w3.org/2000/svg"
 width="700.000000pt" height="700.000000pt" viewBox="0 0 700.000000 700.000000"
 preserveAspectRatio="xMidYMid meet">
<metadata>
Created by potrace 1.11, written by Peter Selinger 2001-2013
</metadata>
<g transform="translate(0.000000,700.000000) scale(0.100000,-0.100000)"
fill="#000000" stroke="none">
<path d="M3265 6499 c-262 -469 -259 -464 -368 -659 -44 -80 -89 -158 -99
-175 -10 -16 -21 -37 -25 -45 -4 -8 -47 -87 -96 -175 -50 -88 -101 -180 -115
-205 -14 -25 -34 -61 -45 -80 -11 -19 -31 -55 -45 -80 -14 -25 -70 -126 -125
-225 -56 -99 -106 -190 -113 -203 -14 -27 -15 -26 -75 83 -24 44 -53 96 -64
116 -11 20 -83 149 -160 286 -117 210 -141 248 -151 234 -6 -9 -54 -92 -106
-186 -53 -93 -106 -188 -118 -210 -13 -22 -33 -58 -44 -80 -12 -22 -121 -218
-243 -435 -122 -217 -291 -521 -378 -675 l-156 -280 16 -33 c8 -19 102 -187
207 -375 105 -188 201 -360 213 -382 13 -22 87 -155 165 -295 78 -140 208
-372 287 -515 80 -143 151 -267 157 -276 9 -14 46 46 220 357 193 346 226 401
226 376 0 -5 25 -54 56 -108 31 -55 71 -126 89 -159 74 -134 205 -371 214
-385 6 -8 30 -51 54 -95 25 -44 55 -98 67 -120 29 -50 55 -97 118 -210 49 -88
263 -472 307 -550 12 -22 35 -62 50 -90 15 -27 71 -126 123 -219 52 -94 110
-197 129 -230 19 -34 39 -71 45 -83 6 -13 14 -23 18 -23 3 0 23 30 43 67 20
38 53 97 74 133 40 71 684 1225 728 1305 16 28 37 66 48 85 155 275 318 569
346 622 32 61 37 66 49 50 7 -9 103 -179 214 -377 111 -198 202 -361 203 -363
2 -2 572 1012 670 1193 32 57 69 125 140 250 34 61 76 135 92 165 17 30 59
105 92 165 53 93 60 113 52 133 -10 22 -385 696 -421 757 -10 17 -32 57 -50
90 -18 33 -73 131 -122 219 -50 87 -106 188 -125 225 -20 36 -39 71 -43 76 -4
6 -18 30 -32 55 -13 25 -75 136 -138 248 l-113 203 -22 -38 c-12 -21 -104
-186 -205 -368 -173 -313 -210 -374 -210 -348 0 6 -24 53 -53 104 -29 52 -67
119 -84 149 -16 30 -39 71 -50 90 -11 19 -98 175 -193 345 -95 171 -182 328
-195 350 -104 186 -171 306 -188 335 -11 19 -36 65 -56 101 -138 251 -447 799
-451 799 -3 0 -109 -185 -235 -411z m321 -84 c37 -66 77 -138 89 -160 13 -22
65 -116 117 -210 53 -93 106 -188 118 -210 30 -53 25 -44 398 -710 178 -319
337 -603 353 -630 l28 -51 -135 -239 c-74 -132 -169 -302 -211 -377 -42 -76
-79 -138 -82 -138 -5 1 -318 554 -497 879 -132 239 -239 428 -249 439 -10 11
-24 -8 -72 -95 -77 -137 -243 -436 -273 -488 -12 -22 -64 -114 -115 -205 -51
-91 -103 -183 -115 -205 -13 -22 -59 -104 -103 -182 -44 -79 -82 -143 -86
-143 -3 0 -11 10 -17 23 -5 12 -99 181 -208 376 l-198 354 15 31 c22 43 95
175 117 211 9 17 29 50 42 75 24 43 378 674 681 1215 77 138 154 275 171 306
115 207 151 268 157 261 4 -4 38 -61 75 -127z m-1718 -1517 c38 -68 114 -202
167 -298 54 -96 107 -191 118 -210 19 -33 29 -51 91 -162 13 -24 65 -117 116
-208 51 -91 137 -245 192 -342 l100 -178 -195 -347 c-107 -192 -204 -364 -215
-383 -11 -19 -30 -52 -42 -73 -11 -22 -86 -157 -167 -300 -80 -144 -160 -287
-177 -318 -17 -31 -38 -66 -47 -79 -16 -25 -4 -44 -196 300 -11 19 -63 112
-115 205 -52 94 -106 190 -120 215 -14 25 -66 117 -115 205 -50 88 -143 254
-207 368 l-117 208 22 37 c12 20 36 62 52 92 17 30 89 159 160 285 71 127 143
255 160 285 16 30 38 69 47 85 10 17 32 57 50 90 18 33 42 76 53 95 56 100
153 270 175 310 13 25 40 71 58 103 19 32 34 60 34 62 0 6 42 75 45 75 2 0 35
-55 73 -122z m3380 80 c12 -24 36 -70 55 -103 36 -64 203 -360 245 -435 40
-71 296 -529 329 -590 17 -30 62 -109 100 -176 111 -193 118 -137 -63 -460
-86 -153 -168 -299 -182 -324 -14 -25 -55 -99 -92 -165 -37 -66 -90 -160 -118
-210 -75 -135 -103 -184 -204 -367 -51 -92 -95 -168 -98 -168 -5 0 -348 606
-431 761 -21 38 -46 83 -57 101 -74 124 -362 648 -362 658 0 11 168 318 268
490 12 19 30 53 42 75 26 48 119 214 305 545 76 135 158 282 184 327 25 46 48
83 52 83 3 0 15 -19 27 -42z m-2448 -1743 c18 -33 42 -76 53 -95 11 -19 161
-288 335 -597 173 -309 318 -561 321 -558 4 2 173 301 377 664 203 363 371
661 374 661 4 0 101 -170 217 -377 l211 -377 -36 -65 c-19 -36 -96 -174 -170
-306 -74 -132 -146 -260 -160 -285 -14 -25 -77 -137 -140 -250 -63 -113 -126
-225 -140 -250 -14 -25 -53 -94 -87 -155 -34 -60 -98 -175 -143 -255 -44 -80
-89 -161 -101 -180 -11 -19 -45 -80 -75 -135 -96 -173 -118 -210 -126 -218 -4
-5 -16 9 -27 30 -11 21 -115 207 -231 414 -116 207 -221 395 -234 418 -13 23
-27 50 -33 59 -5 10 -30 53 -54 97 -24 44 -53 96 -64 115 -114 200 -522 930
-529 947 -9 18 6 50 90 200 119 212 129 231 222 398 94 169 100 179 110 169 4
-5 22 -36 40 -69z"/>
</g>
</svg>
